<svg xmlns="http://www.w3.org/2000/svg" viewBox="0 0 12.5 12.5"><defs><style>.cls-1{fill:#fff}</style></defs><g id="レイヤー_2" data-name="レイヤー 2"><g id="レイヤー_1-2" data-name="レイヤー 1"><g id="external-link-2"><path id="パス_4" data-name="パス 4" class="cls-1" d="M11.8 5.6a.67.67 0 00-.7.6v4.2a.67.67 0 01-.6.7H2.1a.67.67 0 01-.7-.6V2.1a.67.67 0 01.6-.7h4.2a.67.67 0 00.7-.6V.7a.67.67 0 00-.6-.7H2.1A2.16 2.16 0 000 2v8.4a2.16 2.16 0 002 2.1h8.4a2.16 2.16 0 002.1-2V6.3a.68.68 0 00-.7-.7z"/><path id="パス_5" data-name="パス 5" class="cls-1" d="M9 1.4h1.1L5.8 5.8a.56.56 0 000 .9.56.56 0 00.9 0L11 2.4v1.1a.67.67 0 00.6.7h.1a.67.67 0 00.7-.6V.7a.67.67 0 00-.6-.7H8.9a.67.67 0 00-.7.6v.1a.85.85 0 00.8.7z"/></g></g></g></svg>