<svg xmlns="http://www.w3.org/2000/svg" width="500.64" height="68.64"><path d="M57.888 68.64a5.219 5.219 0 003.744-1.44l9.888-9.12a2.76 2.76 0 00.192-3.936 2.757 2.757 0 00-3.936-.192l-9.888 9.12H14.496l-9.024-8.256V15.072l9.024-8.352h43.392l9.888 9.12a2.753 2.753 0 003.936-.1 2.757 2.757 0 00-.192-3.936l-9.888-9.12a5.219 5.219 0 00-3.744-1.44H14.496a5.219 5.219 0 00-3.744 1.44L1.728 10.94A5.583 5.583 0 000 15.068v39.744a5.583 5.583 0 001.728 4.128l9.024 8.256a5.219 5.219 0 003.744 1.444zm95.424-10.56a2.76 2.76 0 00.192-3.936 2.757 2.757 0 00-3.936-.192l-9.792 9.12h-35.52l-9.024-8.256V2.784A2.786 2.786 0 0092.448 0a2.768 2.768 0 00-2.688 2.784v52.032a5.583 5.583 0 001.728 4.124l9.024 8.256a5.219 5.219 0 003.744 1.444h35.424a5.617 5.617 0 003.84-1.44zm45.024 4.992h-24a2.786 2.786 0 00-2.784 2.784 2.786 2.786 0 002.784 2.784h53.568a2.786 2.786 0 002.784-2.784 2.786 2.786 0 00-2.784-2.784h-24V5.952h24a2.786 2.786 0 002.784-2.784 2.786 2.786 0 00-2.784-2.784h-53.568a2.786 2.786 0 00-2.784 2.784 2.786 2.786 0 002.784 2.784h24zm114.912-4.132a2.843 2.843 0 00.1-3.936 2.757 2.757 0 00-3.936-.192l-8.932 8.356h-46.944v-25.44h47.232a2.706 2.706 0 002.688-2.788 2.706 2.706 0 00-2.688-2.784h-47.232V6.816h46.944l8.928 8.256a2.757 2.757 0 003.936-.192 2.725 2.725 0 00-.1-3.84l-9.024-8.352a5.219 5.219 0 00-3.744-1.44h-49.724a2.786 2.786 0 00-2.784 2.784v61.92a2.768 2.768 0 002.784 2.688h49.728a5.219 5.219 0 003.74-1.44zM402.432.38a2.786 2.786 0 00-2.784 2.784v59.9h-5.376L345.504 1.44a2.87 2.87 0 00-2.208-1.056h-9.12a2.786 2.786 0 00-2.784 2.784v62.688a2.786 2.786 0 002.784 2.784 2.786 2.786 0 002.784-2.784v-59.9l4.992-.1 48.768 61.728a2.731 2.731 0 002.208 1.056h9.5a2.786 2.786 0 002.792-2.784V3.168a2.786 2.786 0 00-2.788-2.784zm59.136 68.26a2.786 2.786 0 002.784-2.784V5.568h33.5a2.786 2.786 0 002.784-2.784A2.786 2.786 0 00497.852 0H425.28a2.786 2.786 0 00-2.784 2.784 2.786 2.786 0 002.784 2.784h33.5v60.288a2.786 2.786 0 002.788 2.784z" fill="#fff"/></svg>