<svg xmlns="http://www.w3.org/2000/svg" width="579.914" height="68.64"><path d="M56.352 2.688a5.617 5.617 0 00-3.84-1.44H2.784A2.786 2.786 0 000 4.032v61.92a2.706 2.706 0 002.784 2.688 2.706 2.706 0 002.784-2.688V40.896h46.944a5.3 5.3 0 003.744-1.536l9.024-8.256a5.374 5.374 0 001.728-4.032v-12a5.374 5.374 0 00-1.728-4.032zm5.184 12.384v12l-9.024 8.256H5.568V6.816h46.944zm90.048 50.784l-2.784-2.784h-8.064L129.792 40.8h7.008a5.219 5.219 0 003.744-1.44l9.024-8.256a5.975 5.975 0 001.728-4.128v-11.9a5.975 5.975 0 00-1.728-4.136l-9.024-8.256a5.219 5.219 0 00-3.744-1.44H87.068a2.706 2.706 0 00-2.78 2.696v61.92a2.786 2.786 0 002.78 2.78 2.786 2.786 0 002.784-2.784V40.8h33.792l12.58 25.54a2.267 2.267 0 00.576.864 5.553 5.553 0 003.744 1.436h8.256a2.786 2.786 0 002.784-2.784zM89.856 35.328V6.72H136.8l8.928 8.352.1 11.9a.094.094 0 00-.1.1l-8.928 8.16v.1zm105.792 27.744h-24a2.786 2.786 0 00-2.78 2.784 2.786 2.786 0 002.78 2.784h53.568A2.786 2.786 0 00228 65.856a2.786 2.786 0 00-2.784-2.784h-24V5.952h24A2.786 2.786 0 00228 3.168a2.786 2.786 0 00-2.784-2.784h-53.568a2.786 2.786 0 00-2.784 2.784 2.786 2.786 0 002.784 2.784h24zm86.976 5.568a2.69 2.69 0 002.208-1.152l34.464-47.616a2.258 2.258 0 00.572-1.632V2.784A2.786 2.786 0 00317.088 0a2.786 2.786 0 00-2.784 2.784v14.592l-31.68 43.776-31.776-43.776V2.784A2.786 2.786 0 00248.068 0a2.786 2.786 0 00-2.784 2.784V18.34a2.18 2.18 0 00.576 1.536l34.46 47.612a2.737 2.737 0 002.304 1.152zM391.296 3.168a5.229 5.229 0 00-4.028-1.728h-36.292a5.435 5.435 0 00-4.128 1.728L338.592 12a5.617 5.617 0 00-1.44 3.84v50.112a2.683 2.683 0 002.688 2.688 2.706 2.706 0 002.784-2.688v-24.96h52.9v24.96a2.706 2.706 0 002.78 2.688 2.706 2.706 0 002.784-2.688V15.84a6.116 6.116 0 00-1.44-3.84zM342.72 15.84l8.16-8.928c0-.1 0-.1.1-.1h36.288a.094.094 0 01.1.1l8.16 8.928v19.584h-52.9V15.84zm-.1 20.064c.1 0 .1.1 0 .1zm52.9.1c-.1 0-.1-.1 0-.1zm-52.9 4.416c.1.192.1.192 0 .288zm52.9.288c-.1-.1-.1-.1 0-.288zm61.92 27.932a2.786 2.786 0 002.784-2.784V5.568h33.5a2.786 2.786 0 002.784-2.784A2.786 2.786 0 00493.724 0h-72.572a2.786 2.786 0 00-2.784 2.784 2.786 2.786 0 002.784 2.784h33.5v60.288a2.786 2.786 0 002.788 2.784zm121.628-9.7a2.843 2.843 0 00.1-3.936 2.757 2.757 0 00-3.936-.192l-8.928 8.352H519.36v-25.44h47.232a2.706 2.706 0 002.688-2.784 2.706 2.706 0 00-2.688-2.784H519.36V6.816h46.944l8.928 8.256a2.757 2.757 0 003.936-.192 2.725 2.725 0 00-.1-3.84l-9.024-8.352a5.219 5.219 0 00-3.744-1.44h-49.724a2.786 2.786 0 00-2.784 2.784v61.92a2.768 2.768 0 002.784 2.688h49.728a5.219 5.219 0 003.744-1.44z" fill="#fff"/></svg>