<svg xmlns="http://www.w3.org/2000/svg" width="335" height="30"><path data-name="パス 41" d="M24.72 29a2.175 2.175 0 001.56-.6l4.12-3.8a1.15 1.15 0 00.08-1.64 1.149 1.149 0 00-1.64-.08l-4.12 3.8H6.64l-3.76-3.44V6.68L6.64 3.2h18.08L28.84 7a1.147 1.147 0 001.64-.04 1.149 1.149 0 00-.08-1.64l-4.12-3.8a2.175 2.175 0 00-1.56-.6H6.64a2.175 2.175 0 00-1.56.6L1.32 4.96A2.326 2.326 0 00.6 6.68v16.56a2.326 2.326 0 00.72 1.72l3.76 3.44a2.175 2.175 0 001.56.6zM67.6 5.12c-.04-.08-.12-.12-.16-.2l-3.72-3.4a2.274 2.274 0 00-1.48-.64h-18.2a.994.994 0 00-.32.04 2.135 2.135 0 00-1.24.6l-4.12 3.8A1.29 1.29 0 0038 6.36v17.16a1.29 1.29 0 00.36 1.04l.24.2a.312.312 0 00.16.16l3.72 3.44a2.274 2.274 0 001.48.64h18.16c.12 0 .24-.04.32-.04a2.534 2.534 0 001.28-.6l4.08-3.8a1.074 1.074 0 00.36-1.04c0-.12.04-.2.04-.32V6.64l-.04-.28a1.074 1.074 0 00-.36-1.04zm-5.48 21.56H44.04l-3.72-3.48V6.68l3.72-3.48h18.12l3.72 3.44V23.2zm42.28-1.76a2.278 2.278 0 00.76-1.68V6.68a2.3 2.3 0 00-.76-1.72l-3.72-3.44a2.314 2.314 0 00-1.56-.6H76.56a1.127 1.127 0 00-1.16 1.12v25.8A1.161 1.161 0 0076.56 29h22.52a2.341 2.341 0 001.6-.6zm-26.68 1.76V3.2h21.4l3.72 3.44v16.6l-3.72 3.44h-21.4zm45.8 0h-10a1.161 1.161 0 00-1.16 1.16 1.161 1.161 0 001.16 1.16h22.32a1.161 1.161 0 001.16-1.16 1.161 1.161 0 00-1.16-1.16h-10V2.88h10A1.161 1.161 0 00137 1.72a1.161 1.161 0 00-1.16-1.16h-22.32a1.161 1.161 0 00-1.16 1.16 1.161 1.161 0 001.16 1.16h10zM173.8.56a1.161 1.161 0 00-1.16 1.16v24.96h-2.24L150.08 1a1.2 1.2 0 00-.92-.44h-3.8a1.161 1.161 0 00-1.16 1.16v26.12a1.161 1.161 0 001.16 1.16 1.161 1.161 0 001.16-1.16V2.88l2.08-.04 20.32 25.72a1.138 1.138 0 00.92.44h3.96a1.161 1.161 0 001.16-1.16V1.72A1.161 1.161 0 00173.8.56zm12.84 27.84a2.175 2.175 0 001.56.6h18.08a2.358 2.358 0 001.56-.6l4.12-3.8a1.241 1.241 0 00.36-.88v-8.76a1.153 1.153 0 00-1.12-1.16h-13.96a1.161 1.161 0 00-1.16 1.16 1.161 1.161 0 001.16 1.16h12.8v7.12l-3.76 3.44H188.2l-3.76-3.44V6.68l3.76-3.48h18.08L210.4 7a1.147 1.147 0 001.64-.04 1.149 1.149 0 00-.08-1.64l-4.12-3.8a2.175 2.175 0 00-1.56-.6H188.2a2.175 2.175 0 00-1.56.6l-3.76 3.44a2.326 2.326 0 00-.72 1.72v16.56a2.326 2.326 0 00.72 1.72z" fill="#fff"/><g data-name="長方形 97" fill="none" stroke="rgba(0,0,0,0)"><path d="M0 0h335v30H0z" stroke="none"/><path d="M.5.5h334v29H.5z"/></g></svg>