<svg xmlns="http://www.w3.org/2000/svg" width="335" height="30"><path data-name="パス 40" d="M29.6 24.92a2.278 2.278 0 00.76-1.68V6.68a2.3 2.3 0 00-.76-1.72l-3.72-3.44a2.314 2.314 0 00-1.56-.6H1.76A1.127 1.127 0 00.6 2.04v25.8A1.161 1.161 0 001.76 29h22.52a2.341 2.341 0 001.6-.6zM2.92 26.68V3.2h21.4l3.72 3.44v16.6l-3.72 3.44H2.92zm61.84-1.72a1.185 1.185 0 00.04-1.64 1.149 1.149 0 00-1.64-.08l-3.72 3.48H39.88v-10.6h19.68a1.127 1.127 0 001.12-1.16 1.127 1.127 0 00-1.12-1.16H39.88V3.24h19.56l3.72 3.44a1.149 1.149 0 001.64-.08 1.135 1.135 0 00-.04-1.6L61 1.52a2.175 2.175 0 00-1.56-.6H38.72a1.161 1.161 0 00-1.16 1.16v25.8A1.153 1.153 0 0038.72 29h20.72a2.175 2.175 0 001.56-.6zM98.04 1.04a2.378 2.378 0 00-1.6-.64H78.4a2.378 2.378 0 00-1.6.64l-3.72 3.44a2.3 2.3 0 00-.76 1.72v3.28a2.3 2.3 0 00.76 1.72l3.72 3.44a2.358 2.358 0 001.56.64h17.76l3.76 3.44v4.52l-3.76 3.44H78.36l-4.08-3.8a1.149 1.149 0 00-1.64.08 1.185 1.185 0 00.04 1.64l4.12 3.8a2.527 2.527 0 001.56.6h17.76a2.341 2.341 0 001.6-.6l3.72-3.48a2.3 2.3 0 00.76-1.72v-4.44a2.365 2.365 0 00-.76-1.72l-3.72-3.48a2.341 2.341 0 00-1.6-.6H78.36l-3.72-3.44V6.2l3.72-3.48h18.12l4.08 3.8a1.149 1.149 0 001.64-.08 1.135 1.135 0 00-.04-1.6zm22.04 25.64h-10a1.161 1.161 0 00-1.16 1.16 1.161 1.161 0 001.16 1.16h22.32a1.161 1.161 0 001.16-1.16 1.161 1.161 0 00-1.16-1.16h-10V2.88h10a1.161 1.161 0 001.16-1.16A1.161 1.161 0 00132.4.56h-22.32a1.161 1.161 0 00-1.16 1.16 1.161 1.161 0 001.16 1.16h10zm25.16 1.72a2.175 2.175 0 001.56.6h18.08a2.358 2.358 0 001.56-.6l4.12-3.8a1.241 1.241 0 00.36-.88v-8.76a1.153 1.153 0 00-1.12-1.16h-13.96a1.161 1.161 0 00-1.16 1.16 1.161 1.161 0 001.16 1.16h12.8v7.12l-3.76 3.44H146.8l-3.76-3.44V6.68l3.76-3.48h18.08L169 7a1.147 1.147 0 001.64-.04 1.149 1.149 0 00-.08-1.64l-4.12-3.8a2.175 2.175 0 00-1.56-.6H146.8a2.175 2.175 0 00-1.56.6l-3.76 3.44a2.326 2.326 0 00-.72 1.72v16.56a2.326 2.326 0 00.72 1.72zM207.76.56a1.161 1.161 0 00-1.16 1.16v24.96h-2.24L184.04 1a1.2 1.2 0 00-.92-.44h-3.8a1.161 1.161 0 00-1.16 1.16v26.12a1.161 1.161 0 001.16 1.16 1.161 1.161 0 001.16-1.16V2.88l2.08-.04 20.32 25.72a1.138 1.138 0 00.92.44h3.96a1.161 1.161 0 001.16-1.16V1.72a1.161 1.161 0 00-1.16-1.16z" fill="#fff"/><g data-name="長方形 95" fill="none" stroke="rgba(0,0,0,0)"><path d="M0 0h335v30H0z" stroke="none"/><path d="M.5.5h334v29H.5z"/></g></svg>