<svg xmlns="http://www.w3.org/2000/svg" width="420.48" height="68.64"><path d="M54.144 3.168a5.229 5.229 0 00-4.032-1.728H13.824a5.435 5.435 0 00-4.128 1.728L1.44 12A5.617 5.617 0 000 15.84v50.112a2.683 2.683 0 002.688 2.688 2.706 2.706 0 002.784-2.688v-24.96h52.9v24.96a2.706 2.706 0 002.78 2.688 2.706 2.706 0 002.784-2.688V15.84a6.116 6.116 0 00-1.44-3.84zM5.568 15.84l8.16-8.928c0-.1 0-.1.1-.1h36.284a.094.094 0 01.1.1l8.16 8.928v19.584h-52.9V15.84zm-.1 20.064c.1 0 .1.1 0 .1zm52.9.1c-.1 0-.1-.1 0-.1zm-52.9 4.416c.1.192.1.192 0 .288zm52.9.288c-.1-.1-.1-.1 0-.288zm88.128 18.14a5.374 5.374 0 001.728-4.032v-12a5.374 5.374 0 00-1.728-4.032l-7.776-7.2 6.912-6.432a5.675 5.675 0 001.824-4.128v-5.952a5.518 5.518 0 00-1.824-4.128l-8.928-8.256a5.553 5.553 0 00-3.744-1.44H84a2.706 2.706 0 00-2.784 2.692v61.92A2.786 2.786 0 0084 68.64h49.728a5.617 5.617 0 003.84-1.44zM132.96 6.72l8.928 8.256v6.048l-8.544 7.968h-46.56V6.72zM86.784 63.072V34.848h47.232l8.736 7.968v12l-9.024 8.256zm149.76-51.744c-.1-.192-.288-.288-.384-.48l-8.928-8.16a5.457 5.457 0 00-3.552-1.536H180a2.386 2.386 0 00-.768.1 5.125 5.125 0 00-2.976 1.44l-9.888 9.12a3.1 3.1 0 00-.864 2.5v41.184a3.1 3.1 0 00.864 2.5l.576.48a.75.75 0 00.384.384l8.932 8.244a5.457 5.457 0 003.548 1.536h43.584c.288 0 .576-.1.768-.1a6.08 6.08 0 003.072-1.44l9.792-9.12a2.576 2.576 0 00.864-2.5c0-.288.1-.48.1-.768V14.976l-.1-.672a2.576 2.576 0 00-.864-2.5zm-13.152 51.744H180l-8.928-8.352V15.072L180 6.72h43.488l8.928 8.256V54.72zM322.368 0a2.786 2.786 0 00-2.784 2.784V54.14l-8.256 8.928h-42.144l-8.352-8.928V2.78a2.786 2.786 0 00-2.784-2.784 2.786 2.786 0 00-2.784 2.784v51.36a5.658 5.658 0 001.536 3.744l8.26 8.932a5.675 5.675 0 004.124 1.824h42.048a5.518 5.518 0 004.128-1.824l8.256-8.928a5.553 5.553 0 001.444-3.748V2.78A2.706 2.706 0 00322.368 0zm59.04 68.64a2.786 2.786 0 002.784-2.784V5.568h33.5a2.786 2.786 0 002.784-2.784A2.786 2.786 0 00417.692 0H345.12a2.786 2.786 0 00-2.784 2.784 2.786 2.786 0 002.784 2.784h33.5v60.288a2.786 2.786 0 002.788 2.784z" fill="#fff"/></svg>