<svg xmlns="http://www.w3.org/2000/svg" width="21" height="21"><path d="M6.68 6.68a5.2 5.2 0 013.82-1.57 5.2 5.2 0 013.82 1.57 5.2 5.2 0 011.571 3.82 5.2 5.2 0 01-1.57 3.82 5.2 5.2 0 01-3.82 1.57 5.2 5.2 0 01-3.82-1.57 5.2 5.2 0 01-1.572-3.82A5.2 5.2 0 016.68 6.68zm1.336 6.3a3.386 3.386 0 002.484 1.031 3.386 3.386 0 002.484-1.031 3.386 3.386 0 001.032-2.48 3.386 3.386 0 00-1.031-2.484 3.386 3.386 0 00-2.484-1.031 3.386 3.386 0 00-2.484 1.031A3.386 3.386 0 006.984 10.5a3.386 3.386 0 001.032 2.484zm8.977-8.977a1.178 1.178 0 01.352.867 1.258 1.258 0 01-.352.891 1.142 1.142 0 01-.867.375 1.217 1.217 0 01-.891-.375 1.217 1.217 0 01-.375-.891 1.142 1.142 0 01.375-.867 1.258 1.258 0 01.891-.352 1.178 1.178 0 01.866.357zm3.96 2.185Q21 7.454 21 10.501t-.047 4.312a6.465 6.465 0 01-1.711 4.43 6.3 6.3 0 01-4.43 1.664q-1.266.094-4.312.094t-4.313-.095a6.433 6.433 0 01-4.406-1.687 4.524 4.524 0 01-.984-1.313 6.632 6.632 0 01-.544-1.453 7.278 7.278 0 01-.159-1.64Q0 13.547 0 10.5t.094-4.359a6.37 6.37 0 011.688-4.359A6.316 6.316 0 016.188.048Q7.453 0 10.5 0t4.313.047a6.465 6.465 0 014.43 1.711 6.465 6.465 0 011.71 4.43zm-2.25 10.5a5.084 5.084 0 00.234-.961q.094-.586.141-1.406t.047-1.336V8.016q0-.516-.047-1.336t-.141-1.406a5.084 5.084 0 00-.234-.961A3.383 3.383 0 0016.687 2.3a5.084 5.084 0 00-.961-.234q-.586-.094-1.406-.141t-1.312-.047H8.016q-.516 0-1.336.047t-1.406.141a5.084 5.084 0 00-.961.234 3.383 3.383 0 00-2.016 2.016 5.084 5.084 0 00-.234.961q-.094.586-.141 1.406t-.047 1.313v4.5q0 .445.023 1.148t.07 1.2q.047.492.141 1.008t.188.844A3.554 3.554 0 004.312 18.7a5.084 5.084 0 00.961.234q.586.094 1.406.141t1.313.047h4.992q.516 0 1.336-.047t1.406-.141a5.084 5.084 0 00.961-.234 3.554 3.554 0 002.016-2.012z" fill="#fff"/></svg>