<svg xmlns="http://www.w3.org/2000/svg" width="268" height="140"><path data-name="長方形 33" fill="none" d="M0 0h268v140H0z"/><path d="M204 46.667H64V70h140zm-128.333 17.5L80.7 52.5h7.438L83.1 64.167zm12.052 0L92.758 52.5h7.442l-5.038 11.667zm12.057 0L104.81 52.5h7.438l-5.04 11.667zm12.052 0l5.034-11.667h7.432l-5.035 11.667zm19.489 0h-7.432l5.034-11.667h7.438l-5.04 11.667zm55.183 0a5.833 5.833 0 115.833-5.833 5.835 5.835 0 01-5.833 5.833zm17.5 17.5H64V105h140zm-128.333 17.5L80.7 87.5h7.438L83.1 99.167zm12.052 0L92.752 87.5h7.438l-5.034 11.667zm12.057 0L104.81 87.5h7.438l-5.04 11.667zm12.052 0l5.034-11.667h7.432l-5.035 11.667zm19.489 0h-7.432l5.034-11.667h7.438l-5.04 11.667zm55.183 0a5.833 5.833 0 115.833-5.833 5.835 5.835 0 01-5.833 5.833zm17.5 17.5H64V140h140zm-128.333 17.5L80.7 122.5h7.438L83.1 134.167zm12.052 0l5.033-11.667h7.438l-5.034 11.667zm12.057 0l5.034-11.667h7.438l-5.04 11.667zm12.052 0l5.034-11.667h7.432l-5.034 11.667zm19.489 0h-7.432l5.034-11.667h7.438l-5.04 11.667zm55.183 0a5.833 5.833 0 115.833-5.833 5.835 5.835 0 01-5.833 5.833zM192.333 35H75.667L99 0h70z" fill="#fff"/></svg>