<svg xmlns="http://www.w3.org/2000/svg" width="24" height="19.5"><path d="M21.516 4.875a2.793 2.793 0 01.047.609 13.8 13.8 0 01-.937 4.945 15.591 15.591 0 01-2.648 4.5 12.632 12.632 0 01-4.43 3.3 14.042 14.042 0 01-6 1.266A13.656 13.656 0 010 17.297q.516.047 1.172.047a9.758 9.758 0 006.141-2.11 4.579 4.579 0 01-2.883-.961 4.9 4.9 0 01-1.711-2.414q.469.047.891.047a6.248 6.248 0 001.313-.141 4.782 4.782 0 01-2.016-.937A5.136 5.136 0 011.5 9.117a4.716 4.716 0 01-.516-2.18v-.094a4.634 4.634 0 002.2.656 4.73 4.73 0 01-2.2-4.125 4.752 4.752 0 01.7-2.484 13.572 13.572 0 004.48 3.66 13.625 13.625 0 005.648 1.5 6.832 6.832 0 01-.094-1.125 4.774 4.774 0 011.43-3.469A4.658 4.658 0 0116.593.003 4.751 4.751 0 0120.2 1.55 10.014 10.014 0 0023.341.378a4.885 4.885 0 01-2.156 2.719 10.573 10.573 0 002.813-.8 10.819 10.819 0 01-2.482 2.578z" fill="#fff"/></svg>