<svg xmlns="http://www.w3.org/2000/svg" width="268" height="140"><path data-name="長方形 33" fill="none" d="M0 0h268v140H0z"/><path d="M136.714 76.02c6.755-.362 16.648-2.263 24.384-6.58a189.253 189.253 0 0012.973-23.334 47.943 47.943 0 01-15.96-1.5c6.23-1.068 14.047-3.3 19.962-7.093 7.321-10.407 12.746-27.178 14.6-37.5a79.557 79.557 0 00-43.085 12.04C146 16.134 142.9 25.987 142.162 31.2c-1.616-3.768-2.794-9.8-1.412-14.828a131.651 131.651 0 00-24.365 16.685c-4.2 8.913-4.865 19.192-4.485 24.943-2.281-3.226-5.338-9.508-4.912-16.386C91.884 56.221 81.46 75.355 91.348 96c10.961-11.318 23.561-22.063 31.232-27.056C104.869 89.209 88.361 115.885 76 140l14.607-4.585c6.323-11.544 12.011-21.49 17.109-28.613 18.836 2.468 35.56-12.647 46.83-27.971-4.492 1.108-13.1-.338-17.833-2.812z" fill="#fff"/></svg>