<svg xmlns="http://www.w3.org/2000/svg" width="24" height="24.019"><path d="M8.063 10.641a6.508 6.508 0 014.312 2.859 6.484 6.484 0 01.984 5.2 6.628 6.628 0 01-1.828 3.328A6.628 6.628 0 018.2 23.859a6.539 6.539 0 01-5.716-1.382A6.46 6.46 0 010 17.25V5.625a1.085 1.085 0 01.328-.8 1.085 1.085 0 01.8-.328h2.25a1.085 1.085 0 01.8.328 1.085 1.085 0 01.328.8V17.25a2.17 2.17 0 00.656 1.594 2.17 2.17 0 001.588.656 2.17 2.17 0 001.594-.656A2.17 2.17 0 009 17.25a2.169 2.169 0 00-.187-.891 2.472 2.472 0 00-.516-.75 1.9 1.9 0 00-.75-.469 1.039 1.039 0 01-.8-1.031v-2.343a1.093 1.093 0 01.4-.891 1.072 1.072 0 01.916-.234zM9.8 0a14.459 14.459 0 019.82 4.383A14.459 14.459 0 0124 14.2a.812.812 0 01-.211.563.693.693 0 01-.539.237h-1.5a.73.73 0 01-.539-.211A.675.675 0 0121 14.3a11.773 11.773 0 00-3.516-7.8A11.448 11.448 0 009.7 3a.889.889 0 01-.492-.258A.675.675 0 019 2.25V.75a.693.693 0 01.234-.539A.812.812 0 019.8 0zm0 4.5a10.166 10.166 0 016.656 3.047A10.166 10.166 0 0119.5 14.2a.812.812 0 01-.211.563.693.693 0 01-.539.237h-1.5a.781.781 0 01-.539-.187.654.654 0 01-.211-.513 7.2 7.2 0 00-2.18-4.641A7.3 7.3 0 009.7 7.5a.594.594 0 01-.352-.117.882.882 0 01-.258-.281A.7.7 0 019 6.75v-1.5a.767.767 0 01.234-.562A.63.63 0 019.8 4.5z" fill="#fff"/></svg>