<svg xmlns="http://www.w3.org/2000/svg" width="1168" height="302"><g data-name="グループ 12"><g data-name="多角形 4" fill="none" stroke-dasharray="8"><path d="M248.674 0a20 20 0 0117.342 10.037l75.26 131a20 20 0 010 19.926l-75.26 131A20 20 0 01248.674 302H98.326a20 20 0 01-17.342-10.037l-75.26-131a20 20 0 010-19.926l75.26-131A20 20 0 0198.326 0z"/><path d="M98.326 0h8v2h-8V0zm16 0h8v2h-8V0zm16 0h8v2h-8V0zm16 0h8v2h-8V0zm16 0h8v2h-8V0zm16 0h8v2h-8V0zm16 0h8v2h-8V0zm16 0h8v2h-8V0zm16 0h8v2h-8V0zm16 0h6.534l.016.001h.064l.014.001h.025a.874.874 0 01.031 0h.007l.017.001h.023a1.326 1.326 0 01.024.001h.026l.017.001h.036l.01.001h.025l.014.001h.013l.018.001h.024l.01.001h.025l.014.001h.009l.022.001h.01l.014.001h.023l.011.001h.014l.01.001.022.001h.024l.01.001h.013l.01.001a2.36 2.36 0 00.024.001l.023.001a.35.35 0 00.005 0l.019.001h.008l.016.001h.008l.018.002h.005l.05.002h.003l.02.002h.028l.004.001.076.004c.172.01.342.022.513.036l-.165 1.993c-.491-.04-.99-.061-1.485-.061h-6.348V0zm15.63 2.284a20.001 20.001 0 015.861 4.65 14.771 14.771 0 01.042.049l.04.046.002.002.037.045.004.004.018.022.002.002.016.02a.656.656 0 00.005.005l.017.02.004.005.014.017.005.006.017.02.006.007.012.014.006.008.016.019.006.008.011.013.007.008.015.018.003.004-1.545 1.27a17.902 17.902 0 00-5.55-4.51l.928-1.772zm10.384 11.798l1.33 2.316.005.008.027.047.008.014.002.004.02.033.004.007.019.034.002.004.01.015.014.025 2.544 4.43-1.734.996-3.985-6.937 1.734-.996zm7.97 13.873l.015.026v.001l.002.002.003.006.001.001.043.076.01.017.004.007 3.908 6.8-1.735.997-3.985-6.937 1.734-.996zm7.97 13.874l3.986 6.936-1.734.997-3.985-6.937 1.734-.996zm7.971 13.873l3.985 6.937-1.734.996-3.985-6.937 1.734-.996zm7.97 13.874l3.986 6.936-1.735.997-3.985-6.937 1.734-.996zm7.97 13.873l3.986 6.937-1.734.996-3.985-6.937 1.734-.996zm7.971 13.874l3.985 6.936-1.734.997-3.985-6.937 1.734-.996zm7.97 13.873l3.986 6.937-1.735.996-3.985-6.937 1.734-.996zm7.97 13.874l1.805 3.14.004.006.066.116.003.005.018.031.02.034.003.006.01.018.001.002 2.056 3.578-1.734.997-3.985-6.937 1.734-.996zm7.971 13.873l1.114 1.938.001.002.004.008.008.013.007.012v.001l.007.012.001.002.002.004.002.002.01.017.003.006.001.002.003.005.027.046.013.024.011.019.002.003.009.016a.28.28 0 00.002.004l.009.015.002.004.008.015.003.005.008.013.003.006.008.013.003.006.008.014.002.004.008.014.003.006.008.014.003.004.008.015.002.004.01.017v.001l.01.018.001.002c.323.58.615 1.17.876 1.772l.008.02.009.02v.001c.03.067.058.133.086.2l.008.02.008.02.001.002.008.018v.002l.008.017v.004l.008.016.001.004a3.32 3.32 0 00.009.02l.006.016.002.004a2.881 2.881 0 00.008.02l.007.017v.002l.008.018.001.002a3.793 3.793 0 01.042.106l.006.014.003.007.005.012c0 .003.002.005.003.008l.005.012c0 .003.002.005.003.008l.004.012.003.007.005.013.003.007.005.013.003.007.005.012.003.009.004.01.004.01.004.01.003.01.005.01.003.009.004.01.004.01.003.01.004.01.003.008.02.049.004.014.003.007.004.011.004.009.004.01.003.01a1.45 1.45 0 01.015.04l.004.01.003.009.004.01.004.01.004.01.003.009.004.011a.925.925 0 01.01.028l.005.012a.907.907 0 01.003.008l.004.011.002.007.005.013.002.005.005.015.028.076v.001l.006.015a2.706 2.706 0 01.007.02 2.482 2.482 0 00.007.019c0 .002 0 .004.002.006l.004.013.003.007a1.448 1.448 0 01.007.02l.004.012.003.007.004.013.003.007.004.013.002.006.005.013.002.007a2.031 2.031 0 01.007.02l.005.013.002.006.005.014.001.004.005.015.001.003.024.07.002.006.005.013.002.006.004.013.003.007.004.013.002.007.004.012.003.009.004.01.003.01a1.83 1.83 0 00.01.03l.003.009.004.012.003.008a.629.629 0 00.01.032l.002.007.005.012.002.008.004.012.002.007a18.368 18.368 0 01.024.072l.004.014.002.006.004.012.002.008.004.012.003.008.003.01.003.01.003.01.004.01c0 .004.002.007.003.01 0 .004.002.007.003.011l.003.009.004.011.002.009.004.011.003.01.003.01.003.01.004.011.002.008.004.014.002.006.005.015.001.005.006.02a14.44 14.44 0 01.02.063l.006.02v.001l.006.02v.001l.006.019v.001l.006.019v.003l.006.018v.002a.06.06 0 01.006.019v.001a.076.076 0 01.006.02l.001.001.005.019.001.002c.081.276.156.554.225.833l-1.942.48a17.992 17.992 0 00-1.867-4.65l-1.203-2.094 1.734-.996zm1.638 14.886l1.975.314a19.974 19.974 0 01-2.107 6.274l-.03.055a36.789 36.789 0 01-.03.055l-.009.017-.001.003a15.882 15.882 0 01-.039.07l-.002.005-.017.03-.001.003-.008.014-.005.008a4.083 4.083 0 01-.007.014l-.002.004-.015.027-.005.008-.007.013-.005.01-.011.018-.007.012-.006.011-.006.012-.006.01-.01.018-.005.01-.009.014-.005.01-.008.014a.719.719 0 00-.017.029l-.004.007-.009.016a.643.643 0 00-.004.007l-.013.022-.362.63-1.734-.996.362-.63a17.928 17.928 0 002.169-6.138zm-6.516 13.705l1.734.996-3.985 6.937-1.734-.997 3.985-6.936zm-7.97 13.873l1.734.996-3.701 6.442-.004.007v.001l-.005.007-.003.006-.003.005-.005.008-.01.018-.005.008v.002l-.01.016-.004.008-.01.015v.003l-.006.009-.008.014-.002.003v.002a.02.02 0 00-.006.01l-.01.017-.002.003-.01.016v.002l-.004.007-.014.023-.004.007a1.7 1.7 0 00-.007.012l-.002.004-.017.03-.002.003-.033.057v.002l-.054.092-.044.078-1.735-.996 3.985-6.937zm-7.97 13.874l1.733.996-3.985 6.937-1.734-.997 3.985-6.936zm-7.971 13.873l1.734.996-3.985 6.937-1.734-.996 3.985-6.937zm-7.97 13.873l1.734.997h-.001v.001l-.001.002-.001.001v.001l-.002.002-.002.004-.002.004-.001.002-.002.004a.133.133 0 00-.002.003l-.001.002-.003.004v.002l-.008.012-.004.007v.001a.317.317 0 00-.002.004l-.002.003-.001.001-.004.007-.002.003v.002l-.008.012-.007.013-.001.001-.041.072-.002.002-.033.058v.001l-.038.065-.002.004-3.813 6.637-1.734-.997 3.985-6.937zm-7.971 13.874l1.734.996-3.985 6.937-1.734-.996 3.985-6.937zm-7.97 13.873l1.734.997-1.71 2.977-.015.025a3.882 3.882 0 00-.01.017l-2.25 3.917-1.734-.996 3.985-6.937zm-7.97 13.874l1.734.996-3.986 6.937-1.734-.996 3.985-6.937zm-7.971 13.873l1.734.997-3.985 6.936-1.734-.996 3.985-6.937zm-7.94 13.7l1.646 1.135a7.07 7.07 0 01-.007.01l-.007.01-.008.013-.007.01a4.043 4.043 0 01-.02.03l-.009.01-.008.013-.012.017-.008.011-.008.011-.012.017a2.733 2.733 0 01-.008.011l-.009.013-.007.01-.013.019a1.087 1.087 0 01-.016.023l-.007.01-.014.019a1.37 1.37 0 00-.022.03l-.015.021-.006.008-.01.016a.978.978 0 01-.006.007l-.015.02-.005.008-.012.017a1.047 1.047 0 01-.005.006l-.014.02-.006.008-.013.018a.423.423 0 01-.003.004l-.016.021-.005.007-.015.02-.002.004-.015.02-.005.007-.016.022a.127.127 0 00-.002.002l-.015.02-.004.006-.017.022-.002.004a10.678 10.678 0 01-.035.047l-.003.003-.015.02-.003.004-.017.023-.003.003-.015.02-.003.005-.017.022-.003.004-.016.02c0 .002-.001.002-.002.003l-.017.023-.003.004-.017.022v.001a6.726 6.726 0 01-.019.023l-.002.004-.036.046-.003.003-.036.047-.002.003-.037.047-.002.003a19.027 19.027 0 01-.057.072l-.02.024v.002l-.02.023v.002l-.019.023a6.954 6.954 0 01-.02.024l-.001.002-.018.023h-.001l-.019.024-.002.003-.018.022-.02.024-.002.002-.037.047-.002.002-.038.046-.002.002a27.689 27.689 0 01-.119.143l-.001.002-.04.047-.02.024-.02.024h-.001l-.02.024v.001l-.04.046-.002.002a18.8 18.8 0 01-.04.046v.001l-.04.046-.002.002-.04.046-.041.047a20.026 20.026 0 01-.043.048l-.02.023-.02.023h-.001l-.02.023-.002.002-.02.022-.02.023h-.001l-.041.046-.001.002-.041.044-.002.002-.04.044-.002.003-.04.044c-.001 0-.002 0-.002.002a18.074 18.074 0 01-.126.134l-.002.003-.02.021-.002.002-.02.02-.001.002-.02.022-.002.001-.02.021v.001a.145.145 0 00-.021.022l-.002.002-.02.02-.001.001-.02.022c-.002 0-.002 0-.003.002a18.02 18.02 0 01-.04.042l-.003.003-.041.042-.003.003-.04.042c-.002 0-.003.002-.003.002l-.021.021-.02.021-.003.003a6.391 6.391 0 01-.02.02l-.002.002-.02.02-.002.002-.02.02-.002.002-.02.02-.002.002-.02.02-.002.003-.02.02h-.002l-.02.021-.003.003-.02.02-.021.02-.004.005-.04.04c-.002 0-.003.002-.004.003l-.04.04c-.002 0-.004.003-.005.004l-.04.039a.589.589 0 01-.027.026 9.241 9.241 0 01-.018.017l-.005.005-.02.018c0 .002-.001.002-.002.003a9.318 9.318 0 01-.022.021l-.02.02-.004.003-.017.016-.005.004-.019.019-.004.004-.017.016-.004.004-.02.018a.387.387 0 00-.021.02l-.005.005-.02.018a.748.748 0 01-.004.005l-.017.015-.004.004-.02.018-.005.005-.017.015-.004.005a8.925 8.925 0 01-.018.017l-.007.006-.017.016c-.002 0-.004.003-.005.004l-.017.015-.007.007-.016.015-.008.007-.015.013-.007.006-.018.017a.919.919 0 00-.006.006l-.015.013-.006.006a4.767 4.767 0 01-.026.023l-.013.012a1.532 1.532 0 01-.007.007l-.019.016-.007.007a2.4 2.4 0 00-.013.011l-.008.007-.017.016-.008.007-.014.012-.007.006-.018.016-.008.007-.013.012-.007.006-.018.016-.008.007-.014.013a.897.897 0 01-.008.007l-.017.014-.008.007-.013.012-.011.01-.013.011-.01.008-.012.011-.014.012-.01.01a7.094 7.094 0 01-.026.022l-.01.008-.011.01-.01.008-.015.013a3.412 3.412 0 01-.012.01l-.01.009c-.004.002-.007.006-.01.009l-.017.014a3 3 0 00-.01.008l-.01.009-.01.008-.017.014-.01.01a2.355 2.355 0 01-.01.007l-.013.01-.014.013-.01.01-.01.007-.016.014-.011.009-.011.009-.01.008a4.4 4.4 0 01-.038.032l-.008.006-.02.016-.008.007-.011.01a2.107 2.107 0 00-.01.007l-.017.015-.01.007a3.007 3.007 0 00-.011.01l-.009.007-.02.016-.007.006-.012.01-.006.005-.023.018a.867.867 0 01-.048.039l-.006.005a14.45 14.45 0 01-.048.038l-.042.034-.005.004-.043.034-.005.004-.027.022h-.002l-.015.013-.003.002-.028.022-.002.002-.015.011a.334.334 0 01-.003.003l-.028.021-.003.002-.045.035-.003.003-.045.034-.004.003-.045.035-.003.002-.046.035-.002.002-.047.035-.002.001c-.417.315-.847.612-1.287.893l-1.074-1.688a17.894 17.894 0 005.15-4.962zm-11.826 7.529l.333 1.972c-.34.057-.682.106-1.026.146h-.003l-.022.003h-.003a24.9 24.9 0 01-.05.006h-.002l-.022.002h-.006c-.006.002-.012.002-.019.003h-.005l-.022.003h-.002l-.024.003h-.008l-.015.002-.01.001-.015.002h-.008l-.02.003h-.005l-.022.002-.009.001-.014.002h-.01l-.014.002-.01.001-.016.002-.016.001-.013.002h-.013l-.01.002-.014.001h-.009l-.014.002h-.006l-.03.003-.007.001-.015.001-.008.001-.015.001-.007.001a30.87 30.87 0 01-.054.005h-.004l-.017.002h-.005l-.017.001h-.005l-.056.005h-.003l-.017.002h-.006l-.017.002h-.002l-.06.005h-.002l-.018.001h-.003l-.02.002-.06.004h-.002l-.019.002h-.003l-.081.005-.021.002-.083.005a4.058 4.058 0 00-.105.006h-.02a18.12 18.12 0 01-.084.005h-.02v.001a23.843 23.843 0 01-.085.004h-.019l-.082.004h-.021l-.004.001-.059.002h-.025l-.017.001h-.003l-.057.002h-.021l-.006.001h-.021l-.056.002h-.005a2.955 2.955 0 01-.023 0l-.016.001h-.006a30.236 30.236 0 01-.06.001h-.025l-.013.001h-.045l-.013.001h-.057l-.022.001h-.153l-.015.001h-4.693v-2h4.66c1.001 0 2.008-.084 2.992-.25zm-23.652.25h8v2h-8v-2zm-16 0h8v2h-8v-2zm-16 0h8v2h-8v-2zm-16 0h8v2h-8v-2zm-16 0h8v2h-8v-2zm-16 0h8v2h-8v-2zm-16 0h8v2h-8v-2zm-16 0h8v2h-8v-2zm-16 0h8v2h-8v-2zm-13.498-4.415a17.917 17.917 0 006.223 3.526l-.621 1.902a20.017 20.017 0 01-6.914-3.919l1.312-1.51zm-8.443-12.704l3.985 6.937-1.734.996-1.286-2.238-.02-.033-2.68-4.666 1.735-.996zm-7.97-13.874l3.984 6.937-1.734.996-.767-1.335-.003-.005-.073-.128-.004-.006-.034-.06-.006-.01-.01-.017-.012-.02v-.002l-.029-.049-.004-.007-.003-.006a7.34 7.34 0 00-.008-.014l-.003-.005-.005-.01-.007-.011-.006-.01v-.002c-.004-.004-.006-.009-.009-.014l-.005-.008-.006-.01-.037-.065-.001-.003-.008-.012-.002-.005-2.943-5.122 1.734-.997zm-7.971-13.873l3.985 6.937-1.734.996-3.872-6.739-.006-.012-.002-.002-.002-.003-.007-.013-.002-.004-.01-.017-.002-.003-.013-.023-.001-.002-.012-.02-.009-.016-.006-.01a.186.186 0 01-.002-.003v-.002l-.028-.048-.01-.018-.001-.001 1.734-.997zm-7.97-13.874l3.985 6.937-1.735.996-3.985-6.936 1.734-.997zm-7.97-13.873l3.984 6.937-1.734.996-3.985-6.937 1.734-.996zm-7.971-13.874l3.985 6.937-1.734.997-3.985-6.937 1.734-.997zm-7.97-13.873l3.985 6.937-1.735.996-3.985-6.937 1.734-.996zm-7.97-13.873l3.984 6.936-1.734.997-3.985-6.937 1.734-.996zm-7.971-13.874l3.985 6.937-1.734.996-.95-1.652-.02-.036-.001-.002-.006-.01-.006-.01-.005-.008-.007-.013-.004-.007a.414.414 0 01-.002-.004l-.017-.03-.029-.05-.001-.002-.04-.068-.003-.007-2.894-5.038 1.734-.996zm-7.76-13.732c.267.616.572 1.223.907 1.806l2.866 4.99-1.734.996-2.866-4.99-.01-.017c0-.002-.002-.003-.003-.005l-.007-.012-.003-.006a1.963 1.963 0 00-.01-.017l-.006-.01-.004-.008-.007-.012-.002-.004-.01-.017c0-.002-.002-.003-.003-.005l-.006-.012-.004-.006a5.76 5.76 0 01-.01-.018l-.005-.01-.005-.007a1.815 1.815 0 01-.005-.01l-.004-.007-.008-.014-.001-.003-.01-.016a.634.634 0 01-.003-.006l-.006-.011-.004-.007-.006-.01-.004-.007-.005-.01-.004-.007-.006-.01-.004-.008-.009-.016v-.002l-.009-.015-.003-.006-.006-.011-.004-.007-.006-.01-.003-.007-.007-.012a.38.38 0 01-.003-.005l-.008-.016-.01-.018-.002-.003-.008-.014-.003-.006-.006-.012-.003-.005a8.874 8.874 0 00-.01-.017l-.008-.016v-.001l-.01-.018v-.001l-.01-.017-.002-.004a2.6 2.6 0 01-.006-.012l-.003-.006-.007-.012a.556.556 0 00-.003-.006l-.006-.011-.003-.006-.008-.015-.001-.002-.01-.018v-.001l-.009-.016a.282.282 0 00-.009-.017l-.003-.006-.006-.012-.002-.005-.008-.015-.001-.002-.019-.036-.001-.002-.008-.015-.002-.004-.007-.014-.003-.004-.007-.014-.002-.004a19.54 19.54 0 01-.029-.056l-.007-.015-.002-.003a2.909 2.909 0 00-.007-.014l-.002-.005a3.433 3.433 0 00-.008-.014l-.001-.003a22.05 22.05 0 01-.027-.053l-.002-.004-.007-.014-.002-.004-.007-.014-.002-.003-.008-.017v-.001l-.01-.018v-.002l-.009-.016-.002-.004-.006-.013a.573.573 0 01-.003-.006l-.006-.011-.003-.007-.005-.01-.004-.008-.006-.013-.002-.003-.008-.017-.005-.009-.004-.008-.004-.01a.653.653 0 00-.004-.007l-.005-.01-.003-.007a1.56 1.56 0 01-.005-.01l-.003-.006-.005-.011-.002-.003-.012-.025-.002-.004a1.864 1.864 0 01-.006-.013l-.002-.004-.006-.012a.278.278 0 00-.002-.004l-.006-.013-.001-.002a19.96 19.96 0 01-.326-.714l1.834-.796zm-1.978-14.78l1.85.762a17.898 17.898 0 00-1.357 7.022l-2 .019c-.01-1.16.08-2.32.27-3.467l.001-.003.01-.06.003-.015v-.001l.007-.042v-.005l.003-.011v-.006l.003-.011v-.005l.004-.02a.561.561 0 00.003-.017l.002-.008.001-.01.002-.009.001-.008.003-.017.002-.008.002-.01.001-.008.002-.01.001-.008.003-.014.001-.006a2.238 2.238 0 00.004-.022l.002-.01.001-.007.003-.016v-.002l.004-.018a.2.2 0 00.003-.019l.001-.005.003-.016v-.002l.008-.038v-.002l.004-.018v-.001l.008-.04.003-.02.012-.059a19.964 19.964 0 011.126-3.73zm7.82-13.952l1.734.996-3.985 6.937-1.735-.996 3.986-6.937zm7.97-13.874l1.734.997-3.985 6.937-1.734-.997 3.985-6.936zm7.97-13.873l1.735.996-3.986 6.937-1.734-.996 3.985-6.937zm7.97-13.873l1.735.996-3.985 6.937-1.734-.997 3.985-6.936zm7.971-13.874l1.734.996-3.985 6.937-1.734-.996 1.086-1.891.006-.01.037-.065.004-.006.018-.032.005-.008.006-.01 2.823-4.915zm7.97-13.873l1.735.996-3.986 6.937-1.734-.997 2.393-4.164v-.002l.01-.017.002-.003.03-.052.01-.019.023-.038.008-.014.005-.008.018-.032.005-.008.008-.016h.001l.01-.02h.001l.02-.033.014-.026.01-.018.002-.002.065-.114.002-.004.083-.143.01-.017 1.255-2.186zm7.97-13.874l1.735.996-3.985 6.937-1.734-.996 2.317-4.034.001-.002.022-.037.003-.006.007-.012.027-.047.008-.014.003-.006.018-.031.008-.013.004-.007.018-.031.008-.014.04-.07V48.8l1.5-2.612zm7.971-13.873l1.734.996-3.985 6.937-1.734-.997 3.985-6.936zm7.97-13.874l1.735.996-3.985 6.937-1.735-.996 3.559-6.194v-.001l.029-.05.003-.005.008-.014.007-.013.002-.002.377-.658zM84.93 5.15l1.34 1.485a17.966 17.966 0 00-3.551 4.4l-.843 1.467-1.734-.997.843-1.467.011-.02.004-.007a3.173 3.173 0 01.012-.02l.008-.014.004-.007.008-.014.004-.007a9.88 9.88 0 00.01-.018l.002-.002.011-.02.004-.005.008-.015.004-.007.008-.013.004-.008a5.25 5.25 0 00.012-.02l.011-.018V9.82l.013-.021.003-.004.009-.016.004-.007.008-.014a.637.637 0 00.016-.026l.01-.018.002-.002a11.885 11.885 0 01.015-.025l.01-.016c0-.002.002-.004.003-.005l.008-.015.004-.006.01-.015.002-.005.012-.019.026-.042.002-.004.01-.016a.4.4 0 00.003-.005l.01-.016.002-.004.038-.062.002-.002.01-.018.004-.004.01-.016.002-.005.012-.018v-.001l.026-.041.003-.004.01-.017.002-.004.011-.017.002-.003.013-.02.04-.061.001-.003.011-.018.002-.003.053-.082.013-.02.001-.001a23.5 23.5 0 01.054-.082v-.001l.014-.02c.068-.104.138-.207.208-.31a19.87 19.87 0 011.483-1.904V6.78a20.487 20.487 0 01.08-.09l.002-.003.014-.015.003-.003.047-.053.002-.002.014-.015.003-.004.013-.014.003-.003.015-.017.017-.018v-.001l.015-.016.005-.005.01-.012a.888.888 0 01.02-.022l.013-.013.003-.004.016-.017.004-.005.011-.012a1.11 1.11 0 01.006-.006l.01-.01.006-.008.009-.009.007-.007.008-.01.007-.007.012-.013.009-.01.01-.01.007-.007.007-.009.008-.008.008-.008.008-.009.007-.007.008-.009a.472.472 0 01.004-.004l.023-.024.002-.003.012-.012.003-.003a4.32 4.32 0 01.011-.012l.004-.004.011-.012.003-.003.054-.056.001-.001.012-.013.003-.003.013-.013v-.001c.326-.338.663-.664 1.01-.977zM98.326 0v2c-2.015 0-4 .334-5.9.994l-.656-1.89c.264-.09.528-.177.796-.257h.001l.02-.006.037-.012h.001l.015-.004.007-.002.015-.005.007-.002.014-.004.007-.002.025-.007.01-.003.012-.004.01-.003.012-.003.011-.003.01-.003.021-.006.01-.003.013-.004.01-.003.013-.003.01-.003.015-.004.007-.003.022-.006.006-.001.017-.005a.579.579 0 01.007-.002l.017-.005a.65.65 0 01.029-.008l.024-.007h.004l.02-.006.005-.002.019-.005.004-.001.049-.013.023-.007h.003l.023-.007h.001l.05-.013.024-.007h.001l.075-.02a19.977 19.977 0 013.282-.564h.002l.025-.003.078-.006h.002l.077-.006h.001l.024-.002h.002l.077-.006h.002l.024-.002h.002l.077-.006h.002l.024-.001h.002l.051-.004h.003l.022-.001h.004l.023-.002h.002l.051-.003h.004l.021-.002h.004l.023-.001h.002l.05-.003h.006l.02-.001h.005l.024-.002.026-.001h.002l.022-.001h.006l.02-.001h.005l.024-.002h.025l.006-.001.019-.001h.007l.019-.001h.005l.05-.002a.385.385 0 01.024-.001h.007l.02-.001h.004l.025-.001h.002l.023-.001h.024l.008-.001h.024l.025-.002h.049l.007-.001h.024l.024-.001h.025l.008-.001h.025l.023-.001h.032l.018-.001h.06l.02-.001h.057L98.14 0h.186z" fill="#fff"/></g><path data-name="パス 8" d="M111.578 161.557a1.318 1.318 0 00.946-.364l2.5-2.3a.7.7 0 00.048-.994.7.7 0 00-.994-.048l-2.5 2.3h-10.96l-2.28-2.086v-10.039l2.279-2.11h10.961l2.5 2.3a.7.7 0 00.994-.024.7.7 0 00-.048-.994l-2.5-2.3a1.318 1.318 0 00-.946-.364h-10.96a1.318 1.318 0 00-.946.364l-2.276 2.081a1.41 1.41 0 00-.44 1.047v10.039a1.41 1.41 0 00.44 1.043l2.276 2.085a1.318 1.318 0 00.946.364zm26-14.477c-.024-.049-.073-.073-.1-.121l-2.255-2.061a1.379 1.379 0 00-.9-.388h-11.032a.6.6 0 00-.194.024 1.3 1.3 0 00-.752.364l-2.5 2.3a.782.782 0 00-.218.63v10.4a.782.782 0 00.218.63l.151.129a.189.189 0 00.1.1l2.249 2.082a1.378 1.378 0 00.9.388h11.006c.073 0 .145-.024.194-.024a1.536 1.536 0 00.776-.364l2.473-2.3a.651.651 0 00.218-.63c0-.073.024-.121.024-.194v-10.043l-.024-.17a.651.651 0 00-.218-.63zm-3.327 13.071h-10.96l-2.255-2.11v-10.015l2.255-2.11h10.984l2.255 2.085v10.04zm26-15.835a.7.7 0 00-.7.7v15.135h-1.366l-12.318-15.572a.725.725 0 00-.558-.267h-2.3a.7.7 0 00-.7.7v15.842a.7.7 0 00.7.7.7.7 0 00.7-.7v-15.132l1.261-.024 12.318 15.592a.69.69 0 00.558.267h2.4a.7.7 0 00.7-.7v-15.838a.7.7 0 00-.7-.703zm19.686 17.241a1.318 1.318 0 00.946-.364l2.5-2.3a.7.7 0 00.048-.994.7.7 0 00-.994-.048l-2.5 2.3h-10.961l-2.28-2.086v-10.039l2.279-2.11h10.962l2.5 2.3a.7.7 0 00.994-.024.7.7 0 00-.048-.994l-2.5-2.3a1.318 1.318 0 00-.946-.364h-10.961a1.318 1.318 0 00-.946.364l-2.279 2.081a1.41 1.41 0 00-.436 1.043v10.043a1.41 1.41 0 00.436 1.043l2.279 2.085a1.318 1.318 0 00.946.364zm24.54-2.449a.718.718 0 00.024-.994.7.7 0 00-.994-.048l-2.255 2.113h-11.856v-6.43h11.931a.683.683 0 00.679-.7.683.683 0 00-.679-.7h-11.931v-6.4h11.858l2.255 2.085a.7.7 0 00.994-.049.688.688 0 00-.024-.97l-2.279-2.11a1.318 1.318 0 00-.946-.364H188.69a.7.7 0 00-.7.7v15.638a.7.7 0 00.7.679h12.561a1.318 1.318 0 00.946-.364zm18.819-14.21a1.419 1.419 0 00-.97-.364h-12.563a.7.7 0 00-.7.7v15.645a.683.683 0 00.7.679.683.683 0 00.7-.679v-6.33h11.858a1.339 1.339 0 00.946-.388l2.282-2.082a1.357 1.357 0 00.436-1.018v-3.031a1.357 1.357 0 00-.436-1.018zm1.309 3.128v3.031l-2.279 2.085h-11.86v-7.2h11.858zm15.615 13.531a.7.7 0 00.7-.7v-15.232h8.463a.7.7 0 00.7-.7.7.7 0 00-.7-.7h-18.329a.7.7 0 00-.7.7.7.7 0 00.7.7h8.463v15.229a.7.7 0 00.703.703z" fill="#fff"/></g><g data-name="グループ 12"><g data-name="多角形 4" fill="none"><path d="M521.674 0a20 20 0 0117.342 10.037l75.26 131a20 20 0 010 19.926l-75.26 131A20 20 0 01521.674 302H371.326a20 20 0 01-17.342-10.037l-75.26-131a20 20 0 010-19.926l75.26-131A20 20 0 01371.326 0z"/><path d="M371.326 2c-3.163 0-6.28.837-9.017 2.421a18.023 18.023 0 00-6.591 6.612l-75.26 131a18.027 18.027 0 00-2.392 8.967c0 3.142.827 6.242 2.392 8.967l75.26 131a18.023 18.023 0 006.59 6.612 18.023 18.023 0 009.018 2.421h150.348c3.163 0 6.28-.837 9.017-2.421a18.023 18.023 0 006.591-6.612l75.26-131a18.026 18.026 0 002.392-8.967 18.03 18.03 0 00-2.392-8.967l-75.26-131a18.023 18.023 0 00-6.59-6.612A18.023 18.023 0 00521.673 2H371.326m0-2h150.348a20 20 0 0117.342 10.037l75.26 131a20 20 0 010 19.926l-75.26 131A20 20 0 01521.674 302H371.326a20 20 0 01-17.342-10.037l-75.26-131a20 20 0 010-19.926l75.26-131A20 20 0 01371.326 0z" fill="#fff"/></g><path data-name="パス 9" d="M401.485 159.079a1.381 1.381 0 00.459-1.014v-10.039a1.394 1.394 0 00-.461-1.043l-2.255-2.085a1.4 1.4 0 00-.946-.364h-13.675a.683.683 0 00-.7.679v15.641a.7.7 0 00.7.7h13.652a1.419 1.419 0 00.97-.364zm-16.175 1.072v-14.235h12.974l2.255 2.085v10.064l-2.255 2.086H385.31zm37.49-1.043a.718.718 0 00.024-.994.7.7 0 00-.994-.048l-2.256 2.113h-11.857v-6.43h11.927a.683.683 0 00.679-.7.683.683 0 00-.679-.7h-11.927v-6.4h11.857l2.255 2.085a.7.7 0 00.994-.049.688.688 0 00-.024-.97l-2.279-2.11a1.318 1.318 0 00-.946-.364h-12.561a.7.7 0 00-.7.7v15.638a.7.7 0 00.7.679h12.561a1.318 1.318 0 00.946-.364zm20.175-14.5a1.442 1.442 0 00-.97-.388h-10.936a1.442 1.442 0 00-.97.388l-2.255 2.084a1.394 1.394 0 00-.461 1.043v1.988a1.394 1.394 0 00.461 1.043l2.255 2.085a1.429 1.429 0 00.946.388h10.766l2.279 2.085v2.74l-2.279 2.087h-10.767l-2.473-2.3a.7.7 0 00-.994.048.718.718 0 00.024.994l2.5 2.3a1.532 1.532 0 00.943.364h10.767a1.419 1.419 0 00.97-.364l2.255-2.114a1.394 1.394 0 00.461-1.043v-2.687a1.434 1.434 0 00-.461-1.043l-2.255-2.11a1.419 1.419 0 00-.97-.364h-10.767l-2.255-2.085v-2.013l2.255-2.11h10.985l2.473 2.3a.7.7 0 00.994-.048.688.688 0 00-.024-.97zm13.361 15.543h-6.062a.7.7 0 00-.7.7.7.7 0 00.7.7h13.531a.7.7 0 00.7-.7.7.7 0 00-.7-.7h-6.061v-14.429h6.062a.7.7 0 00.7-.7.7.7 0 00-.7-.7h-13.532a.7.7 0 00-.7.7.7.7 0 00.7.7h6.062zm15.253 1.042a1.318 1.318 0 00.946.364h10.961a1.43 1.43 0 00.946-.364l2.5-2.3a.752.752 0 00.218-.533v-5.314a.7.7 0 00-.679-.7h-8.466a.7.7 0 00-.7.7.7.7 0 00.7.7h7.76v4.316l-2.279 2.085h-10.961l-2.28-2.082v-10.039l2.279-2.11h10.961l2.5 2.3a.7.7 0 00.994-.024.7.7 0 00-.049-.994l-2.5-2.3a1.318 1.318 0 00-.946-.364h-10.959a1.318 1.318 0 00-.946.364l-2.28 2.081a1.41 1.41 0 00-.436 1.043v10.043a1.41 1.41 0 00.436 1.043zm37.9-16.877a.7.7 0 00-.7.7v15.135h-1.358l-12.32-15.572a.725.725 0 00-.558-.267h-2.3a.7.7 0 00-.7.7v15.842a.7.7 0 00.7.7.7.7 0 00.7-.7v-15.132l1.261-.024 12.318 15.592a.69.69 0 00.558.267h2.4a.7.7 0 00.7-.7v-15.838a.7.7 0 00-.7-.703z" fill="#fff"/></g><g data-name="グループ 12"><g data-name="多角形 4" fill="none"><path d="M796.674 0a20 20 0 0117.342 10.037l75.26 131a20 20 0 010 19.926l-75.26 131A20 20 0 01796.674 302H646.326a20 20 0 01-17.342-10.037l-75.26-131a20 20 0 010-19.926l75.26-131A20 20 0 01646.326 0z"/><path d="M646.326 2c-3.163 0-6.28.837-9.017 2.421a18.023 18.023 0 00-6.591 6.612l-75.26 131a18.027 18.027 0 00-2.392 8.967c0 3.142.827 6.242 2.392 8.967l75.26 131a18.023 18.023 0 006.59 6.612 18.023 18.023 0 009.018 2.421h150.348c3.163 0 6.28-.837 9.017-2.421a18.023 18.023 0 006.591-6.612l75.26-131a18.026 18.026 0 002.392-8.967 18.03 18.03 0 00-2.392-8.967l-75.26-131a18.023 18.023 0 00-6.59-6.612A18.023 18.023 0 00796.673 2H646.326m0-2h150.348a20 20 0 0117.342 10.037l75.26 131a20 20 0 010 19.926l-75.26 131A20 20 0 01796.674 302H646.326a20 20 0 01-17.342-10.037l-75.26-131a20 20 0 010-19.926l75.26-131A20 20 0 01646.326 0z" fill="#fff"/></g><path d="M672.34 161.557a1.318 1.318 0 00.946-.364l2.5-2.3a.7.7 0 00.048-.994.7.7 0 00-.994-.048l-2.5 2.3h-10.96l-2.28-2.086v-10.039l2.279-2.11h10.961l2.5 2.3a.7.7 0 00.994-.024.7.7 0 00-.048-.994l-2.5-2.3a1.318 1.318 0 00-.946-.364h-10.96a1.318 1.318 0 00-.946.364l-2.276 2.082a1.41 1.41 0 00-.44 1.046v10.039a1.41 1.41 0 00.44 1.043l2.276 2.085a1.318 1.318 0 00.946.364zm26-14.477c-.024-.049-.073-.073-.1-.121l-2.255-2.061a1.378 1.378 0 00-.9-.388h-11.032a.6.6 0 00-.194.024 1.3 1.3 0 00-.752.364l-2.5 2.3a.782.782 0 00-.218.63v10.4a.782.782 0 00.218.63l.151.129a.189.189 0 00.1.1l2.249 2.082a1.378 1.378 0 00.9.388h11.006c.073 0 .145-.024.194-.024a1.536 1.536 0 00.776-.364l2.473-2.3a.651.651 0 00.218-.63c0-.073.024-.121.024-.194v-10.043l-.024-.17a.651.651 0 00-.218-.63zm-3.327 13.071h-10.96l-2.255-2.11v-10.015l2.255-2.11h10.984l2.255 2.085v10.04zm25.632-1.071a1.381 1.381 0 00.461-1.018v-10.036a1.394 1.394 0 00-.461-1.043l-2.255-2.085a1.4 1.4 0 00-.946-.364h-13.677a.683.683 0 00-.7.679v15.641a.7.7 0 00.7.7h13.652a1.419 1.419 0 00.97-.364zm-16.175 1.071v-14.235h12.974l2.255 2.085v10.064l-2.255 2.086H704.47zm27.765 0h-6.062a.7.7 0 00-.7.7.7.7 0 00.7.7h13.531a.7.7 0 00.7-.7.7.7 0 00-.7-.7h-6.062v-14.429h6.062a.7.7 0 00.7-.7.7.7 0 00-.7-.7h-13.531a.7.7 0 00-.7.7.7.7 0 00.7.7h6.062zm30.481-15.835a.7.7 0 00-.7.7v15.135h-1.358l-12.321-15.571a.725.725 0 00-.558-.267h-2.3a.7.7 0 00-.7.7v15.841a.7.7 0 00.7.7.7.7 0 00.7-.7v-15.132l1.261-.024 12.318 15.592a.69.69 0 00.558.267h2.4a.7.7 0 00.7-.7v-15.838a.7.7 0 00-.699-.703zm7.785 16.877a1.318 1.318 0 00.946.364h10.961a1.43 1.43 0 00.946-.364l2.5-2.3a.752.752 0 00.218-.533v-5.314a.7.7 0 00-.679-.7h-8.463a.7.7 0 00-.7.7.7.7 0 00.7.7h7.76v4.316l-2.279 2.085h-10.965l-2.279-2.085v-10.036l2.279-2.11h10.961l2.5 2.3a.7.7 0 00.994-.024.7.7 0 00-.048-.994l-2.5-2.3a1.318 1.318 0 00-.946-.364h-10.961a1.318 1.318 0 00-.946.364l-2.279 2.082a1.41 1.41 0 00-.436 1.043v10.042a1.41 1.41 0 00.436 1.043z" fill="#fff"/></g><g data-name="グループ 12"><g data-name="多角形 4" fill="none" stroke-dasharray="8"><path d="M1069.674 0a20 20 0 0117.342 10.037l75.26 131a20 20 0 010 19.926l-75.26 131A20 20 0 011069.674 302H919.326a20 20 0 01-17.342-10.037l-75.26-131a20 20 0 010-19.926l75.26-131A20 20 0 01919.326 0z"/><path d="M919.326 0h8v2h-8V0zm16 0h8v2h-8V0zm16 0h8v2h-8V0zm16 0h8v2h-8V0zm16 0h8v2h-8V0zm16 0h8v2h-8V0zm16 0h8v2h-8V0zm16 0h8v2h-8V0zm16 0h8v2h-8V0zm16 0h6.534l.016.001h.064l.014.001h.025a.874.874 0 01.031 0h.007l.017.001h.023a1.326 1.326 0 01.024.001h.026l.017.001h.036l.01.001h.025l.014.001h.013l.018.001h.024l.01.001h.025l.014.001h.009l.022.001h.01l.014.001h.023l.011.001h.014l.01.001.022.001h.024l.01.001h.013l.01.001a2.36 2.36 0 00.024.001l.023.001a.35.35 0 00.005 0l.019.001h.008l.016.001h.008l.018.002h.005l.05.002h.003l.02.002h.028l.004.001.076.004c.172.01.342.022.513.036l-.165 1.993c-.491-.04-.99-.061-1.485-.061h-6.348V0zm15.63 2.284a20.001 20.001 0 015.861 4.65 14.771 14.771 0 01.042.049l.04.046.002.002.037.045.004.004.018.022.002.002.016.02a.656.656 0 00.005.005l.017.02.004.005.014.017.005.006.017.02.006.007.012.014.006.008.016.019.006.008.011.013.007.008.015.018.003.004-1.545 1.27a17.902 17.902 0 00-5.55-4.51l.928-1.772zm10.384 11.798l1.33 2.316.005.008.027.047.008.014.002.004.02.033.004.007.019.034.002.004.01.015.014.025 2.544 4.43-1.734.996-3.985-6.937 1.734-.996zm7.97 13.873l.015.026v.001l.002.002.003.006.001.001.043.076.01.017.004.007 3.908 6.8-1.735.997-3.985-6.937 1.734-.996zm7.97 13.874l3.986 6.936-1.734.997-3.985-6.937 1.734-.996zm7.971 13.873l3.985 6.937-1.734.996-3.985-6.937 1.734-.996zm7.97 13.874l3.986 6.936-1.735.997-3.985-6.937 1.734-.996zm7.97 13.873l3.986 6.937-1.734.996-3.985-6.937 1.734-.996zm7.971 13.874l3.985 6.936-1.734.997-3.985-6.937 1.734-.996zm7.97 13.873l3.986 6.937-1.735.996-3.985-6.937 1.734-.996zm7.97 13.874l1.805 3.14.004.006.066.116.003.005.018.031.02.034.003.006.01.018.001.002 2.056 3.578-1.734.997-3.985-6.937 1.734-.996zm7.971 13.873l1.114 1.938.001.002.004.008.008.013.007.012v.001l.007.012.001.002.002.004.002.002.01.017.003.006.001.002.003.005.027.046.013.024.011.019.002.003.009.016a.28.28 0 00.002.004l.009.015.002.004.008.015.003.005.008.013.003.006.008.013.003.006.008.014.002.004.008.014.003.006.008.014.003.004.008.015.002.004.01.017v.001l.01.018.001.002c.323.58.615 1.17.876 1.772l.008.02.009.02v.001c.03.067.058.133.086.2l.008.02.008.02.001.002.008.018v.002l.008.017v.004l.008.016.001.004a3.32 3.32 0 00.009.02l.006.016.002.004a2.881 2.881 0 00.008.02l.007.017v.002l.008.018.001.002a3.793 3.793 0 01.042.106l.006.014.003.007.005.012c0 .003.002.005.003.008l.005.012c0 .003.002.005.003.008l.004.012.003.007.005.013.003.007.005.013.003.007.005.012.003.009.004.01.004.01.004.01.003.01.005.01.003.009.004.01.004.01.003.01.004.01.003.008.02.049.004.014.003.007.004.011.004.009.004.01.003.01a1.45 1.45 0 01.015.04l.004.01.003.009.004.01.004.01.004.01.003.009.004.011a.925.925 0 01.01.028l.005.012a.907.907 0 01.003.008l.004.011.002.007.005.013.002.005.005.015.028.076v.001l.006.015a2.706 2.706 0 01.007.02 2.482 2.482 0 00.007.019c0 .002 0 .004.002.006l.004.013.003.007a1.448 1.448 0 01.007.02l.004.012.003.007.004.013.003.007.004.013.002.006.005.013.002.007a2.031 2.031 0 01.007.02l.005.013.002.006.005.014.001.004.005.015.001.003.024.07.002.006.005.013.002.006.004.013.003.007.004.013.002.007.004.012.003.009.004.01.003.01a1.83 1.83 0 00.01.03l.003.009.004.012.003.008a.629.629 0 00.01.032l.002.007.005.012.002.008.004.012.002.007a18.368 18.368 0 01.024.072l.004.014.002.006.004.012.002.008.004.012.003.008.003.01.003.01.003.01.004.01c0 .004.002.007.003.01 0 .004.002.007.003.011l.003.009.004.011.002.009.004.011.003.01.003.01.003.01.004.011.002.008.004.014.002.006.005.015.001.005.006.02a14.44 14.44 0 01.02.063l.006.02v.001l.006.02v.001l.006.019v.001l.006.019v.003l.006.018v.002a.06.06 0 01.006.019v.001a.076.076 0 01.006.02l.001.001.005.019.001.002c.081.276.156.554.225.833l-1.942.48a17.992 17.992 0 00-1.867-4.65l-1.203-2.094 1.734-.996zm1.638 14.886l1.975.314a19.974 19.974 0 01-2.107 6.274l-.03.055a36.789 36.789 0 01-.03.055l-.009.017-.001.003a15.882 15.882 0 01-.039.07l-.002.005-.017.03-.001.003-.008.014-.005.008a4.083 4.083 0 01-.007.014l-.002.004-.015.027-.005.008-.007.013-.005.01-.011.018-.007.012-.006.011-.006.012-.006.01-.01.018-.005.01-.009.014-.005.01-.008.014a.719.719 0 00-.017.029l-.004.007-.009.016a.643.643 0 00-.004.007l-.013.022-.362.63-1.734-.996.362-.63a17.928 17.928 0 002.169-6.138zm-6.516 13.705l1.734.996-3.985 6.937-1.734-.997 3.985-6.936zm-7.97 13.873l1.734.996-3.701 6.442-.004.007v.001l-.005.007-.003.006-.003.005-.005.008-.01.018-.005.008v.002l-.01.016-.004.008-.01.015v.003l-.006.009-.008.014-.002.003v.002a.02.02 0 00-.006.01l-.01.017-.002.003-.01.016v.002l-.004.007-.014.023-.004.007a1.7 1.7 0 00-.007.012l-.002.004-.017.03-.002.003-.033.057v.002l-.054.092-.044.078-1.735-.996 3.985-6.937zm-7.97 13.874l1.733.996-3.985 6.937-1.734-.997 3.985-6.936zm-7.971 13.873l1.734.996-3.985 6.937-1.734-.996 3.985-6.937zm-7.97 13.873l1.734.997h-.001v.001l-.001.002-.001.001v.001l-.002.002-.002.004-.002.004-.001.002-.002.004a.133.133 0 00-.002.003l-.001.002-.003.004v.002l-.008.012-.004.007v.001a.317.317 0 00-.002.004l-.002.003-.001.001-.004.007-.002.003v.002l-.008.012-.007.013-.001.001-.041.072-.002.002-.033.058v.001l-.038.065-.002.004-3.813 6.637-1.734-.997 3.985-6.937zm-7.971 13.874l1.734.996-3.985 6.937-1.734-.996 3.985-6.937zm-7.97 13.873l1.734.997-1.71 2.977-.015.025a3.882 3.882 0 00-.01.017l-2.25 3.917-1.734-.996 3.985-6.937zm-7.97 13.874l1.734.996-3.986 6.937-1.734-.996 3.985-6.937zm-7.971 13.873l1.734.997-3.985 6.936-1.734-.996 3.985-6.937zm-7.94 13.7l1.646 1.135a7.07 7.07 0 01-.007.01l-.007.01-.008.013-.007.01a4.043 4.043 0 01-.02.03l-.009.01-.008.013-.012.017-.008.011-.008.011-.012.017a2.733 2.733 0 01-.008.011l-.009.013-.007.01-.013.019a1.087 1.087 0 01-.016.023l-.007.01-.014.019a1.37 1.37 0 00-.022.03l-.015.021-.006.008-.01.016a.978.978 0 01-.006.007l-.015.02-.005.008-.012.017a1.047 1.047 0 01-.005.006l-.014.02-.006.008-.013.018a.423.423 0 01-.003.004l-.016.021-.005.007-.015.02-.002.004-.015.02-.005.007-.016.022a.127.127 0 00-.002.002l-.015.02-.004.006-.017.022-.002.004a10.678 10.678 0 01-.035.047l-.003.003-.015.02-.003.004-.017.023-.003.003-.015.02-.003.005-.017.022-.003.004-.016.02c0 .002-.001.002-.002.003l-.017.023-.003.004-.017.022v.001a6.726 6.726 0 01-.019.023l-.002.004-.036.046-.003.003-.036.047-.002.003-.037.047-.002.003a19.027 19.027 0 01-.057.072l-.02.024v.002l-.02.023v.002l-.019.023a6.954 6.954 0 01-.02.024l-.001.002-.018.023h-.001l-.019.024-.002.003-.018.022-.02.024-.002.002-.037.047-.002.002-.038.046-.002.002a27.689 27.689 0 01-.119.143l-.001.002-.04.047-.02.024-.02.024h-.001l-.02.024v.001l-.04.046-.002.002a18.8 18.8 0 01-.04.046v.001l-.04.046-.002.002-.04.046-.041.047a20.026 20.026 0 01-.043.048l-.02.023-.02.023h-.001l-.02.023-.002.002-.02.022-.02.023h-.001l-.041.046-.001.002-.041.044-.002.002-.04.044-.002.003-.04.044c-.001 0-.002 0-.002.002a18.074 18.074 0 01-.126.134l-.002.003-.02.021-.002.002-.02.02-.001.002-.02.022-.002.001-.02.021v.001a.145.145 0 00-.021.022l-.002.002-.02.02-.001.001-.02.022c-.002 0-.002 0-.003.002a18.02 18.02 0 01-.04.042l-.003.003-.041.042-.003.003-.04.042c-.002 0-.003.002-.003.002l-.021.021-.02.021-.003.003a6.391 6.391 0 01-.02.02l-.002.002-.02.02-.002.002-.02.02-.002.002-.02.02-.002.002-.02.02-.002.003-.02.02h-.002l-.02.021-.003.003-.02.02-.021.02-.004.005-.04.04c-.002 0-.003.002-.004.003l-.04.04c-.002 0-.004.003-.005.004l-.04.039a.589.589 0 01-.027.026 9.241 9.241 0 01-.018.017l-.005.005-.02.018c0 .002-.001.002-.002.003a9.318 9.318 0 01-.022.021l-.02.02-.004.003-.017.016-.005.004-.019.019-.004.004-.017.016-.004.004-.02.018a.387.387 0 00-.021.02l-.005.005-.02.018a.748.748 0 01-.004.005l-.017.015-.004.004-.02.018-.005.005-.017.015-.004.005a8.925 8.925 0 01-.018.017l-.007.006-.017.016c-.002 0-.004.003-.005.004l-.017.015-.007.007-.016.015-.008.007-.015.013-.007.006-.018.017a.919.919 0 00-.006.006l-.015.013-.006.006a4.767 4.767 0 01-.026.023l-.013.012a1.532 1.532 0 01-.007.007l-.019.016-.007.007a2.4 2.4 0 00-.013.011l-.008.007-.017.016-.008.007-.014.012-.007.006-.018.016-.008.007-.013.012-.007.006-.018.016-.008.007-.014.013a.897.897 0 01-.008.007l-.017.014-.008.007-.013.012-.011.01-.013.011-.01.008-.012.011-.014.012-.01.01a7.094 7.094 0 01-.026.022l-.01.008-.011.01-.01.008-.015.013a3.412 3.412 0 01-.012.01l-.01.009c-.004.002-.007.006-.01.009l-.017.014a3 3 0 00-.01.008l-.01.009-.01.008-.017.014-.01.01a2.355 2.355 0 01-.01.007l-.013.01-.014.013-.01.01-.01.007-.016.014-.011.009-.011.009-.01.008a4.4 4.4 0 01-.038.032l-.008.006-.02.016-.008.007-.011.01a2.107 2.107 0 00-.01.007l-.017.015-.01.007a3.007 3.007 0 00-.011.01l-.009.007-.02.016-.007.006-.012.01-.006.005-.023.018a.867.867 0 01-.048.039l-.006.005a14.45 14.45 0 01-.048.038l-.042.034-.005.004-.043.034-.005.004-.027.022h-.002l-.015.013-.003.002-.028.022-.002.002-.015.011a.334.334 0 01-.003.003l-.028.021-.003.002-.045.035-.003.003-.045.034-.004.003-.045.035-.003.002-.046.035-.002.002-.047.035-.002.001c-.417.315-.847.612-1.287.893l-1.074-1.688a17.894 17.894 0 005.15-4.962zm-11.826 7.529l.333 1.972c-.34.057-.682.106-1.026.146h-.003l-.022.003h-.003a24.9 24.9 0 01-.05.006h-.002l-.022.002h-.006c-.006.002-.012.002-.019.003h-.005l-.022.003h-.002l-.024.003h-.008l-.015.002-.01.001-.015.002h-.008l-.02.003h-.005l-.022.002-.009.001-.014.002h-.01l-.014.002-.01.001-.016.002-.016.001-.013.002h-.013l-.01.002-.014.001h-.009l-.014.002h-.006l-.03.003-.007.001-.015.001-.008.001-.015.001-.007.001a30.87 30.87 0 01-.054.005h-.004l-.017.002h-.005l-.017.001h-.005l-.056.005h-.003l-.017.002h-.006l-.017.002h-.002l-.06.005h-.002l-.018.001h-.003l-.02.002-.06.004h-.002l-.019.002h-.003l-.081.005-.021.002-.083.005a4.058 4.058 0 00-.105.006h-.02a18.12 18.12 0 01-.084.005h-.02v.001a23.843 23.843 0 01-.085.004h-.019l-.082.004h-.021l-.004.001-.059.002h-.025l-.017.001h-.003l-.057.002h-.021l-.006.001h-.021l-.056.002h-.005a2.955 2.955 0 01-.023 0l-.016.001h-.006a30.236 30.236 0 01-.06.001h-.025l-.013.001h-.045l-.013.001h-.057l-.022.001h-.153l-.015.001h-4.693v-2h4.66c1.001 0 2.008-.084 2.992-.25zm-23.652.25h8v2h-8v-2zm-16 0h8v2h-8v-2zm-16 0h8v2h-8v-2zm-16 0h8v2h-8v-2zm-16 0h8v2h-8v-2zm-16 0h8v2h-8v-2zm-16 0h8v2h-8v-2zm-16 0h8v2h-8v-2zm-16 0h8v2h-8v-2zm-13.498-4.415a17.917 17.917 0 006.223 3.526l-.621 1.902a20.017 20.017 0 01-6.914-3.919l1.312-1.51zm-8.443-12.704l3.985 6.937-1.734.996-1.286-2.238-.02-.033-2.68-4.666 1.735-.996zm-7.97-13.874l3.984 6.937-1.734.996-.767-1.335-.003-.005-.073-.128-.004-.006-.034-.06-.006-.01-.01-.017-.012-.02v-.002l-.029-.049-.004-.007-.003-.006a7.34 7.34 0 00-.008-.014l-.003-.005-.005-.01-.007-.011-.006-.01v-.002c-.004-.004-.006-.009-.009-.014l-.005-.008-.006-.01-.037-.065-.001-.003-.008-.012-.002-.005-2.943-5.122 1.734-.997zm-7.971-13.873l3.985 6.937-1.734.996-3.872-6.739-.006-.012-.002-.002-.002-.003-.007-.013-.002-.004-.01-.017-.002-.003-.013-.023-.001-.002-.012-.02-.009-.016-.006-.01a.186.186 0 01-.001-.003l-.001-.002-.028-.048-.01-.018-.001-.001 1.734-.997zm-7.97-13.874l3.985 6.937-1.735.996-3.985-6.936 1.734-.997zm-7.97-13.873l3.984 6.937-1.734.996-3.985-6.937 1.734-.996zm-7.971-13.874l3.985 6.937-1.734.997-3.985-6.937 1.734-.997zm-7.97-13.873l3.985 6.937-1.735.996-3.985-6.937 1.734-.996zm-7.97-13.873l3.984 6.936-1.734.997-3.985-6.937 1.734-.996zm-7.971-13.874l3.985 6.937-1.734.996-.95-1.652-.02-.036-.001-.002-.006-.01-.006-.01-.005-.008-.007-.013-.004-.007a.414.414 0 01-.002-.004l-.017-.03-.029-.05-.001-.002-.04-.068-.003-.007-2.894-5.038 1.734-.996zm-7.759-13.732c.267.616.572 1.223.907 1.806l2.866 4.99-1.734.996-2.866-4.99-.01-.017c0-.002-.002-.003-.003-.005l-.007-.012-.003-.006a1.963 1.963 0 00-.01-.017l-.006-.01-.004-.008-.007-.012-.002-.004-.01-.017c0-.002-.002-.003-.003-.005l-.006-.012-.004-.006a5.76 5.76 0 01-.01-.018l-.005-.01-.005-.007a1.815 1.815 0 01-.005-.01l-.004-.007-.008-.014-.001-.003-.01-.016a.634.634 0 01-.003-.006l-.006-.011-.004-.007-.006-.01-.004-.007-.005-.01-.004-.007-.006-.01-.004-.008-.009-.016v-.002l-.009-.015-.003-.006-.006-.011-.004-.007-.006-.01-.003-.007-.007-.012a.38.38 0 01-.003-.005l-.008-.016-.01-.018-.002-.003-.008-.014-.003-.006-.006-.012-.003-.005a8.874 8.874 0 00-.01-.017l-.008-.016v-.001l-.01-.018v-.001l-.01-.017-.002-.004a2.6 2.6 0 01-.006-.012l-.003-.006-.007-.012a.556.556 0 00-.003-.006l-.006-.011-.003-.006-.008-.015-.001-.002-.01-.018v-.001l-.009-.016a.282.282 0 00-.009-.017l-.003-.006-.006-.012-.002-.005-.008-.015-.001-.002-.019-.036-.001-.002-.008-.015-.002-.004-.007-.014-.003-.004-.007-.014-.002-.004a19.54 19.54 0 01-.029-.056l-.007-.015-.002-.003a2.909 2.909 0 00-.007-.014l-.002-.005a3.433 3.433 0 00-.008-.014l-.001-.003a22.05 22.05 0 01-.027-.053l-.002-.004-.007-.014-.002-.004-.007-.014-.002-.003-.008-.017v-.001l-.01-.018v-.002l-.009-.016-.002-.004-.006-.013a.573.573 0 01-.003-.006l-.006-.011-.003-.007-.005-.01-.004-.008-.006-.013-.002-.003-.008-.017-.005-.009-.004-.008-.004-.01a.653.653 0 00-.004-.007l-.005-.01-.003-.007a1.56 1.56 0 01-.005-.01l-.003-.006-.005-.011-.002-.003-.012-.025-.002-.004a1.864 1.864 0 01-.006-.013l-.002-.004-.006-.012a.278.278 0 00-.002-.004l-.006-.013-.001-.002a19.96 19.96 0 01-.326-.714l1.834-.796zm-1.978-14.78l1.85.762a17.898 17.898 0 00-1.357 7.022l-2 .019c-.01-1.16.08-2.32.27-3.467l.001-.003.01-.06.003-.015v-.001l.007-.042v-.005l.003-.011v-.006l.003-.011v-.005l.004-.02a.561.561 0 00.003-.017l.002-.008.001-.01.002-.009.001-.008.003-.017.002-.008.002-.01.001-.008.002-.01.001-.008.003-.014.001-.006a2.238 2.238 0 00.004-.022l.002-.01.001-.007.003-.016v-.002l.004-.018a.2.2 0 00.003-.019l.001-.005.003-.016v-.002l.008-.038v-.002l.004-.018v-.001l.008-.04.003-.02.012-.059a19.964 19.964 0 011.126-3.73zm7.82-13.952l1.734.996-3.985 6.937-1.735-.996 3.986-6.937zm7.97-13.874l1.734.997-3.985 6.937-1.734-.997 3.985-6.936zm7.97-13.873l1.735.996-3.986 6.937-1.734-.996 3.985-6.937zm7.97-13.873l1.735.996-3.985 6.937-1.734-.997 3.985-6.936zm7.971-13.874l1.734.996-3.985 6.937-1.734-.996 1.086-1.891.006-.01.037-.065.004-.006.018-.032.005-.008.006-.01 2.823-4.915zm7.97-13.873l1.735.996-3.986 6.937-1.734-.997 2.393-4.164v-.002l.01-.017.002-.003.03-.052.01-.019.023-.038.008-.014.005-.008.018-.032.005-.008.008-.016h.001l.01-.02h.001l.02-.033.014-.026.01-.018.002-.002.065-.114.002-.004.083-.143.01-.017 1.255-2.186zm7.97-13.874l1.735.996-3.985 6.937-1.734-.996 2.317-4.034.001-.002.022-.037.003-.006.007-.012.027-.047.008-.014.003-.006.018-.031.008-.013.004-.007.018-.031.008-.014.04-.07V48.8l1.5-2.612zm7.971-13.873l1.734.996-3.985 6.937-1.734-.997 3.985-6.936zm7.97-13.874l1.735.996-3.985 6.937-1.735-.996 3.559-6.194v-.001l.029-.05.003-.005.008-.014.007-.013.002-.002.377-.658zM905.93 5.15l1.34 1.485a17.966 17.966 0 00-3.551 4.4l-.843 1.467-1.734-.997.843-1.467.011-.02.004-.007a3.173 3.173 0 01.012-.02l.008-.014.004-.007.008-.014.004-.007a9.88 9.88 0 00.01-.018l.002-.002.011-.02.004-.005.008-.015.004-.007.008-.013.004-.008a5.25 5.25 0 00.012-.02l.011-.018V9.82l.013-.021.003-.004.009-.016.004-.007.008-.014a.637.637 0 00.016-.026l.01-.018.002-.002a11.885 11.885 0 01.015-.025l.01-.016c0-.002.002-.004.003-.005l.008-.015.004-.006.01-.015.002-.005.012-.019.026-.042.002-.004.01-.016a.4.4 0 00.003-.005l.01-.016.002-.004.038-.062.002-.002.01-.018.004-.004.01-.016.002-.005.012-.018v-.001l.026-.041.003-.004.01-.017.002-.004.011-.017.002-.003.013-.02.04-.061.001-.003.011-.018.002-.003.053-.082.013-.02.001-.001a23.5 23.5 0 01.054-.082v-.001l.014-.02c.068-.104.138-.207.208-.31a19.87 19.87 0 011.483-1.904V6.78a20.487 20.487 0 01.08-.09l.002-.003.014-.015.003-.003.047-.053.002-.002.014-.015.003-.004.013-.014.003-.003.015-.017.017-.018v-.001l.015-.016.005-.005.01-.012a.888.888 0 01.02-.022l.013-.013.003-.004.016-.017.004-.005.011-.012a1.11 1.11 0 01.006-.006l.01-.01.006-.008.009-.009.007-.007.008-.01.007-.007.012-.013.009-.01.01-.01.007-.007.007-.009.008-.008.008-.008.008-.009.007-.007.008-.009a.472.472 0 01.004-.004l.023-.024.002-.003.012-.012.003-.003a4.32 4.32 0 01.011-.012l.004-.004.011-.012.003-.003.054-.056.001-.001.012-.013.003-.003.013-.013v-.001c.326-.338.663-.664 1.01-.977zM919.326 0v2c-2.015 0-4 .334-5.9.994l-.656-1.89c.264-.09.528-.177.796-.257h.001l.02-.006.037-.012h.001l.015-.004.007-.002.015-.005.007-.002.014-.004.007-.002.025-.007.01-.003.012-.004.01-.003.012-.003.011-.003.01-.003.021-.006.01-.003.013-.004.01-.003.013-.003.01-.003.015-.004.007-.003.022-.006.006-.001.017-.005a.579.579 0 01.007-.002l.017-.005a.65.65 0 01.029-.008l.024-.007h.004l.02-.006.005-.002.019-.005.004-.001.049-.013.023-.007h.003l.023-.007h.001l.05-.013.024-.007h.001l.075-.02a19.977 19.977 0 013.282-.564h.002l.025-.003.078-.006h.002l.077-.006h.001l.024-.002h.002l.077-.006h.002l.024-.002h.002l.077-.006h.002l.024-.001h.002l.051-.004h.003l.022-.001h.004l.023-.002h.002l.051-.003h.004l.021-.002h.004l.023-.001h.002l.05-.003h.006l.02-.001h.005l.024-.002.026-.001h.002l.022-.001h.006l.02-.001h.005l.024-.002h.025l.006-.001.019-.001h.007l.019-.001h.005l.05-.002a.385.385 0 01.024-.001h.007l.02-.001h.004l.025-.001h.002l.023-.001h.024l.008-.001h.024l.025-.002h.049l.007-.001h.024l.024-.001h.025l.008-.001h.025l.023-.001h.032l.018-.001h.06l.02-.001h.057L919.14 0h.138l.016-.001h.033z" fill="#fff"/></g><path data-name="パス 10" d="M975.074 128.004a.7.7 0 00-.7.7v6.281l-.049.073-5.893 8.414-5.65-8.2-.073-.073v-6.5a.7.7 0 00-.7-.7.7.7 0 00-.7.7v6.281c-.024.024-.049.048-.049.073l-5.893 8.414-5.674-8.2c-.024-.024-.024-.048-.048-.073v-6.5a.7.7 0 00-.7-.7.7.7 0 00-.7.7v6.475a1.441 1.441 0 00.339.921l6.208 9a.759.759 0 00.582.291.8.8 0 00.582-.291l5.99-8.584 5.926 8.594a.712.712 0 00.558.291.723.723 0 00.582-.291l6.426-9.215a1.331 1.331 0 00.339-.9v-6.273a.7.7 0 00-.703-.708zm23.012 2.908c-.024-.049-.073-.073-.1-.121l-2.252-2.06a1.378 1.378 0 00-.9-.388h-11.03a.6.6 0 00-.194.024 1.3 1.3 0 00-.752.364l-2.5 2.3a.782.782 0 00-.218.63v10.4a.782.782 0 00.218.63l.145.121a.189.189 0 00.1.1l2.255 2.085a1.378 1.378 0 00.9.388h11.006c.073.006.146-.019.194-.019a1.536 1.536 0 00.776-.364l2.473-2.3a.651.651 0 00.218-.63c0-.073.024-.121.024-.194v-10.043l-.024-.17a.651.651 0 00-.218-.63zm-3.322 13.072h-10.96l-2.255-2.11V131.86l2.255-2.11h10.988l2.255 2.085v10.04zm25.049.7l-.7-.7h-2.04l-2.764-5.626h1.77a1.318 1.318 0 00.946-.364l2.279-2.082a1.509 1.509 0 00.436-1.043v-3.007a1.509 1.509 0 00-.436-1.043l-2.279-2.085a1.318 1.318 0 00-.946-.364h-12.561a.683.683 0 00-.7.679v15.638a.7.7 0 00.7.7.7.7 0 00.7-.7v-6.329h8.536l3.18 6.454a.573.573 0 00.145.218 1.4 1.4 0 00.946.364h2.085a.7.7 0 00.704-.707zm-15.592-7.708v-7.226h11.858l2.255 2.11.024 3.007a.024.024 0 00-.024.024l-2.255 2.061v.024zm37.538 5.941a1.381 1.381 0 00.461-1.018V131.86a1.394 1.394 0 00-.461-1.043l-2.255-2.085a1.4 1.4 0 00-.946-.364h-13.676a.683.683 0 00-.7.679v15.64a.7.7 0 00.7.7h13.652a1.419 1.419 0 00.97-.364zm-16.174 1.067V129.75h12.973l2.255 2.085v10.064l-2.255 2.085h-12.973zm-67.993 17.08a1.419 1.419 0 00-.97-.364h-12.563a.7.7 0 00-.7.7v15.644a.683.683 0 00.7.679.683.683 0 00.7-.679v-6.332h11.858a1.339 1.339 0 00.946-.388l2.279-2.085a1.357 1.357 0 00.436-1.018v-3.029a1.357 1.357 0 00-.436-1.018zm1.309 3.128v3.031l-2.281 2.089h-11.858v-7.2h11.858zm22.746 12.828l-.7-.7h-2.037l-2.764-5.626h1.77a1.318 1.318 0 00.946-.364l2.279-2.085a1.509 1.509 0 00.436-1.043v-3.01a1.509 1.509 0 00-.436-1.043l-2.279-2.085a1.318 1.318 0 00-.946-.364H965.35a.683.683 0 00-.7.679v15.641a.7.7 0 00.7.7.7.7 0 00.7-.7v-6.329h8.542l3.177 6.45a.573.573 0 00.145.218 1.4 1.4 0 00.946.364h2.085a.7.7 0 00.7-.703zm-15.594-7.708v-7.23h11.858l2.255 2.11.024 3.007a.024.024 0 00-.024.024l-2.255 2.061v.028zm36.447 5.962a.718.718 0 00.024-.994.7.7 0 00-.994-.048l-2.255 2.11h-11.858v-6.43h11.93a.703.703 0 000-1.406h-11.93v-6.4h11.858l2.255 2.086a.7.7 0 00.994-.049.688.688 0 00-.024-.97l-2.279-2.11a1.318 1.318 0 00-.946-.364h-12.562a.7.7 0 00-.7.7v15.645a.7.7 0 00.7.679h12.562a1.318 1.318 0 00.946-.364zm20.175-14.5a1.442 1.442 0 00-.97-.388h-10.936a1.442 1.442 0 00-.97.388l-2.255 2.085a1.394 1.394 0 00-.461 1.043v1.988a1.394 1.394 0 00.461 1.043l2.255 2.085a1.429 1.429 0 00.946.388h10.766l2.281 2.085v2.74l-2.281 2.081h-10.767l-2.473-2.3a.7.7 0 00-.994.048.718.718 0 00.024.994l2.5 2.3a1.532 1.532 0 00.946.364h10.764a1.419 1.419 0 00.97-.364l2.255-2.11a1.394 1.394 0 00.461-1.043v-2.689a1.433 1.433 0 00-.461-1.043l-2.255-2.11a1.419 1.419 0 00-.97-.364h-10.767l-2.252-2.083v-2.011l2.255-2.11h10.982l2.473 2.3a.7.7 0 00.994-.048.688.688 0 00-.024-.97zm22.188 0a1.442 1.442 0 00-.97-.388h-10.936a1.442 1.442 0 00-.97.388l-2.255 2.085a1.394 1.394 0 00-.461 1.043v1.988a1.394 1.394 0 00.461 1.043l2.255 2.085a1.429 1.429 0 00.946.388h10.766l2.279 2.085v2.74l-2.279 2.081h-10.767l-2.473-2.3a.7.7 0 00-.994.048.718.718 0 00.024.994l2.5 2.3a1.532 1.532 0 00.946.364h10.764a1.419 1.419 0 00.97-.364l2.255-2.11a1.394 1.394 0 00.461-1.043v-2.689a1.433 1.433 0 00-.461-1.043l-2.255-2.11a1.419 1.419 0 00-.97-.364h-10.767l-2.255-2.083v-2.011l2.255-2.11h10.985l2.473 2.3a.7.7 0 00.994-.048.688.688 0 00-.024-.97z" fill="#fff"/></g></svg>