<svg xmlns="http://www.w3.org/2000/svg" width="132.236" height="11.472"><path d="M6.224 11.472a.448.448 0 00.368-.192l5.744-7.936a.376.376 0 00.1-.272V.496a.464.464 0 00-.464-.464.464.464 0 00-.464.464v2.432l-5.28 7.3-5.3-7.3V.496A.464.464 0 00.46.032a.464.464 0 00-.464.464v2.592a.363.363 0 00.1.256L5.84 11.28a.456.456 0 00.384.192zm13.552-.928h-4a.464.464 0 00-.464.464.464.464 0 00.464.464h8.928a.464.464 0 00.464-.464.464.464 0 00-.464-.464h-4v-9.52h4a.464.464 0 00.464-.464.464.464 0 00-.464-.464h-8.928a.464.464 0 00-.464.464.464.464 0 00.464.464h4zm19.152-.688a.474.474 0 00.016-.656.459.459 0 00-.656-.032L36.8 10.56h-7.824V6.32h7.872a.451.451 0 00.448-.464.451.451 0 00-.448-.464h-7.872v-4.22H36.8l1.488 1.376a.459.459 0 00.656-.032.454.454 0 00-.016-.64l-1.5-1.392a.87.87 0 00-.624-.24h-8.292a.464.464 0 00-.464.464v10.316a.461.461 0 00.464.448H36.8a.87.87 0 00.624-.24zM59.66 0a.464.464 0 00-.464.464v4.144l-.032.048-3.884 5.552L51.552 4.8l-.048-.048V.464A.464.464 0 0051.04 0a.464.464 0 00-.464.464v4.144c-.016.016-.032.032-.032.048l-3.884 5.552L42.912 4.8c-.016-.016-.016-.032-.032-.048V.464A.464.464 0 0042.416 0a.464.464 0 00-.464.464v4.272a.951.951 0 00.224.608l4.1 5.936a.5.5 0 00.384.192.528.528 0 00.384-.192l3.952-5.664 3.92 5.664a.47.47 0 00.364.192.477.477 0 00.38-.192L59.9 5.2a.878.878 0 00.224-.592V.464A.464.464 0 0059.66 0zm27.568.1a.477.477 0 00-.384.192l-5.1 7.056L76.672.292A.5.5 0 0076.288.1h-1.616a.464.464 0 00-.464.464v10.444a.464.464 0 00.464.464.464.464 0 00.464-.464V1.024h.924l5.312 7.392a.47.47 0 00.368.192.5.5 0 00.384-.192l5.336-7.392h.912v9.984a.464.464 0 00.46.464.461.461 0 00.448-.464V.56a.451.451 0 00-.448-.464zM104 1.92c-.016-.032-.048-.048-.064-.08L102.448.48a.91.91 0 00-.592-.256h-7.28a.4.4 0 00-.128.016.854.854 0 00-.5.24L92.3 2a.516.516 0 00-.144.416V9.28a.516.516 0 00.144.416l.1.08a.125.125 0 00.064.064l1.488 1.376a.91.91 0 00.592.256h7.264c.048 0 .1-.016.128-.016a1.013 1.013 0 00.512-.24l1.632-1.52a.429.429 0 00.144-.416c0-.048.016-.08.016-.128V2.528l-.016-.112A.429.429 0 00104.08 2zm-2.192 8.624h-7.232l-1.488-1.392V2.544l1.488-1.392h7.248l1.488 1.376v6.624zm16.528.464l-.464-.464h-1.344l-1.824-3.712h1.168a.87.87 0 00.624-.24l1.5-1.376a1 1 0 00.288-.688V2.544a1 1 0 00-.288-.688l-1.5-1.376a.87.87 0 00-.624-.24h-8.288a.451.451 0 00-.464.448v10.32a.464.464 0 00.464.464.464.464 0 00.464-.464V6.832h5.632l2.1 4.256a.378.378 0 00.1.144.926.926 0 00.624.24h1.376a.464.464 0 00.456-.464zM108.048 5.92V1.152h7.824l1.488 1.392.016 1.984a.016.016 0 00-.016.016l-1.488 1.36v.016zm24.048 3.936a.474.474 0 00.016-.656.459.459 0 00-.652-.028l-1.492 1.388h-7.824V6.32h7.872a.451.451 0 00.448-.464.451.451 0 00-.448-.464h-7.872v-4.22h7.824l1.492 1.372a.459.459 0 00.656-.032.454.454 0 00-.016-.64L130.6.48a.87.87 0 00-.624-.24h-8.296a.464.464 0 00-.464.464v10.32a.461.461 0 00.464.448h8.288a.87.87 0 00.624-.24z" fill="#fff"/></svg>