<svg xmlns="http://www.w3.org/2000/svg" width="264.473" height="22.944"><path d="M12.448 22.944a.9.9 0 00.736-.384L24.672 6.688a.753.753 0 00.192-.544V.992a.929.929 0 00-.928-.928.929.929 0 00-.928.928v4.864l-10.56 14.588L1.856 5.856V.992A.929.929 0 00.928.064.929.929 0 000 .992v5.184a.727.727 0 00.192.512L11.68 22.56a.912.912 0 00.768.384zm27.1-1.856h-8a.929.929 0 00-.928.928.929.929 0 00.932.928h17.856a.929.929 0 00.928-.928.929.929 0 00-.928-.928h-8V2.044h8a.929.929 0 00.928-.928.929.929 0 00-.928-.928H31.552a.929.929 0 00-.928.928.929.929 0 00.928.928h8zm38.3-1.376a.948.948 0 00.032-1.312.919.919 0 00-1.312-.064L73.6 21.12H57.952v-8.476h15.744a.9.9 0 00.9-.928.9.9 0 00-.9-.928H57.952V2.34H73.6l2.976 2.752a.919.919 0 001.312-.064.908.908 0 00-.032-1.28L74.848.964A1.74 1.74 0 0073.6.484H57.02a.929.929 0 00-.928.928v20.632a.923.923 0 00.928.9H73.6a1.74 1.74 0 001.248-.48zM119.32 0a.929.929 0 00-.928.928v8.288l-.064.1-7.776 11.1L103.096 9.6l-.1-.1V.924a.929.929 0 00-.928-.928.929.929 0 00-.928.928v8.288c-.032.032-.064.064-.064.1l-7.776 11.1L85.82 9.6c-.032-.032-.032-.064-.064-.1V.924a.929.929 0 00-.928-.928.929.929 0 00-.928.928v8.544a1.9 1.9 0 00.448 1.216l8.196 11.876a1 1 0 00.768.384 1.056 1.056 0 00.768-.384l7.9-11.328 7.84 11.328a.939.939 0 00.74.384.954.954 0 00.768-.384l8.48-12.16a1.757 1.757 0 00.448-1.184V.928a.929.929 0 00-.928-.928zm55.136.192a.954.954 0 00-.768.384l-10.2 14.112L153.344.576a1 1 0 00-.768-.384h-3.232a.929.929 0 00-.928.928v20.9a.929.929 0 00.928.928.929.929 0 00.928-.928V2.044h1.856l10.624 14.788a.939.939 0 00.736.384 1 1 0 00.768-.384l10.656-14.788h1.824v19.972a.929.929 0 00.928.928.923.923 0 00.9-.928v-20.9a.9.9 0 00-.9-.928zM208 3.844c-.032-.064-.1-.1-.128-.16l-2.976-2.72a1.819 1.819 0 00-1.184-.512h-14.56a.8.8 0 00-.256.032 1.708 1.708 0 00-.992.48l-3.3 3.04a1.032 1.032 0 00-.288.832V18.56a1.032 1.032 0 00.288.832l.192.16a.25.25 0 00.128.128l2.976 2.752a1.819 1.819 0 001.188.512h14.532c.1 0 .192-.032.256-.032a2.027 2.027 0 001.024-.48l3.264-3.04a.859.859 0 00.288-.832c0-.1.032-.16.032-.256V5.056l-.032-.224a.859.859 0 00-.288-.832zm-4.38 17.244h-14.468l-2.976-2.784V5.088l2.976-2.784h14.5l2.976 2.752v13.248zm33.056.928l-.928-.928h-2.688l-3.652-7.424h2.336a1.74 1.74 0 001.248-.48L236 10.432a1.992 1.992 0 00.576-1.376V5.088A1.992 1.992 0 00236 3.712L232.992.96a1.74 1.74 0 00-1.248-.48h-16.576a.9.9 0 00-.928.9v20.636a.929.929 0 00.928.928.929.929 0 00.928-.928v-8.352h11.264l4.192 8.512a.756.756 0 00.192.288 1.851 1.851 0 001.248.48h2.752a.929.929 0 00.928-.928zm-20.58-10.172v-9.54h15.648l2.976 2.784.032 3.968a.031.031 0 00-.032.032l-2.976 2.72v.032zm48.1 7.872a.948.948 0 00.032-1.312.919.919 0 00-1.312-.064l-2.976 2.784h-15.652v-8.48h15.744a.9.9 0 00.9-.928.9.9 0 00-.9-.928h-15.744V2.34h15.648l2.976 2.752a.919.919 0 001.312-.064.908.908 0 00-.032-1.28L261.184.964a1.74 1.74 0 00-1.248-.48H243.36a.929.929 0 00-.928.928v20.632a.923.923 0 00.928.9h16.576a1.74 1.74 0 001.248-.48z" fill="#fff"/></svg>