<svg xmlns="http://www.w3.org/2000/svg" width="108" height="19"><path data-name="パス 36" d="M14.808 1.512a1.4 1.4 0 00-.96-.36H1.416a.7.7 0 00-.7.7v15.476a.676.676 0 00.7.672.676.676 0 00.7-.672v-6.264h11.736a1.325 1.325 0 00.936-.384l2.256-2.064a1.343 1.343 0 00.432-1.008v-3A1.343 1.343 0 0017.04 3.6zm1.3 3.1v3l-2.256 2.064H2.112V2.548h11.736zm6.38 13.412a.7.7 0 00.7-.7V10.08H37.18v7.248a.676.676 0 00.672.7.7.7 0 00.7-.7V1.656a.7.7 0 00-.7-.7.676.676 0 00-.672.7v7.032H23.184V1.656a.7.7 0 00-.7-.7.7.7 0 00-.7.7v15.672a.7.7 0 00.704.696zM60.624 3.672c-.024-.048-.072-.072-.1-.12L58.3 1.512a1.364 1.364 0 00-.888-.384H46.488a.6.6 0 00-.192.024 1.281 1.281 0 00-.744.36l-2.472 2.28a.774.774 0 00-.216.624v10.3a.774.774 0 00.216.624l.144.12a.187.187 0 00.1.1l2.228 2.056a1.364 1.364 0 00.888.384h10.9c.072 0 .144-.024.192-.024a1.52 1.52 0 00.768-.36l2.448-2.28a.644.644 0 00.216-.624c0-.072.024-.12.024-.192V4.584l-.024-.168a.644.644 0 00-.216-.624zm-3.288 12.936H46.488l-2.232-2.088V4.608l2.232-2.088H57.36l2.232 2.064v9.936zM75.072 18a.7.7 0 00.7-.7V2.232h8.376a.7.7 0 00.7-.7.7.7 0 00-.7-.7H66a.7.7 0 00-.7.7.7.7 0 00.7.7h8.376V17.3a.7.7 0 00.696.7zM106.92 3.672c-.024-.048-.072-.072-.1-.12l-2.232-2.04a1.364 1.364 0 00-.888-.384H92.784a.6.6 0 00-.192.024 1.281 1.281 0 00-.744.36l-2.472 2.28a.774.774 0 00-.216.624v10.3a.774.774 0 00.216.624l.144.12a.187.187 0 00.1.1l2.228 2.056a1.364 1.364 0 00.888.384h10.9c.072 0 .144-.024.192-.024a1.52 1.52 0 00.768-.36l2.448-2.28a.644.644 0 00.216-.624c0-.072.024-.12.024-.192V4.584l-.024-.168a.644.644 0 00-.216-.624zm-3.288 12.936H92.784l-2.232-2.088V4.608l2.232-2.088h10.872l2.232 2.064v9.936z" fill="#fff"/><g data-name="長方形 107" fill="none" stroke="rgba(0,0,0,0)"><path d="M0 0h108v19H0z" stroke="none"/><path d="M.5.5h107v18H.5z"/></g></svg>