<svg xmlns="http://www.w3.org/2000/svg" width="126" height="19"><path data-name="パス 37" d="M16.128 1.224a1.427 1.427 0 00-.96-.384H4.344a1.427 1.427 0 00-.96.384L1.152 3.288A1.379 1.379 0 00.7 4.32v1.968a1.379 1.379 0 00.456 1.032l2.232 2.064a1.415 1.415 0 00.936.384H14.98l2.256 2.064v2.712l-2.256 2.064H4.32l-2.448-2.28a.689.689 0 00-.984.048.711.711 0 00.024.984l2.472 2.28a1.516 1.516 0 00.936.36h10.656a1.4 1.4 0 00.96-.36l2.232-2.088a1.379 1.379 0 00.456-1.032v-2.664a1.419 1.419 0 00-.456-1.032l-2.232-2.088a1.4 1.4 0 00-.96-.36H4.32L2.088 6.312V4.32L4.32 2.232h10.872l2.448 2.28a.689.689 0 00.984-.048.681.681 0 00-.024-.96zm22.848 14.352a.711.711 0 00.024-.984.689.689 0 00-.984-.048l-2.232 2.088H24.048v-6.36h11.808a.676.676 0 00.672-.7.676.676 0 00-.672-.7H24.048V2.536h11.736L38.016 4.6A.689.689 0 0039 4.56a.681.681 0 00-.024-.96L36.72 1.512a1.3 1.3 0 00-.936-.36H23.352a.7.7 0 00-.7.7v15.476a.692.692 0 00.7.672h12.432a1.3 1.3 0 00.936-.36zm21.36 1.724l-.7-.7h-2.012l-2.736-5.56h1.752a1.3 1.3 0 00.936-.36l2.256-2.064a1.494 1.494 0 00.432-1.032V4.608a1.494 1.494 0 00-.432-1.032l-2.256-2.064a1.3 1.3 0 00-.936-.36H44.208a.676.676 0 00-.7.672V17.3a.7.7 0 00.7.7.7.7 0 00.7-.7v-6.26h8.448l3.144 6.384a.567.567 0 00.14.216 1.388 1.388 0 00.936.36h2.064a.7.7 0 00.696-.7zM44.9 9.672V2.52h11.74l2.232 2.088.024 2.976a.024.024 0 00-.024.024l-2.232 2.04v.024zM73.992 18a.673.673 0 00.552-.288l8.616-11.9a.565.565 0 00.14-.412V1.536a.7.7 0 00-.7-.7.7.7 0 00-.7.7v3.648l-7.908 10.944-7.944-10.944V1.536a.7.7 0 00-.7-.7.7.7 0 00-.7.7v3.888a.545.545 0 00.144.384l8.616 11.9a.684.684 0 00.584.292zm29.952-2.424a.711.711 0 00.024-.984.689.689 0 00-.984-.048l-2.232 2.088H89.016v-6.36h11.808a.676.676 0 00.672-.7.676.676 0 00-.672-.7H89.016V2.536h11.736l2.232 2.064a.689.689 0 00.984-.048.681.681 0 00-.024-.96l-2.256-2.088a1.3 1.3 0 00-.936-.36H88.32a.7.7 0 00-.7.7v15.484a.692.692 0 00.7.672h12.432a1.3 1.3 0 00.936-.36zM125.3 17.3l-.7-.7h-2.008l-2.736-5.56h1.752a1.3 1.3 0 00.936-.36l2.256-2.064a1.494 1.494 0 00.432-1.032V4.608a1.494 1.494 0 00-.432-1.032l-2.256-2.064a1.3 1.3 0 00-.936-.36h-12.432a.676.676 0 00-.7.672V17.3a.7.7 0 00.7.7.7.7 0 00.7-.7v-6.26h8.444l3.144 6.384a.567.567 0 00.144.216 1.388 1.388 0 00.936.36h2.064a.7.7 0 00.692-.7zm-15.428-7.628V2.52h11.736l2.232 2.088.024 2.976a.024.024 0 00-.024.024l-2.232 2.04v.024z" fill="#fff"/><g data-name="長方形 105" fill="none" stroke="rgba(0,0,0,0)"><path d="M0 0h126v19H0z" stroke="none"/><path d="M.5.5h125v18H.5z"/></g></svg>