<svg xmlns="http://www.w3.org/2000/svg" width="529.968" height="148.832"><path d="M69.264.192a2.786 2.786 0 00-2.784 2.784v51.356l-8.26 8.932H16.08l-8.352-8.932V2.972A2.786 2.786 0 004.944.192 2.786 2.786 0 002.16 2.976v51.356a5.658 5.658 0 001.536 3.744l8.256 8.928a5.675 5.675 0 004.128 1.828h42.048a5.518 5.518 0 004.128-1.824l8.256-8.928a5.553 5.553 0 001.44-3.744V2.976A2.706 2.706 0 0069.264.192zm77.856 68.64a5.219 5.219 0 003.744-1.44l9.888-9.12a2.76 2.76 0 00.192-3.936 2.757 2.757 0 00-3.936-.192l-9.888 9.12h-43.392l-9.024-8.256V15.264l9.024-8.352h43.392l9.888 9.12a2.753 2.753 0 003.936-.1 2.757 2.757 0 00-.192-3.936l-9.888-9.12a5.219 5.219 0 00-3.744-1.44h-43.392a5.219 5.219 0 00-3.744 1.44l-9.024 8.256a5.583 5.583 0 00-1.728 4.128v39.744a5.583 5.583 0 001.728 4.128l9.024 8.256a5.219 5.219 0 003.744 1.444zm34.656.1a2.786 2.786 0 002.784-2.784V37.152h55.968v28.992a2.706 2.706 0 002.692 2.788 2.786 2.786 0 002.784-2.784V3.456A2.786 2.786 0 00243.22.672a2.706 2.706 0 00-2.688 2.784v28.128H184.56V3.456a2.786 2.786 0 00-2.784-2.784 2.786 2.786 0 00-2.784 2.784v62.688a2.786 2.786 0 002.784 2.788zm108.288-5.668h-24a2.786 2.786 0 00-2.784 2.784 2.786 2.786 0 002.784 2.784h53.568a2.786 2.786 0 002.788-2.784 2.786 2.786 0 00-2.784-2.784h-24V6.144h24a2.786 2.786 0 002.784-2.784 2.786 2.786 0 00-2.784-2.784h-53.572a2.786 2.786 0 00-2.784 2.784 2.786 2.786 0 002.784 2.784h24zM445.964 0a2.786 2.786 0 00-2.784 2.784v24.864l-.192.288-23.324 33.312L397.296 28.8l-.288-.288V2.784A2.786 2.786 0 00394.224 0a2.786 2.786 0 00-2.784 2.784v24.864c-.1.1-.192.192-.192.288L367.92 61.248 345.456 28.8c-.1-.1-.1-.192-.192-.288V2.784A2.786 2.786 0 00342.48 0a2.786 2.786 0 00-2.784 2.784v25.632a5.705 5.705 0 001.344 3.648l24.58 35.616a3.007 3.007 0 002.3 1.152 3.167 3.167 0 002.3-1.152l23.712-33.984 23.52 33.984a2.818 2.818 0 002.212 1.152 2.861 2.861 0 002.3-1.152l25.44-36.48a5.269 5.269 0 001.344-3.552V2.784A2.786 2.786 0 00445.968 0zm74.208 3.36a5.229 5.229 0 00-4.032-1.728h-36.284a5.435 5.435 0 00-4.128 1.728l-8.256 8.832a5.617 5.617 0 00-1.44 3.84v50.112a2.683 2.683 0 002.688 2.688 2.706 2.706 0 002.784-2.688v-24.96h52.9v24.96a2.706 2.706 0 002.78 2.688 2.706 2.706 0 002.784-2.688V16.032a6.116 6.116 0 00-1.44-3.84zM471.6 16.032l8.16-8.928c0-.1 0-.1.1-.1h36.288a.094.094 0 01.1.1l8.16 8.928v19.584h-52.9V16.032zm-.1 20.064c.1 0 .1.1 0 .1zm52.9.1c-.1 0-.1-.1 0-.1zm-52.9 4.416c.1.192.1.192 0 .288zm52.9.288c-.1-.1-.1-.1 0-.288zM25.326 148.832a2.283 2.283 0 001.638-.63l4.326-3.99a1.22 1.22 0 00-1.638-1.806l-4.326 3.99H6.342l-3.948-3.612v-17.388l3.948-3.654h18.984l4.326 3.99a1.204 1.204 0 101.638-1.764l-4.326-3.99a2.283 2.283 0 00-1.638-.63H6.342a2.283 2.283 0 00-1.638.63L.756 123.59A2.443 2.443 0 000 125.396v17.388a2.443 2.443 0 00.756 1.806l3.948 3.612a2.283 2.283 0 001.638.63zm41.286-1.218l-1.218-1.218h-3.528l-4.788-9.744h3.066a2.283 2.283 0 001.638-.63l3.948-3.612a2.614 2.614 0 00.756-1.806v-5.208a2.614 2.614 0 00-.756-1.806l-3.948-3.612a2.283 2.283 0 00-1.638-.63H38.388a1.184 1.184 0 00-1.218 1.176v27.09a1.218 1.218 0 102.436 0v-10.962H54.39l5.5 11.172a.992.992 0 00.252.378 2.43 2.43 0 001.638.63h3.612a1.219 1.219 0 001.22-1.218zm-27.006-13.356v-12.516h20.538l3.906 3.654.042 5.208a.041.041 0 00-.042.042l-3.906 3.57v.042zm61.026 10.332a1.244 1.244 0 00.042-1.722 1.206 1.206 0 00-1.722-.084l-3.906 3.654H74.508v-11.13h20.664a1.219 1.219 0 000-2.436H74.508v-11.088h20.538l3.906 3.612a1.206 1.206 0 001.722-.084 1.192 1.192 0 00-.042-1.68l-3.948-3.654a2.283 2.283 0 00-1.638-.63H73.29a1.219 1.219 0 00-1.218 1.218v27.09a1.211 1.211 0 001.218 1.176h21.756a2.283 2.283 0 001.638-.63zm29.526-24.4a2.288 2.288 0 00-1.764-.756H112.52a2.378 2.378 0 00-1.806.756l-3.614 3.862a2.458 2.458 0 00-.63 1.68v21.924a1.2 1.2 0 002.394 0v-10.924h23.142v10.92a1.219 1.219 0 002.436 0v-21.92a2.676 2.676 0 00-.63-1.68zm-21.252 5.542l3.57-3.906c0-.042 0-.042.042-.042h15.876a.041.041 0 01.042.042l3.57 3.906v8.568h-23.142v-8.568zm-.042 8.778c.042 0 .042.042 0 .042zm23.142.042c-.042 0-.042-.042 0-.042zm-23.142 1.932c.042.084.042.084 0 .126zm23.142.126c-.042-.042-.042-.042 0-.126zm24.99 12.222a1.219 1.219 0 001.218-1.218v-26.376h14.658a1.218 1.218 0 100-2.436H141.12a1.218 1.218 0 100 2.436h14.658v26.376a1.219 1.219 0 001.218 1.218zm34.272-2.436h-10.5a1.218 1.218 0 100 2.436h23.436a1.218 1.218 0 100-2.436h-10.5v-24.99h10.5a1.218 1.218 0 100-2.436h-23.436a1.218 1.218 0 100 2.436h10.5zm35.952 2.436a1.177 1.177 0 00.966-.5l15.078-20.832a.988.988 0 00.252-.714v-6.766a1.218 1.218 0 00-2.436 0v6.384l-13.86 19.152-13.9-19.152v-6.384a1.218 1.218 0 00-2.436 0v6.8a.954.954 0 00.252.672l15.076 20.84a1.2 1.2 0 001.008.5zm50.316-4.242a1.244 1.244 0 00.042-1.722 1.206 1.206 0 00-1.722-.084l-3.906 3.654h-20.538v-11.13h20.664a1.219 1.219 0 000-2.436h-20.664v-11.088h20.538l3.906 3.612a1.206 1.206 0 001.722-.084 1.192 1.192 0 00-.042-1.68l-3.948-3.654a2.283 2.283 0 00-1.638-.63h-21.756a1.219 1.219 0 00-1.218 1.218v27.09a1.211 1.211 0 001.218 1.176h21.756a2.283 2.283 0 001.638-.63zm60.144-25.116a2.5 2.5 0 00-1.68-.672h-18.942a2.5 2.5 0 00-1.68.672l-3.906 3.612a2.414 2.414 0 00-.8 1.806v3.44a2.414 2.414 0 00.8 1.806l3.906 3.612a2.475 2.475 0 001.638.672h18.648l3.948 3.612v4.746l-3.948 3.612H317.02l-4.284-3.99a1.206 1.206 0 00-1.722.084 1.244 1.244 0 00.042 1.722l4.326 3.99a2.654 2.654 0 001.638.634h18.648a2.458 2.458 0 001.68-.63l3.906-3.654a2.414 2.414 0 00.8-1.806v-4.662a2.483 2.483 0 00-.8-1.806l-3.906-3.654a2.458 2.458 0 00-1.68-.63H317.02l-3.906-3.612v-3.486l3.906-3.654h19.026l4.284 3.99a1.206 1.206 0 001.722-.084 1.191 1.191 0 00-.042-1.68zm26.418 29.358a1.219 1.219 0 001.222-1.218v-26.376h14.658a1.218 1.218 0 100-2.436H348.22a1.218 1.218 0 100 2.436h14.66v26.376a1.219 1.219 0 001.218 1.218zm51.912-30.03a1.219 1.219 0 00-1.218 1.218v22.47l-3.612 3.906h-18.438l-3.654-3.906v-22.47a1.218 1.218 0 00-2.436 0v22.47a2.475 2.475 0 00.668 1.642l3.612 3.906a2.483 2.483 0 001.806.8h18.4a2.414 2.414 0 001.806-.8l3.612-3.906a2.43 2.43 0 00.63-1.638V120.02a1.184 1.184 0 00-1.176-1.218zm37.086 25.746a2.392 2.392 0 00.8-1.764v-17.388a2.414 2.414 0 00-.8-1.806l-3.906-3.612a2.43 2.43 0 00-1.638-.63h-23.688a1.184 1.184 0 00-1.218 1.176v27.09a1.219 1.219 0 001.218 1.218h23.646a2.458 2.458 0 001.68-.63zm-28.014 1.848v-24.654h22.47l3.906 3.612v17.43l-3.906 3.612h-22.47zm45.99 0h-10.5a1.218 1.218 0 100 2.436h23.436a1.218 1.218 0 000-2.436h-10.5v-24.99h10.5a1.218 1.218 0 000-2.436h-23.436a1.218 1.218 0 100 2.436h10.5zm50.694-22.638c-.042-.084-.126-.126-.168-.21l-3.906-3.57a2.388 2.388 0 00-1.554-.672h-19.11a1.044 1.044 0 00-.336.042 2.242 2.242 0 00-1.3.63l-4.326 3.99a1.354 1.354 0 00-.378 1.092v18.018a1.354 1.354 0 00.378 1.092l.252.21a.328.328 0 00.168.168l3.906 3.612a2.388 2.388 0 001.554.672h19.068c.126 0 .252-.042.336-.042a2.66 2.66 0 001.344-.63l4.284-3.99a1.127 1.127 0 00.378-1.092c0-.126.042-.21.042-.336v-17.388l-.042-.294a1.127 1.127 0 00-.378-1.092zm-5.754 22.638h-18.984l-3.908-3.654v-17.346l3.906-3.654h19.026l3.906 3.612v17.388z" fill="#fff"/></svg>