<svg xmlns="http://www.w3.org/2000/svg" width="300" height="300"><path d="M69.169 86.229a2.733 2.733 0 002.071-.781L85.293 71.4a2.759 2.759 0 00.815-2.1l-.238-6.085a2.777 2.777 0 00-.815-1.833L65.911 42.237a1.353 1.353 0 00-1.935-.034L42.082 64.1a1.393 1.393 0 000 1.969l19.111 19.11a2.81 2.81 0 001.867.849zM45.035 65.082L64.96 45.157l18.16 18.16.238 6.076-14.087 14.086-6.071-.237-.034-.034zm57.328 54.409a1.422 1.422 0 001.426-1.358 1.379 1.379 0 00-1.324-1.46l-6.11-.2-16.6-16.6 9-9 16.7 16.7a1.393 1.393 0 001.969-1.968l-16.7-16.7 8.961-8.961 16.6 16.6.238 6.076a1.378 1.378 0 001.459 1.324 1.363 1.363 0 001.324-1.391l-.237-6.144a2.611 2.611 0 00-.815-1.833l-17.588-17.583a1.393 1.393 0 00-1.969 0l-10.93 10.93L76.8 98.887a1.383 1.383 0 00.034 1.934L94.42 118.4a2.607 2.607 0 001.833.815zm51.932 11.334a2.855 2.855 0 00-.815-1.9l-15.309-15.309a2.854 2.854 0 00-1.9-.814l-6.076-.238a2.759 2.759 0 00-2.1.815l-2.784 2.783a2.759 2.759 0 00-.814 2.105l.237 6.076a2.832 2.832 0 00.781 1.867l15.071 15.071.272 6.11-3.8 3.8-.034.034-6.11-.271-15.071-15.071-.243-6.683a1.377 1.377 0 00-1.459-1.324 1.422 1.422 0 00-1.358 1.426l.272 6.72a3.033 3.033 0 00.814 1.833l15.071 15.072a2.813 2.813 0 001.867.848l6.11.2a2.76 2.76 0 002.105-.815l3.768-3.768a2.836 2.836 0 00.814-2.1l-.2-6.11a2.81 2.81 0 00-.849-1.867l-15.076-15.075-.238-6.076.034-.034 2.784-2.783 6.11.2.034.034 15.308 15.309.034.034.238 6.687a1.378 1.378 0 001.459 1.324 1.362 1.362 0 001.324-1.392zm.336 43.852l-8.486-8.486a1.392 1.392 0 00-1.969 1.969l18.941 18.94a1.392 1.392 0 001.968-1.969l-8.486-8.486 20.2-20.2 8.486 8.486a1.392 1.392 0 101.969-1.968l-18.944-18.937a1.392 1.392 0 00-1.969 1.974l8.486 8.486zm23.283 26.2a2.609 2.609 0 00.814 1.833l15.343 15.343a2.832 2.832 0 001.833.815l6.721.271a1.486 1.486 0 001.052-.441l7.434-7.434a1.383 1.383 0 00.034-1.934L199.3 197.485a1.392 1.392 0 00-1.968 1.969l10.862 10.862-6.042 6.042-6.11-.272-15.342-15.342-.271-6.11 14.052-14.053 6.144.238 15.343 15.342.272 6.721a1.376 1.376 0 102.749-.1l-.272-6.721a2.613 2.613 0 00-.814-1.833l-15.343-15.342a2.61 2.61 0 00-1.833-.815l-6.11-.271a2.789 2.789 0 00-2.07.848L178.491 192.7a2.793 2.793 0 00-.849 2.071zm80.07 32.821a1.392 1.392 0 00-1.968 0l-21.181 21.181-1.9-1.9 4.548-39.035a1.435 1.435 0 00-.407-1.154l-3.225-3.225a1.394 1.394 0 00-1.969 0l-22.165 22.165a1.392 1.392 0 001.969 1.969l21.181-21.181 1.8 1.731-4.583 39.07a1.365 1.365 0 00.408 1.154l3.36 3.36a1.394 1.394 0 001.969 0l22.165-22.165a1.392 1.392 0 00-.002-1.968z" fill="#fff" fill-rule="evenodd"/></svg>