<svg xmlns="http://www.w3.org/2000/svg" width="300" height="300"><path d="M60.622 43.721a1.161 1.161 0 00-1.64 0l-7.324 7.324-.141.028-16.686 2.942L37.8 37.867V37.7l7.579-7.579a1.16 1.16 0 10-1.64-1.64L36.415 35.8a.212.212 0 00-.141.028l-16.686 2.944L22.529 22.6c0-.056.028-.085.028-.141l7.579-7.579a1.16 1.16 0 00-1.64-1.64l-7.551 7.551a2.377 2.377 0 00-.679 1.471l-3.251 17.726a1.253 1.253 0 00.339 1.018 1.32 1.32 0 001.018.339l17-3.026-3.086 16.94a1.174 1.174 0 00.311.99 1.192 1.192 0 001.018.339l18.24-3.252a2.2 2.2 0 001.442-.65l7.324-7.324a1.161 1.161 0 00.001-1.641zM86.9 76.786c.028-.085 0-.17.028-.254L86.7 71.5a2.274 2.274 0 00-.594-1.5l-.085-.085-12.78-12.783a.993.993 0 00-.254-.2 2.135 2.135 0 00-1.3-.453l-5.6-.226a1.29 1.29 0 00-.99.481l-.226.226-11.708 11.71-.2.2a1.29 1.29 0 00-.481.99l.028.311a.313.313 0 000 .226l.2 5.062a2.273 2.273 0 00.594 1.5l.056.056 12.783 12.78c.085.085.2.141.255.2a2.533 2.533 0 001.329.481l5.571.2a1.073 1.073 0 00.99-.481c.085-.085.17-.113.254-.2l11.708-11.71.17-.226a1.073 1.073 0 00.481-.99v-.283zM67.783 88.154L55 75.372l-.17-5.09L66.51 58.6l5.09.17 12.783 12.784.028.028.2 5.062L72.9 88.352zm31.225 32.866v-1.64L96.633 117l3.337-9.785 2.064 2.065a2.175 2.175 0 001.527.678l5.091.227a2.492 2.492 0 001.725-.707l3.506-3.507a2.486 2.486 0 00.707-1.725l-.226-5.09a2.171 2.171 0 00-.679-1.527L99.037 82.984a1.127 1.127 0 00-1.612-.028L79.184 101.2a1.16 1.16 0 001.64 1.64l7.381-7.381 9.954 9.954-3.818 11.227a.95.95 0 00-.085.425 2.315 2.315 0 00.679 1.527l2.432 2.432a1.161 1.161 0 001.641-.004zm-9.191-27.177l8.427-8.427 13.828 13.829.17 5.09-3.478 3.535a.039.039 0 00-.057 0l-5.034-.226-.028.028zm39.683 53.538a2.277 2.277 0 001.725-.651l11.708-11.708a2.3 2.3 0 00.678-1.753l-.2-5.062a2.311 2.311 0 00-.678-1.527l-15.95-15.95a1.128 1.128 0 00-1.612-.028l-18.24 18.24a1.161 1.161 0 000 1.641l15.921 15.917a2.341 2.341 0 001.556.707zm-20.107-17.618l16.6-16.6 15.13 15.13.2 5.062-11.74 11.735-5.062-.2-.029-.028zM171.1 155.9a2.343 2.343 0 00-.707-1.555l-14.649-14.649a1.161 1.161 0 00-1.64 0l-18.241 18.24a1.161 1.161 0 001.641 1.641l7.381-7.381 13.828 13.828a2.205 2.205 0 001.556.651l5.09.226a2.24 2.24 0 001.7-.679l3.535-3.535a2.236 2.236 0 00.678-1.7zm-2.121 5.176l-3.535 3.534-5.09-.226-13.829-13.828 8.4-8.4 13.829 13.828zm14.4 44.318v-1.64L181 201.375l3.337-9.784 2.065 2.064a2.174 2.174 0 001.527.679l5.09.226a2.486 2.486 0 001.725-.707l3.507-3.507a2.489 2.489 0 00.707-1.725l-.227-5.09a2.175 2.175 0 00-.678-1.527l-14.649-14.649a1.127 1.127 0 00-1.612-.028l-18.24 18.24a1.16 1.16 0 001.64 1.64l7.381-7.381 9.954 9.955-3.817 11.227a.936.936 0 00-.085.424 2.315 2.315 0 00.678 1.527l2.432 2.432a1.161 1.161 0 001.645 0zm-9.191-27.176l8.427-8.428 13.829 13.829.169 5.09-3.478 3.535a.039.039 0 00-.056 0l-5.034-.226-.028.028zm38.38 52.293a1.184 1.184 0 001.187-1.131 1.147 1.147 0 00-1.1-1.216l-5.09-.17-13.829-13.829 7.494-7.494 13.914 13.914a1.161 1.161 0 001.64-1.641l-13.913-13.913 7.465-7.466 13.829 13.829.2 5.062a1.149 1.149 0 001.216 1.1 1.136 1.136 0 001.1-1.16l-.2-5.118a2.17 2.17 0 00-.679-1.527L211.155 195.1a1.161 1.161 0 00-1.641 0l-9.106 9.106-9.134 9.134a1.154 1.154 0 00.028 1.612l14.649 14.648a2.176 2.176 0 001.527.679zm43.272 9.45a2.383 2.383 0 00-.679-1.584l-12.753-12.757a2.383 2.383 0 00-1.584-.679l-5.062-.2a2.3 2.3 0 00-1.753.679l-2.319 2.319a2.3 2.3 0 00-.679 1.753l.2 5.062a2.362 2.362 0 00.651 1.556l12.556 12.556.226 5.09-3.167 3.167-.029.029-5.09-.227-12.558-12.554-.2-5.571a1.149 1.149 0 00-1.216-1.1 1.185 1.185 0 00-1.131 1.188l.226 5.6a2.531 2.531 0 00.679 1.528l12.556 12.556a2.343 2.343 0 001.555.707l5.091.169a2.3 2.3 0 001.753-.678l3.139-3.139a2.369 2.369 0 00.679-1.754l-.17-5.09a2.338 2.338 0 00-.707-1.555L233.5 234.471l-.2-5.062.028-.028 2.319-2.319 5.09.17.029.028 12.754 12.754.028.028.2 5.572a1.148 1.148 0 001.216 1.1 1.134 1.134 0 001.1-1.159zm28.708 28.708a2.378 2.378 0 00-.679-1.584l-12.754-12.754a2.383 2.383 0 00-1.584-.679l-5.062-.2a2.3 2.3 0 00-1.753.679l-2.319 2.319a2.3 2.3 0 00-.679 1.753l.2 5.062a2.362 2.362 0 00.651 1.556l12.556 12.556.226 5.09-3.167 3.168-.028.028-5.091-.226-12.556-12.557-.2-5.571a1.147 1.147 0 00-1.216-1.1 1.184 1.184 0 00-1.131 1.187l.226 5.6a2.531 2.531 0 00.679 1.527l12.556 12.556a2.34 2.34 0 001.555.707l5.091.169a2.3 2.3 0 001.753-.678l3.139-3.139a2.365 2.365 0 00.679-1.754l-.17-5.09a2.338 2.338 0 00-.707-1.555l-12.555-12.559-.2-5.062.028-.029 2.319-2.319 5.091.17.028.028 12.754 12.754.028.029.2 5.571a1.149 1.149 0 001.216 1.1 1.135 1.135 0 001.1-1.16z" fill="#fff" fill-rule="evenodd"/></svg>