<svg xmlns="http://www.w3.org/2000/svg" width="300" height="300"><path d="M41.331 64.983a2.61 2.61 0 001.833.815l6.721.272a1.393 1.393 0 00.136-2.783l-6.721-.273-15.343-15.343-.272-6.11 14.053-14.053 6.144.238 15.343 15.343.275 6.721a1.376 1.376 0 102.75-.1l-.272-6.721a2.61 2.61 0 00-.815-1.833L49.817 25.811A2.61 2.61 0 0047.984 25l-6.11-.271a2.791 2.791 0 00-2.07.849L25.751 39.626A2.792 2.792 0 0024.9 41.7l.272 6.11a2.61 2.61 0 00.815 1.833zM101.375 84.5c.033-.1 0-.2.033-.305l-.271-6.042a2.73 2.73 0 00-.713-1.8l-.1-.1L84.98 60.906a1.2 1.2 0 00-.306-.238 2.563 2.563 0 00-1.561-.543l-6.721-.271a1.548 1.548 0 00-1.188.577l-.272.272-14.053 14.052-.238.238a1.548 1.548 0 00-.577 1.188l.036.373a.374.374 0 000 .272l.236 6.074a2.728 2.728 0 00.713 1.8l.068.068 15.343 15.343c.1.1.238.17.306.238a3.045 3.045 0 001.6.577l6.687.238a1.289 1.289 0 001.188-.577c.1-.1.2-.136.305-.238L100.594 86.3l.2-.272a1.291 1.291 0 00.577-1.188v-.34zM78.428 98.143L63.086 82.8l-.2-6.11L76.9 62.671l6.11.2 15.344 15.346.034.034.238 6.076L84.572 98.38zm61.945 17.613a1.394 1.394 0 00-1.969 0l-21.181 21.181-1.9-1.9L119.871 96a1.434 1.434 0 00-.408-1.154l-3.224-3.225a1.393 1.393 0 00-1.969 0L92.1 113.787a1.392 1.392 0 001.969 1.969l21.181-21.181 1.8 1.731-4.582 39.07a1.367 1.367 0 00.407 1.154l3.361 3.36a1.391 1.391 0 001.968 0l22.166-22.165a1.394 1.394 0 00.003-1.969zm6.82 55.088a2.61 2.61 0 001.833.815l6.72.271a1.393 1.393 0 10.136-2.783l-6.721-.271-15.342-15.343-.272-6.11L147.6 133.37l6.144.238 15.343 15.342.271 6.721a1.376 1.376 0 102.75-.1l-.272-6.72a2.61 2.61 0 00-.815-1.833l-15.342-15.343a2.612 2.612 0 00-1.833-.815l-6.11-.271a2.792 2.792 0 00-2.071.848l-14.053 14.053a2.792 2.792 0 00-.848 2.071l.271 6.11a2.614 2.614 0 00.815 1.833zm41.17 34.314a1.422 1.422 0 001.426-1.357 1.379 1.379 0 00-1.324-1.46l-6.11-.2-16.6-16.6 9-8.995 16.7 16.7a1.393 1.393 0 001.969-1.969l-16.7-16.7 8.961-8.961 16.6 16.6.238 6.076a1.379 1.379 0 001.46 1.324 1.363 1.363 0 001.323-1.392l-.237-6.144a2.614 2.614 0 00-.815-1.833l-17.588-17.587a1.394 1.394 0 00-1.969 0l-10.93 10.93-10.967 10.964a1.383 1.383 0 00.033 1.935l17.583 17.583a2.614 2.614 0 001.833.815zM237.987 215a2.81 2.81 0 00-.849-1.867l-17.583-17.583a1.394 1.394 0 00-1.969 0l-21.894 21.894a1.393 1.393 0 001.969 1.969l8.86-8.859 16.6 16.6a2.651 2.651 0 001.867.781l6.11.271a2.687 2.687 0 002.037-.814l4.243-4.243a2.687 2.687 0 00.814-2.037zm-2.546 6.212l-4.243 4.243-6.11-.272-16.6-16.6 10.083-10.083 16.6 16.6zm6.311 44.192a1.392 1.392 0 001.968 0l21.317-21.317 11.847 11.847a1.392 1.392 0 101.968-1.969L253.191 228.3a1.392 1.392 0 00-1.969 1.969l11.846 11.847-21.316 21.317a1.391 1.391 0 000 1.967z" fill="#fff" fill-rule="evenodd"/></svg>