<svg xmlns="http://www.w3.org/2000/svg" width="328.288" height="68.64"><path d="M65.28 58.848a5.374 5.374 0 001.728-4.032v-12a5.374 5.374 0 00-1.728-4.032l-7.776-7.2 6.912-6.432a5.675 5.675 0 001.824-4.128v-5.952a5.518 5.518 0 00-1.824-4.132l-8.928-8.256a5.553 5.553 0 00-3.744-1.44H2.784A2.706 2.706 0 000 3.94v61.92a2.786 2.786 0 002.784 2.78h49.728a5.617 5.617 0 003.84-1.44zM51.744 6.72l8.928 8.256v6.048l-8.544 7.968H5.568V6.72zM5.568 63.072V34.848H52.8l8.736 7.968v12l-9.024 8.256zM147.84 58.08a2.76 2.76 0 00.192-3.936 2.757 2.757 0 00-3.936-.192l-9.792 9.12h-35.52l-9.024-8.256V2.784A2.786 2.786 0 0086.976 0a2.768 2.768 0 00-2.688 2.784v52.032a5.583 5.583 0 001.728 4.124l9.024 8.26a5.219 5.219 0 003.744 1.44h35.424a5.617 5.617 0 003.84-1.44zm89.28-46.752c-.1-.192-.288-.288-.384-.48l-8.928-8.16a5.457 5.457 0 00-3.552-1.536h-43.68a2.386 2.386 0 00-.768.1 5.125 5.125 0 00-2.976 1.44l-9.888 9.12a3.1 3.1 0 00-.864 2.5v41.184a3.1 3.1 0 00.864 2.5l.576.48a.75.75 0 00.384.384l8.928 8.256a5.457 5.457 0 003.552 1.524h43.584c.288 0 .576-.1.768-.1a6.081 6.081 0 003.072-1.44l9.792-9.12a2.576 2.576 0 00.864-2.5c0-.288.1-.48.1-.768V14.976l-.1-.672a2.576 2.576 0 00-.864-2.5zm-13.152 51.744h-43.392l-8.928-8.352V15.072l8.928-8.352h43.484l8.928 8.256V54.72zm42.624 4.128a5.219 5.219 0 003.744 1.44h43.392a5.661 5.661 0 003.744-1.44l9.888-9.12a2.978 2.978 0 00.864-2.112V34.94a2.768 2.768 0 00-2.688-2.784h-33.5a2.786 2.786 0 00-2.784 2.784 2.786 2.786 0 002.784 2.784h30.72v17.088l-9.024 8.256h-43.396l-9.024-8.256v-39.74l9.024-8.352h43.392l9.888 9.12a2.753 2.753 0 003.936-.1 2.757 2.757 0 00-.192-3.936l-9.888-9.12a5.219 5.219 0 00-3.744-1.44h-43.392a5.219 5.219 0 00-3.744 1.44l-9.024 8.256a5.583 5.583 0 00-1.728 4.128v39.744a5.583 5.583 0 001.728 4.128z" fill="#fff"/></svg>