<svg xmlns="http://www.w3.org/2000/svg" width="457.706" height="68.832"><path d="M106.272 0a2.786 2.786 0 00-2.784 2.784v24.864l-.192.288-23.328 33.312L57.6 28.8l-.288-.288V2.784A2.786 2.786 0 0054.528 0a2.786 2.786 0 00-2.784 2.784v24.864c-.1.1-.192.192-.192.288L28.224 61.248 5.76 28.8c-.1-.1-.1-.192-.192-.288V2.784A2.786 2.786 0 002.784 0 2.786 2.786 0 000 2.784v25.632a5.705 5.705 0 001.344 3.648L25.92 67.68a3.007 3.007 0 002.304 1.152 3.167 3.167 0 002.3-1.152L54.24 33.696 77.76 67.68a2.818 2.818 0 002.208 1.152 2.861 2.861 0 002.3-1.152l25.44-36.48a5.269 5.269 0 001.344-3.552V2.784A2.786 2.786 0 00106.272 0zm91.1 11.52c-.1-.192-.288-.288-.384-.48l-8.928-8.16a5.457 5.457 0 00-3.552-1.536h-43.68a2.386 2.386 0 00-.768.1 5.125 5.125 0 00-2.976 1.44l-9.888 9.12a3.1 3.1 0 00-.864 2.5v41.184a3.1 3.1 0 00.864 2.5l.576.48a.75.75 0 00.384.384l8.928 8.256a5.457 5.457 0 003.556 1.524h43.584c.288 0 .576-.1.768-.1a6.08 6.08 0 003.072-1.44l9.792-9.12a2.576 2.576 0 00.864-2.5c0-.288.1-.48.1-.768V15.168l-.1-.672a2.576 2.576 0 00-.864-2.5zm-13.148 51.744h-43.392l-8.928-8.352V15.264l8.928-8.352h43.488l8.928 8.256v39.744zm99.168 2.784l-2.784-2.784h-8.064L261.6 40.992h7.008a5.219 5.219 0 003.744-1.44l9.024-8.256a5.975 5.975 0 001.728-4.128v-11.9a5.975 5.975 0 00-1.728-4.128l-9.024-8.256a5.219 5.219 0 00-3.744-1.44H218.88a2.706 2.706 0 00-2.784 2.688v61.92a2.786 2.786 0 002.784 2.78 2.786 2.786 0 002.78-2.784V40.992h33.8l12.572 25.54a2.267 2.267 0 00.576.864 5.553 5.553 0 003.744 1.436h8.256a2.786 2.786 0 002.784-2.784zM221.66 35.52V6.912h46.944l8.928 8.352.1 11.9a.094.094 0 00-.1.1l-8.928 8.16v.1zm79.008 12.384v18.144a2.786 2.786 0 002.792 2.784 2.786 2.786 0 002.784-2.784V49.632l27.84-12.192 18.62 29.376.48.576a5.553 5.553 0 003.744 1.44h8.256a2.786 2.786 0 002.784-2.784 2.786 2.786 0 00-2.784-2.784h-8.16l-17.856-28.032 24.96-10.944h.1a5.979 5.979 0 003.456-4.992V4.132a2.625 2.625 0 00-2.688-2.688 2.706 2.706 0 00-2.784 2.688v14.88c-.1.1-.192.192-.288.192l-55.684 24.38V4.132a2.706 2.706 0 00-2.784-2.688 2.706 2.706 0 00-2.784 2.688zM446.976 1.732a5.708 5.708 0 00-3.84-1.536h-43.3a5.708 5.708 0 00-3.84 1.536l-8.928 8.256a5.518 5.518 0 00-1.824 4.128v7.872a5.518 5.518 0 001.824 4.128l8.928 8.256a5.658 5.658 0 003.744 1.536h42.624l9.024 8.256v10.848l-9.024 8.256h-42.62l-9.792-9.12a2.757 2.757 0 00-3.936.192 2.843 2.843 0 00.1 3.936l9.888 9.12a6.066 6.066 0 003.74 1.436h42.624a5.617 5.617 0 003.84-1.44l8.928-8.352a5.518 5.518 0 001.824-4.128V44.256a5.675 5.675 0 00-1.824-4.128l-8.928-8.352a5.617 5.617 0 00-3.84-1.44h-42.624l-8.928-8.256v-7.968l8.928-8.352h43.488l9.792 9.12a2.757 2.757 0 003.936-.192 2.723 2.723 0 00-.1-3.84z" fill="#fff"/></svg>