<svg xmlns="http://www.w3.org/2000/svg" width="615.168" height="68.64"><path d="M57.888 68.64a5.219 5.219 0 003.744-1.44l9.888-9.12a2.76 2.76 0 00.192-3.936 2.757 2.757 0 00-3.936-.192l-9.888 9.12H14.496l-9.024-8.256V15.072l9.024-8.352h43.392l9.888 9.12a2.753 2.753 0 003.936-.1 2.757 2.757 0 00-.192-3.936l-9.888-9.12a5.219 5.219 0 00-3.744-1.44H14.496a5.219 5.219 0 00-3.744 1.44L1.728 10.94A5.583 5.583 0 000 15.072v39.744a5.583 5.583 0 001.728 4.124l9.024 8.26a5.219 5.219 0 003.744 1.44zM160.8 11.328c-.1-.192-.288-.288-.384-.48l-8.928-8.16a5.457 5.457 0 00-3.552-1.536H104.26a2.386 2.386 0 00-.768.1 5.125 5.125 0 00-2.976 1.44l-9.888 9.12a3.1 3.1 0 00-.864 2.5v41.184a3.1 3.1 0 00.864 2.5l.576.48a.75.75 0 00.384.384l8.928 8.256a5.457 5.457 0 003.544 1.524h43.584c.288 0 .576-.1.768-.1a6.081 6.081 0 003.072-1.44l9.792-9.12a2.576 2.576 0 00.864-2.5c0-.288.1-.48.1-.768V14.976l-.1-.672a2.576 2.576 0 00-.864-2.5zm-13.152 51.744H104.26l-8.932-8.352V15.072l8.932-8.352h43.488l8.928 8.256V54.72zM250.56.384a2.786 2.786 0 00-2.784 2.784v59.9H242.4L193.632 1.44a2.87 2.87 0 00-2.208-1.056h-9.12a2.786 2.786 0 00-2.784 2.784v62.688a2.786 2.786 0 002.784 2.784 2.786 2.786 0 002.784-2.784v-59.9l4.992-.1 48.768 61.728a2.731 2.731 0 002.212 1.056h9.5a2.786 2.786 0 002.784-2.784V3.168A2.786 2.786 0 00250.56.384zm59.136 68.256a2.786 2.786 0 002.784-2.784V5.568h33.5a2.786 2.786 0 002.784-2.784A2.786 2.786 0 00345.98 0h-72.572a2.786 2.786 0 00-2.784 2.784 2.786 2.786 0 002.784 2.784h33.5v60.288a2.786 2.786 0 002.788 2.784zm110.5-65.472a5.229 5.229 0 00-4.036-1.728h-36.288a5.435 5.435 0 00-4.128 1.728L367.488 12a5.617 5.617 0 00-1.44 3.84v50.112a2.683 2.683 0 002.688 2.688 2.706 2.706 0 002.784-2.688v-24.96h52.9v24.96a2.706 2.706 0 002.78 2.688 2.706 2.706 0 002.784-2.688V15.84a6.116 6.116 0 00-1.44-3.84zm-48.58 12.672l8.16-8.928c0-.1 0-.1.1-.1h36.284a.094.094 0 01.1.1l8.16 8.928v19.584h-52.9V15.84zm-.1 20.064c.1 0 .1.1 0 .1zm52.9.1c-.1 0-.1-.1 0-.1zm-52.9 4.416c.1.192.1.192 0 .288zm52.9.288c-.1-.1-.1-.1 0-.288zm80.736 27.932a5.219 5.219 0 003.744-1.44l9.888-9.12a2.76 2.76 0 00.192-3.936 2.757 2.757 0 00-3.936-.192l-9.888 9.12H461.76l-9.024-8.256V15.072l9.024-8.352h43.392l9.888 9.12a2.753 2.753 0 003.936-.1 2.757 2.757 0 00-.192-3.936l-9.888-9.12a5.219 5.219 0 00-3.744-1.44H461.76a5.219 5.219 0 00-3.744 1.44l-9.024 8.256a5.583 5.583 0 00-1.728 4.128v39.744a5.583 5.583 0 001.728 4.128l9.024 8.256a5.219 5.219 0 003.744 1.444zm70.944 0a2.786 2.786 0 002.784-2.784V5.568h33.5a2.786 2.786 0 002.784-2.784A2.786 2.786 0 00612.38 0h-72.572a2.786 2.786 0 00-2.784 2.784 2.786 2.786 0 002.784 2.784h33.5v60.288a2.786 2.786 0 002.788 2.784z" fill="#fff"/></svg>