<svg xmlns="http://www.w3.org/2000/svg" width="689.834" height="68.832"><path d="M106.268 0a2.786 2.786 0 00-2.784 2.784v24.864l-.192.288-23.324 33.312L57.6 28.8l-.288-.288V2.784A2.786 2.786 0 0054.528 0a2.786 2.786 0 00-2.784 2.784v24.864c-.1.1-.192.192-.192.288L28.224 61.248 5.76 28.8c-.1-.1-.1-.192-.192-.288V2.784A2.786 2.786 0 002.784 0 2.786 2.786 0 000 2.784v25.632a5.705 5.705 0 001.344 3.648L25.92 67.68a3.007 3.007 0 002.304 1.152 3.167 3.167 0 002.3-1.152l23.712-33.984 23.52 33.984a2.818 2.818 0 002.212 1.152 2.861 2.861 0 002.3-1.152l25.44-36.48a5.269 5.269 0 001.344-3.552V2.784A2.786 2.786 0 00106.268 0zm85.348 59.132a2.843 2.843 0 00.1-3.936 2.757 2.757 0 00-3.936-.192l-8.928 8.352h-46.944v-25.44h47.232a2.706 2.706 0 002.688-2.784 2.706 2.706 0 00-2.688-2.784h-47.232V7.008h46.944l8.928 8.256a2.757 2.757 0 003.936-.192 2.725 2.725 0 00-.1-3.84l-9.024-8.352a5.219 5.219 0 00-3.744-1.44H129.12a2.786 2.786 0 00-2.784 2.784v61.92a2.768 2.768 0 002.784 2.688h49.728a5.219 5.219 0 003.744-1.44zm83.424-.1a5.374 5.374 0 001.728-4.024v-12a5.374 5.374 0 00-1.728-4.032l-7.776-7.2 6.912-6.432A5.675 5.675 0 00276 21.216v-5.952a5.518 5.518 0 00-1.824-4.132l-8.928-8.256a5.553 5.553 0 00-3.744-1.44h-48.96a2.706 2.706 0 00-2.784 2.688v61.92a2.786 2.786 0 002.784 2.788h49.724a5.617 5.617 0 003.84-1.44zm-13.536-52.12l8.928 8.256v6.048l-8.544 7.968h-46.56V6.912zm-46.176 56.352V35.04h47.232l8.736 7.968v12l-9.028 8.256zm77.28-34.464a2.786 2.786 0 002.784 2.784h29.952a2.786 2.786 0 002.784-2.784 2.786 2.786 0 00-2.784-2.784h-29.952a2.786 2.786 0 00-2.784 2.784zM400.32 68.832a2.786 2.786 0 002.784-2.784V5.76h33.5a2.786 2.786 0 002.784-2.784 2.786 2.786 0 00-2.78-2.784h-72.576a2.786 2.786 0 00-2.784 2.784 2.786 2.786 0 002.784 2.784h33.5v60.288a2.786 2.786 0 002.788 2.784zm83.136-5.568h-24a2.786 2.786 0 00-2.788 2.784 2.786 2.786 0 002.788 2.784h53.568a2.786 2.786 0 002.784-2.784 2.786 2.786 0 00-2.784-2.784h-24V6.144h24a2.786 2.786 0 002.784-2.784 2.786 2.786 0 00-2.784-2.784h-53.568a2.786 2.786 0 00-2.784 2.784 2.786 2.786 0 002.784 2.784h24zM589.44 2.88a5.617 5.617 0 00-3.84-1.44h-49.732a2.786 2.786 0 00-2.784 2.784v61.92a2.706 2.706 0 002.784 2.688 2.706 2.706 0 002.784-2.688V41.088h46.944a5.3 5.3 0 003.744-1.536l9.024-8.256a5.374 5.374 0 001.728-4.032v-12a5.374 5.374 0 00-1.724-4.032zm5.184 12.384v12L585.6 35.52h-46.944V7.008H585.6zm84.48-13.532a5.708 5.708 0 00-3.84-1.536h-43.296a5.708 5.708 0 00-3.84 1.536L619.2 9.988a5.518 5.518 0 00-1.824 4.128v7.872a5.518 5.518 0 001.824 4.128l8.928 8.256a5.658 5.658 0 003.744 1.536h42.624l9.024 8.256v10.848l-9.024 8.256h-42.628l-9.792-9.12a2.757 2.757 0 00-3.936.192 2.843 2.843 0 00.1 3.936l9.888 9.12a6.066 6.066 0 003.74 1.436h42.624a5.617 5.617 0 003.84-1.44l8.936-8.352a5.518 5.518 0 001.824-4.128V44.256a5.675 5.675 0 00-1.824-4.124l-8.928-8.352a5.617 5.617 0 00-3.84-1.44h-42.632l-8.928-8.256v-7.972l8.928-8.352h43.488l9.792 9.12a2.757 2.757 0 003.936-.192 2.723 2.723 0 00-.1-3.84z" fill="#fff"/></svg>