<svg xmlns="http://www.w3.org/2000/svg" width="509.066" height="68.736"><path d="M39.072 68.64a2.786 2.786 0 002.788-2.784V5.568h33.5a2.786 2.786 0 002.784-2.784A2.786 2.786 0 0075.36 0H2.784A2.786 2.786 0 000 2.784a2.786 2.786 0 002.784 2.784h33.5v60.288a2.786 2.786 0 002.788 2.784zm59.136.1a2.786 2.786 0 002.784-2.784V36.96h55.968v28.992a2.706 2.706 0 002.688 2.788 2.786 2.786 0 002.784-2.784V3.264A2.786 2.786 0 00159.648.48a2.706 2.706 0 00-2.688 2.784v28.128h-55.968V3.264A2.786 2.786 0 0098.208.48a2.786 2.786 0 00-2.784 2.784v62.688a2.786 2.786 0 002.784 2.788zM233.86 3.168a5.229 5.229 0 00-4.032-1.728h-36.292a5.435 5.435 0 00-4.128 1.728L181.152 12a5.617 5.617 0 00-1.44 3.84v50.112a2.683 2.683 0 002.688 2.688 2.706 2.706 0 002.784-2.688v-24.96h52.9v24.96a2.706 2.706 0 002.776 2.688 2.706 2.706 0 002.784-2.688V15.84a6.116 6.116 0 00-1.44-3.84zM185.28 15.84l8.16-8.928c0-.1 0-.1.1-.1h36.288a.094.094 0 01.1.1l8.16 8.928v19.584h-52.9V15.84zm-.1 20.064c.1 0 .1.1 0 .1zm52.9.1c-.1 0-.1-.1 0-.1zm-52.9 4.416c.1.192.1.192 0 .288zm52.9.288c-.1-.1-.1-.1 0-.288zM331.968.388a2.786 2.786 0 00-2.784 2.784v59.9h-5.376L275.04 1.44a2.87 2.87 0 00-2.208-1.056h-9.12a2.786 2.786 0 00-2.784 2.784v62.688a2.786 2.786 0 002.784 2.784 2.786 2.786 0 002.784-2.784v-59.9l4.992-.1 48.772 61.728a2.731 2.731 0 002.2 1.056h9.5a2.786 2.786 0 002.784-2.784V3.168a2.786 2.786 0 00-2.776-2.784zm20.064 47.328v18.14a2.786 2.786 0 002.784 2.784 2.786 2.786 0 002.784-2.784V49.44l27.84-12.192 18.62 29.376.48.576a5.553 5.553 0 003.748 1.44h8.256a2.786 2.786 0 002.784-2.784 2.786 2.786 0 00-2.784-2.784h-8.16L390.528 35.04l24.96-10.944h.1a5.979 5.979 0 003.456-4.992V3.94a2.625 2.625 0 00-2.688-2.688 2.706 2.706 0 00-2.784 2.688v14.88c-.1.1-.192.192-.288.192L357.6 43.392V3.94a2.706 2.706 0 00-2.784-2.688 2.706 2.706 0 00-2.784 2.688zM498.336 1.54a5.708 5.708 0 00-3.84-1.536h-43.3a5.708 5.708 0 00-3.836 1.536l-8.928 8.256a5.518 5.518 0 00-1.824 4.128v7.872a5.518 5.518 0 001.824 4.128l8.928 8.256a5.658 5.658 0 003.744 1.536h42.624l9.024 8.256V54.82l-9.024 8.256h-42.624l-9.792-9.12a2.757 2.757 0 00-3.936.192 2.843 2.843 0 00.1 3.936l9.884 9.116a6.066 6.066 0 003.744 1.44h42.624a5.617 5.617 0 003.84-1.44l8.928-8.352a5.518 5.518 0 001.824-4.128V44.064a5.675 5.675 0 00-1.824-4.128l-8.928-8.352a5.617 5.617 0 00-3.84-1.44h-42.624l-8.928-8.256V13.92l8.928-8.352h43.488l9.792 9.12a2.757 2.757 0 003.936-.192 2.723 2.723 0 00-.1-3.84z" fill="#fff"/></svg>