<svg xmlns="http://www.w3.org/2000/svg" width="566.784" height="68.928"><path d="M10.752 67.488a5.219 5.219 0 003.744 1.44h43.392a5.66 5.66 0 003.744-1.44l9.888-9.12a2.978 2.978 0 00.864-2.112V35.228a2.768 2.768 0 00-2.688-2.784h-33.5a2.786 2.786 0 00-2.788 2.784 2.786 2.786 0 002.784 2.784h30.72V55.1l-9.024 8.26H14.496l-9.024-8.256V15.36l9.024-8.352h43.392l9.888 9.12a2.753 2.753 0 003.936-.1 2.757 2.757 0 00-.192-3.936l-9.888-9.12a5.219 5.219 0 00-3.744-1.44H14.496a5.219 5.219 0 00-3.744 1.44l-9.024 8.256A5.583 5.583 0 000 15.36v39.744a5.583 5.583 0 001.728 4.124zM143.904 3.456a5.229 5.229 0 00-4.032-1.728h-36.288a5.435 5.435 0 00-4.128 1.728L91.2 12.288a5.617 5.617 0 00-1.44 3.84V66.24a2.683 2.683 0 002.688 2.688 2.706 2.706 0 002.784-2.688V41.28h52.9v24.96a2.706 2.706 0 002.78 2.688 2.706 2.706 0 002.784-2.688V16.128a6.117 6.117 0 00-1.44-3.84zM95.328 16.128l8.16-8.928c0-.1 0-.1.1-.1h36.288a.094.094 0 01.1.1l8.16 8.928v19.584h-52.9V16.128zm-.1 20.064c.1 0 .1.1 0 .1zm52.9.1c-.1 0-.1-.1 0-.1zm-52.9 4.416c.1.192.1.192 0 .288zm52.9.288c-.1-.1-.1-.1 0-.288zm86.4 17.376a2.76 2.76 0 00.192-3.936 2.757 2.757 0 00-3.936-.192l-9.792 9.12h-35.52l-9.024-8.256V3.072A2.786 2.786 0 00173.66.288a2.768 2.768 0 00-2.688 2.784v52.032a5.583 5.583 0 001.732 4.124l9.024 8.256a5.219 5.219 0 003.744 1.444h35.424a5.617 5.617 0 003.84-1.44zm81.792 0a2.76 2.76 0 00.192-3.936 2.757 2.757 0 00-3.936-.192l-9.792 9.12H267.26l-9.024-8.256V3.072A2.786 2.786 0 00255.46.288a2.768 2.768 0 00-2.688 2.784v52.032a5.583 5.583 0 001.724 4.124l9.024 8.26a5.219 5.219 0 003.74 1.44h35.424a5.617 5.617 0 003.84-1.44zm83.52.864a2.843 2.843 0 00.1-3.936 2.757 2.757 0 00-3.936-.192l-8.928 8.352h-46.948V38.02h47.232a2.706 2.706 0 002.688-2.784 2.706 2.706 0 00-2.688-2.788h-47.232V7.104h46.944L396 15.36a2.757 2.757 0 003.936-.192 2.725 2.725 0 00-.1-3.84l-9.024-8.352a5.219 5.219 0 00-3.744-1.44h-49.724a2.786 2.786 0 00-2.784 2.784v61.92a2.768 2.768 0 002.784 2.688h49.728a5.219 5.219 0 003.744-1.44zm85.44 6.912l-2.784-2.784h-8.064l-10.944-22.276h7.008a5.219 5.219 0 003.744-1.44l9.024-8.256a5.975 5.975 0 001.728-4.128v-11.9a5.975 5.975 0 00-1.732-4.136l-9.024-8.256a5.219 5.219 0 00-3.744-1.44h-49.724a2.706 2.706 0 00-2.784 2.688v61.92a2.786 2.786 0 002.784 2.788 2.786 2.786 0 002.784-2.784V41.088h33.792l12.576 25.54a2.267 2.267 0 00.576.864 5.553 5.553 0 003.744 1.436h8.256a2.786 2.786 0 002.784-2.784zm-61.728-30.532V7.008h46.944l8.928 8.352.1 11.9a.094.094 0 00-.1.1l-8.928 8.16v.1zM564.096 0a2.786 2.786 0 00-2.784 2.784V35.04h-44.928l-8.256-8.928V2.784A2.786 2.786 0 00505.344 0a2.786 2.786 0 00-2.784 2.784v23.328a5.658 5.658 0 001.536 3.744l8.16 8.928a5.675 5.675 0 004.128 1.824h44.928v13.82l-8.352 8.932h-37.344l-8.256-8.932a2.757 2.757 0 00-3.936-.192 2.841 2.841 0 00-.1 3.936l8.256 8.928a5.467 5.467 0 004.036 1.828h37.344a5.675 5.675 0 004.128-1.824l8.256-8.928a5.618 5.618 0 001.44-3.84V2.784A2.706 2.706 0 00564.096 0z" fill="#fff"/></svg>