<svg xmlns="http://www.w3.org/2000/svg" width="432.17" height="68.64"><path d="M71.04.384a2.786 2.786 0 00-2.78 2.784v59.9h-5.38L14.112 1.44A2.87 2.87 0 0011.904.384h-9.12A2.786 2.786 0 000 3.168v62.688a2.786 2.786 0 002.784 2.784 2.786 2.786 0 002.784-2.784v-59.9l4.992-.1 48.768 61.728a2.731 2.731 0 002.208 1.056h9.5a2.786 2.786 0 002.784-2.784V3.168A2.786 2.786 0 0071.04.384zm91.1 10.944c-.1-.192-.288-.288-.384-.48l-8.928-8.16a5.457 5.457 0 00-3.552-1.536H105.6a2.386 2.386 0 00-.768.1 5.125 5.125 0 00-2.976 1.44l-9.888 9.12a3.1 3.1 0 00-.864 2.5v41.184a3.1 3.1 0 00.864 2.5l.576.48a.75.75 0 00.384.384l8.932 8.244a5.457 5.457 0 003.548 1.536h43.584c.288 0 .576-.1.768-.1a6.081 6.081 0 003.072-1.44l9.792-9.12a2.576 2.576 0 00.864-2.5c0-.288.1-.48.1-.768V14.976l-.1-.672a2.576 2.576 0 00-.864-2.5zm-13.148 51.744H105.6l-8.928-8.352V15.072L105.6 6.72h43.488l8.928 8.256V54.72zm70.944 5.568a2.786 2.786 0 002.784-2.784V5.568h33.5a2.786 2.786 0 002.784-2.784A2.786 2.786 0 00256.22 0h-72.572a2.786 2.786 0 00-2.784 2.784 2.786 2.786 0 002.784 2.784h33.5v60.288a2.786 2.786 0 002.788 2.784zm121.632-9.7a2.843 2.843 0 00.1-3.936 2.757 2.757 0 00-3.936-.192l-8.932 8.356h-46.94v-25.44h47.232a2.706 2.706 0 002.688-2.784 2.706 2.706 0 00-2.688-2.784H281.86V6.816h46.94l8.928 8.256a2.757 2.757 0 003.936-.192 2.725 2.725 0 00-.1-3.84l-9.024-8.352a5.219 5.219 0 00-3.744-1.44h-49.724a2.786 2.786 0 00-2.784 2.784v61.92a2.768 2.768 0 002.784 2.688H328.8a5.219 5.219 0 003.744-1.44zm79.872-57.4A5.708 5.708 0 00417.6.004h-43.3a5.708 5.708 0 00-3.84 1.536l-8.928 8.256a5.518 5.518 0 00-1.824 4.128v7.872a5.518 5.518 0 001.824 4.128l8.928 8.256a5.658 5.658 0 003.744 1.536h42.624l9.024 8.256V54.82l-9.024 8.256h-42.62l-9.792-9.12a2.757 2.757 0 00-3.936.192 2.843 2.843 0 00.1 3.936l9.88 9.116a6.066 6.066 0 003.748 1.44h42.624a5.617 5.617 0 003.84-1.44l8.928-8.352a5.518 5.518 0 001.824-4.128V44.064a5.675 5.675 0 00-1.824-4.124l-8.928-8.352a5.617 5.617 0 00-3.84-1.44h-42.624l-8.928-8.256V13.92l8.928-8.352h43.488l9.792 9.12a2.757 2.757 0 003.936-.192 2.723 2.723 0 00-.1-3.84z" fill="#fff"/></svg>