<svg xmlns="http://www.w3.org/2000/svg" width="255.424" height="117.312"><path d="M68.032 0a2.786 2.786 0 00-2.784 2.784v36.192H16.384l-8.256-8.928V2.784A2.786 2.786 0 005.344 0 2.786 2.786 0 002.56 2.784v27.168A5.617 5.617 0 004 33.792l8.256 8.928a5.675 5.675 0 004.128 1.824h48.864v21.984a2.786 2.786 0 002.784 2.784 2.786 2.786 0 002.788-2.784V2.784A2.786 2.786 0 0068.032 0zm91.1 12c-.1-.192-.288-.288-.384-.48l-8.928-8.16a5.457 5.457 0 00-3.552-1.536h-43.68a2.386 2.386 0 00-.768.1 5.125 5.125 0 00-2.976 1.44l-9.888 9.12a3.1 3.1 0 00-.864 2.5v41.184a3.1 3.1 0 00.864 2.5l.576.48a.75.75 0 00.384.384l8.928 8.256a5.457 5.457 0 003.556 1.524h43.584c.288 0 .576-.1.768-.1a6.081 6.081 0 003.072-1.44l9.792-9.12a2.576 2.576 0 00.864-2.5c0-.288.1-.48.1-.768V15.648l-.1-.672a2.576 2.576 0 00-.864-2.5zm-13.148 51.744h-43.392l-8.928-8.352V15.744l8.928-8.352h43.488l8.928 8.256v39.744zM243.328 0a2.786 2.786 0 00-2.784 2.784v36.192H191.68l-8.26-8.928V2.784A2.786 2.786 0 00180.636 0a2.786 2.786 0 00-2.784 2.784v27.168a5.617 5.617 0 001.44 3.84l8.256 8.928a5.675 5.675 0 004.128 1.824h48.864v21.984a2.786 2.786 0 002.788 2.784 2.786 2.786 0 002.784-2.784V2.784A2.786 2.786 0 00243.328 0zM23.68 94.56a.929.929 0 00-.928.928v19.968H20.96L4.704 94.912a.957.957 0 00-.736-.352H.928a.929.929 0 00-.928.928v20.9a.928.928 0 101.856 0V96.412l1.664-.028 16.256 20.576a.91.91 0 00.736.352h3.168a.929.929 0 00.928-.928v-20.9a.929.929 0 00-.928-.924zm30.368 3.652c-.032-.064-.1-.1-.128-.16l-2.976-2.72a1.819 1.819 0 00-1.184-.52H35.2a.8.8 0 00-.256.032 1.708 1.708 0 00-.992.48l-3.3 3.04a1.032 1.032 0 00-.288.832v13.732a1.032 1.032 0 00.288.832l.192.16a.25.25 0 00.128.128l2.976 2.752a1.819 1.819 0 001.188.512h14.528c.1 0 .192-.032.256-.032a2.027 2.027 0 001.024-.48l3.264-3.04a.859.859 0 00.288-.832c0-.1.032-.16.032-.256V99.424l-.032-.224a.859.859 0 00-.288-.832zm-4.384 17.244H35.2l-2.98-2.784V99.456l2.98-2.784h14.5l2.976 2.752v13.248zm23.648 1.856a.929.929 0 00.928-.928v-20.1h11.168a.928.928 0 100-1.856H61.22a.928.928 0 100 1.856h11.164v20.1a.929.929 0 00.928.928zm43.04-10.592h15.744a.912.912 0 100-1.824h-15.744v-8.484H132l3.008 2.752a.88.88 0 001.28-.032.947.947 0 00-.032-1.312l-2.976-2.748a1.9 1.9 0 00-1.28-.512h-16.58a.929.929 0 00-.928.928v20.9a.928.928 0 101.856 0zm49.632-8.508c-.032-.064-.1-.1-.128-.16l-2.976-2.72a1.819 1.819 0 00-1.184-.512h-14.56a.8.8 0 00-.256.032 1.708 1.708 0 00-.992.48l-3.3 3.04a1.032 1.032 0 00-.288.832v13.724a1.032 1.032 0 00.288.832l.192.16a.25.25 0 00.128.128l2.976 2.752a1.819 1.819 0 001.184.512H161.6c.1 0 .192-.032.256-.032a2.027 2.027 0 001.024-.48l3.264-3.04a.859.859 0 00.288-.832c0-.1.032-.16.032-.256V99.424l-.032-.224a.859.859 0 00-.288-.832zm-4.384 17.244h-14.464l-2.976-2.784V99.456l2.976-2.784h14.5l2.976 2.752v13.248zm32.992-21.024a.929.929 0 00-.928.928v17.12l-2.752 2.976h-14.048l-2.784-2.976V95.36a.928.928 0 00-1.856 0v17.12a1.886 1.886 0 00.512 1.248l2.752 2.976a1.892 1.892 0 001.376.608h14.016a1.839 1.839 0 001.376-.608l2.752-2.976a1.851 1.851 0 00.48-1.248V95.36a.9.9 0 00-.896-.928zm30.336.128a.929.929 0 00-.928.928v19.968h-1.792l-16.256-20.544a.957.957 0 00-.736-.352h-3.04a.929.929 0 00-.928.928v20.9a.928.928 0 101.856 0V96.412l1.664-.032 16.252 20.58a.91.91 0 00.736.352h3.168a.929.929 0 00.928-.928v-20.9a.929.929 0 00-.924-.924zm29.892 19.488a1.822 1.822 0 00.608-1.344V99.456a1.839 1.839 0 00-.608-1.376l-2.976-2.752a1.851 1.851 0 00-1.248-.48h-18.052a.9.9 0 00-.928.9v20.64a.929.929 0 00.928.928h18.016a1.872 1.872 0 001.28-.48zm-21.344 1.408V96.672h17.12l2.976 2.752v13.28l-2.976 2.752h-17.12z" fill="red"/></svg>