<svg xmlns="http://www.w3.org/2000/svg" width="580.01" height="68.64"><path d="M61.728 1.54a5.708 5.708 0 00-3.84-1.536h-43.3a5.708 5.708 0 00-3.84 1.536L1.824 9.792A5.518 5.518 0 000 13.92v7.872a5.518 5.518 0 001.824 4.128l8.928 8.256a5.658 5.658 0 003.744 1.536H57.12l9.024 8.256v10.848l-9.024 8.256H14.496l-9.792-9.12a2.757 2.757 0 00-3.936.192 2.843 2.843 0 00.1 3.936l9.888 9.12a6.066 6.066 0 003.74 1.44H57.12a5.617 5.617 0 003.84-1.44l8.928-8.352a5.518 5.518 0 001.824-4.128V44.064a5.675 5.675 0 00-1.824-4.124l-8.928-8.356a5.617 5.617 0 00-3.84-1.44H14.496l-8.928-8.256V13.92l8.928-8.352h43.488l9.792 9.12a2.757 2.757 0 003.936-.192 2.723 2.723 0 00-.1-3.84zm91.392 57.4a2.843 2.843 0 00.1-3.936 2.757 2.757 0 00-3.936-.192l-8.928 8.352H93.408v-25.44h47.232a2.706 2.706 0 002.688-2.784 2.706 2.706 0 00-2.688-2.784H93.408V6.816h46.944l8.928 8.256a2.757 2.757 0 003.936-.192 2.725 2.725 0 00-.1-3.84l-9.024-8.352a5.219 5.219 0 00-3.744-1.44H90.624a2.786 2.786 0 00-2.784 2.784v61.92a2.768 2.768 0 002.784 2.688h49.728a5.219 5.219 0 003.744-1.44zm85.44 6.916l-2.784-2.784h-8.064L216.768 40.8h7.008a5.219 5.219 0 003.744-1.44l9.024-8.256a5.975 5.975 0 001.728-4.128v-11.9a5.975 5.975 0 00-1.728-4.128l-9.024-8.256a5.219 5.219 0 00-3.744-1.44h-49.728a2.706 2.706 0 00-2.788 2.688v61.92a2.786 2.786 0 002.788 2.78 2.786 2.786 0 002.784-2.784V40.8h33.792L223.2 66.34a2.267 2.267 0 00.576.864 5.553 5.553 0 003.744 1.436h8.256a2.786 2.786 0 002.784-2.784zm-61.728-30.528V6.72h46.944l8.928 8.352.1 11.9a.094.094 0 00-.1.1l-8.928 8.16v.1zM293.184 68.64a2.69 2.69 0 002.208-1.152l34.468-47.616a2.258 2.258 0 00.576-1.632V2.784A2.786 2.786 0 00327.652 0a2.786 2.786 0 00-2.784 2.784v14.592l-31.684 43.776-31.776-43.776V2.784A2.786 2.786 0 00258.624 0a2.786 2.786 0 00-2.784 2.784V18.34a2.18 2.18 0 00.576 1.536l34.464 47.612a2.737 2.737 0 002.304 1.152zm81.312-5.568h-24a2.786 2.786 0 00-2.784 2.784 2.786 2.786 0 002.784 2.784h53.564a2.786 2.786 0 002.784-2.784 2.786 2.786 0 00-2.784-2.784h-24V5.952h24a2.786 2.786 0 002.784-2.784A2.786 2.786 0 00404.06.384h-53.564a2.786 2.786 0 00-2.784 2.784 2.786 2.786 0 002.784 2.784h24zm107.52 5.568a5.219 5.219 0 003.744-1.44l9.888-9.12a2.76 2.76 0 00.192-3.936 2.757 2.757 0 00-3.936-.192l-9.888 9.12h-43.392l-9.024-8.256V15.072l9.024-8.352h43.392l9.888 9.12a2.753 2.753 0 003.936-.1 2.757 2.757 0 00-.192-3.936l-9.888-9.12a5.219 5.219 0 00-3.744-1.44h-43.392a5.219 5.219 0 00-3.744 1.44l-9.02 8.256a5.583 5.583 0 00-1.728 4.128v39.744a5.583 5.583 0 001.728 4.128l9.02 8.26a5.219 5.219 0 003.744 1.44zm97.152-9.7a2.843 2.843 0 00.1-3.936 2.757 2.757 0 00-3.936-.192l-8.932 8.356h-46.94v-25.44h47.232a2.706 2.706 0 002.688-2.784 2.706 2.706 0 00-2.688-2.784H519.46V6.816h46.94l8.928 8.256a2.757 2.757 0 003.936-.192 2.725 2.725 0 00-.1-3.84l-9.024-8.352a5.219 5.219 0 00-3.744-1.44h-49.724a2.786 2.786 0 00-2.784 2.784v61.92a2.768 2.768 0 002.784 2.688H566.4a5.219 5.219 0 003.744-1.44z" fill="#fff"/></svg>