<svg xmlns="http://www.w3.org/2000/svg" width="335" height="30"><path data-name="パス 42" d="M44.88.32a1.161 1.161 0 00-1.16 1.16v10.36l-.08.12-9.72 13.88-9.32-13.52-.12-.12V1.48A1.161 1.161 0 0023.32.32a1.161 1.161 0 00-1.16 1.16v10.36c-.04.04-.08.08-.08.12l-9.72 13.88L3 12.32c-.04-.04-.04-.08-.08-.12V1.48A1.161 1.161 0 001.76.32 1.161 1.161 0 00.6 1.48v10.68a2.377 2.377 0 00.56 1.52L11.4 28.52a1.253 1.253 0 00.96.48 1.32 1.32 0 00.96-.48l9.88-14.16L33 28.52a1.174 1.174 0 00.92.48 1.192 1.192 0 00.96-.48l10.6-15.2a2.2 2.2 0 00.56-1.48V1.48A1.161 1.161 0 0044.88.32zm37.96 4.8c-.04-.08-.12-.12-.16-.2l-3.72-3.4a2.274 2.274 0 00-1.48-.64h-18.2a.994.994 0 00-.32.04 2.136 2.136 0 00-1.24.6l-4.12 3.8a1.29 1.29 0 00-.36 1.04v17.16a1.29 1.29 0 00.36 1.04l.24.2a.312.312 0 00.16.16l3.72 3.44a2.274 2.274 0 001.48.64h18.16c.12 0 .24-.04.32-.04a2.534 2.534 0 001.28-.6l4.08-3.8a1.073 1.073 0 00.36-1.04c0-.12.04-.2.04-.32V6.64l-.04-.28a1.073 1.073 0 00-.36-1.04zm-5.48 21.56H59.28l-3.72-3.48V6.68l3.72-3.48H77.4l3.72 3.44V23.2zm41.32 1.16l-1.16-1.16h-3.36l-4.56-9.28h2.92a2.175 2.175 0 001.56-.6l3.76-3.44a2.489 2.489 0 00.72-1.72V6.68a2.489 2.489 0 00-.72-1.72l-3.76-3.44a2.175 2.175 0 00-1.56-.6H91.8a1.127 1.127 0 00-1.16 1.12v25.8A1.161 1.161 0 0091.8 29a1.161 1.161 0 001.16-1.16V17.4h14.08l5.24 10.64a.945.945 0 00.24.36 2.314 2.314 0 001.56.6h3.44a1.161 1.161 0 001.16-1.16zM92.96 15.12V3.2h19.56l3.72 3.48.04 4.96a.039.039 0 00-.04.04l-3.72 3.4v.04zm61.92 9.8a2.278 2.278 0 00.76-1.68V6.68a2.3 2.3 0 00-.76-1.72l-3.72-3.44a2.314 2.314 0 00-1.56-.6h-22.56a1.127 1.127 0 00-1.16 1.12v25.8a1.161 1.161 0 001.16 1.16h22.52a2.341 2.341 0 001.6-.6zm-26.68 1.76V3.2h21.4l3.72 3.44v16.6l-3.72 3.44h-21.4zm58.12-25.16a2.341 2.341 0 00-1.6-.6H164a1.161 1.161 0 00-1.16 1.16v25.8A1.127 1.127 0 00164 29a1.127 1.127 0 001.16-1.12V17.44h19.56a2.208 2.208 0 001.56-.64l3.76-3.44a2.239 2.239 0 00.72-1.68v-5a2.239 2.239 0 00-.72-1.68zm2.16 5.16v5l-3.76 3.44h-19.56V3.24h19.56zM226 27.84l-1.16-1.16h-3.36l-4.56-9.28h2.92a2.175 2.175 0 001.56-.6l3.76-3.44a2.489 2.489 0 00.72-1.72V6.68a2.489 2.489 0 00-.72-1.72l-3.76-3.44a2.175 2.175 0 00-1.56-.6h-20.72a1.127 1.127 0 00-1.16 1.12v25.8a1.161 1.161 0 001.16 1.16 1.161 1.161 0 001.16-1.16V17.4h14.08l5.24 10.64a.944.944 0 00.24.36 2.314 2.314 0 001.56.6h3.44a1.161 1.161 0 001.16-1.16zm-25.72-12.72V3.2h19.56l3.72 3.48.04 4.96a.039.039 0 00-.04.04l-3.72 3.4v.04zm60.12 9.84a1.185 1.185 0 00.04-1.64 1.149 1.149 0 00-1.64-.08l-3.72 3.48h-19.56v-10.6h19.68a1.127 1.127 0 001.12-1.16 1.127 1.127 0 00-1.12-1.16h-19.68V3.24h19.56l3.72 3.44a1.149 1.149 0 001.64-.08 1.135 1.135 0 00-.04-1.6l-3.76-3.48a2.175 2.175 0 00-1.56-.6h-20.72a1.161 1.161 0 00-1.16 1.16v25.8a1.153 1.153 0 001.16 1.12h20.72a2.175 2.175 0 001.56-.6zm33.28-23.92a2.378 2.378 0 00-1.6-.64h-18.04a2.378 2.378 0 00-1.6.64l-3.72 3.44a2.3 2.3 0 00-.76 1.72v3.28a2.3 2.3 0 00.76 1.72l3.72 3.44a2.358 2.358 0 001.56.64h17.76l3.76 3.44v4.52l-3.76 3.44H274l-4.08-3.8a1.149 1.149 0 00-1.64.08 1.185 1.185 0 00.04 1.64l4.12 3.8a2.527 2.527 0 001.56.6h17.76a2.341 2.341 0 001.6-.6l3.72-3.48a2.3 2.3 0 00.76-1.72v-4.44a2.365 2.365 0 00-.76-1.72l-3.72-3.48a2.341 2.341 0 00-1.6-.6H274l-3.72-3.44V6.2L274 2.72h18.12l4.08 3.8a1.149 1.149 0 001.64-.08 1.135 1.135 0 00-.04-1.6zm36.6 0a2.378 2.378 0 00-1.6-.64h-18.04a2.378 2.378 0 00-1.6.64l-3.72 3.44a2.3 2.3 0 00-.76 1.72v3.28a2.3 2.3 0 00.76 1.72l3.72 3.44a2.358 2.358 0 001.56.64h17.76l3.76 3.44v4.52l-3.76 3.44H310.6l-4.08-3.8a1.149 1.149 0 00-1.64.08 1.185 1.185 0 00.04 1.64l4.12 3.8a2.527 2.527 0 001.56.6h17.76a2.341 2.341 0 001.6-.6l3.72-3.48a2.3 2.3 0 00.76-1.72v-4.44a2.365 2.365 0 00-.76-1.72l-3.72-3.48a2.341 2.341 0 00-1.6-.6H310.6l-3.72-3.44V6.2l3.72-3.48h18.12l4.08 3.8a1.149 1.149 0 001.64-.08 1.135 1.135 0 00-.04-1.6z" fill="#fff"/><g data-name="長方形 99" fill="none" stroke="rgba(0,0,0,0)"><path d="M0 0h335v30H0z" stroke="none"/><path d="M.5.5h334v29H.5z"/></g></svg>