<svg xmlns="http://www.w3.org/2000/svg" width="157" height="19"><path data-name="パス 38" d="M27.528.792a.7.7 0 00-.7.7V7.7l-.048.072-5.828 8.328-5.592-8.108-.072-.072V1.488a.7.7 0 00-.7-.7.7.7 0 00-.7.7V7.7c-.024.024-.048.048-.048.072L8.016 16.1 2.4 7.992c-.024-.024-.024-.048-.048-.072V1.488a.7.7 0 00-.7-.7.7.7 0 00-.7.7V7.9a1.426 1.426 0 00.336.912l6.152 8.9a.752.752 0 00.576.288.792.792 0 00.576-.288l5.928-8.5 5.88 8.5a.7.7 0 00.552.288.715.715 0 00.576-.288l6.36-9.12a1.317 1.317 0 00.336-.888V1.488a.7.7 0 00-.696-.696zM49.368 17.3l-.7-.7h-2.012l-2.736-5.56h1.752a1.3 1.3 0 00.936-.36l2.256-2.064a1.494 1.494 0 00.432-1.032V4.608a1.494 1.494 0 00-.432-1.032l-2.256-2.064a1.3 1.3 0 00-.936-.36H33.24a.676.676 0 00-.7.672V17.3a.7.7 0 00.7.7.7.7 0 00.7-.7v-6.26h8.448l3.14 6.384a.567.567 0 00.144.216 1.388 1.388 0 00.936.36h2.064a.7.7 0 00.696-.7zM33.936 9.672V2.52h11.736L47.9 4.608l.024 2.976a.024.024 0 00-.024.024l-2.232 2.04v.024zm26.448 6.936h-6a.7.7 0 00-.7.7.7.7 0 00.7.7h13.392a.7.7 0 00.7-.7.7.7 0 00-.7-.7h-6V2.328h6a.7.7 0 00.7-.7.7.7 0 00-.7-.7H54.384a.7.7 0 00-.7.7.7.7 0 00.7.7h6zM82.56 18a.7.7 0 00.7-.7V2.232h8.376a.7.7 0 00.7-.7.7.7 0 00-.7-.7H73.488a.7.7 0 00-.7.7.7.7 0 00.7.7h8.376V17.3a.7.7 0 00.696.7zm20.784-1.392h-6a.7.7 0 00-.7.7.7.7 0 00.7.7h13.392a.7.7 0 00.7-.7.7.7 0 00-.7-.7h-6V2.328h6a.7.7 0 00.7-.7.7.7 0 00-.7-.7H97.344a.7.7 0 00-.7.7.7.7 0 00.7.7h6zM133.512.936a.7.7 0 00-.7.7v14.972h-1.344L119.28 1.2a.718.718 0 00-.552-.264h-2.28a.7.7 0 00-.7.7V17.3a.7.7 0 00.7.7.7.7 0 00.7-.7V2.328l1.248-.024 12.188 15.432a.683.683 0 00.552.264h2.376a.7.7 0 00.7-.7V1.632a.7.7 0 00-.7-.696zm7.7 16.7a1.3 1.3 0 00.936.36H153a1.415 1.415 0 00.936-.36l2.472-2.28a.745.745 0 00.216-.528V9.576a.692.692 0 00-.672-.7h-8.376a.7.7 0 00-.7.7.7.7 0 00.7.7h7.68v4.272L153 16.608h-10.848l-2.252-2.064V4.608l2.256-2.088H153l2.472 2.28a.688.688 0 00.984-.024.689.689 0 00-.048-.984l-2.472-2.28a1.3 1.3 0 00-.936-.36h-10.848a1.3 1.3 0 00-.936.36l-2.256 2.064a1.4 1.4 0 00-.432 1.032v9.936a1.4 1.4 0 00.432 1.032z" fill="#fff"/><g data-name="長方形 102" fill="none" stroke="rgba(0,0,0,0)"><path d="M0 0h157v19H0z" stroke="none"/><path d="M.5.5h156v18H.5z"/></g></svg>