<svg xmlns="http://www.w3.org/2000/svg" width="579.914" height="68.64" viewBox="0 0 579.914 68.64">
  <path id="category-private" d="M-233.616-65.952a5.617,5.617,0,0,0-3.84-1.44h-49.728a2.786,2.786,0,0,0-2.784,2.784v61.92A2.706,2.706,0,0,0-287.184,0,2.706,2.706,0,0,0-284.4-2.688V-27.744h46.944a5.3,5.3,0,0,0,3.744-1.536l9.024-8.256a5.374,5.374,0,0,0,1.728-4.032v-12a5.374,5.374,0,0,0-1.728-4.032Zm5.184,12.384v12l-9.024,8.256H-284.4V-61.824h46.944Zm90.048,50.784-2.784-2.784h-8.064L-160.176-27.84h7.008a5.219,5.219,0,0,0,3.744-1.44l9.024-8.256a5.975,5.975,0,0,0,1.728-4.128v-11.9A5.975,5.975,0,0,0-140.4-57.7l-9.024-8.256a5.219,5.219,0,0,0-3.744-1.44H-202.9A2.706,2.706,0,0,0-205.68-64.7v61.92A2.786,2.786,0,0,0-202.9,0a2.786,2.786,0,0,0,2.784-2.784V-27.84h33.792L-153.744-2.3a2.267,2.267,0,0,0,.576.864A5.553,5.553,0,0,0-149.424,0h8.256A2.786,2.786,0,0,0-138.384-2.784Zm-61.728-30.528V-61.92h46.944l8.928,8.352.1,11.9a.094.094,0,0,0-.1.1l-8.928,8.16v.1ZM-94.32-5.568h-24A2.786,2.786,0,0,0-121.1-2.784,2.786,2.786,0,0,0-118.32,0h53.568a2.786,2.786,0,0,0,2.784-2.784,2.786,2.786,0,0,0-2.784-2.784h-24v-57.12h24a2.786,2.786,0,0,0,2.784-2.784,2.786,2.786,0,0,0-2.784-2.784H-118.32a2.786,2.786,0,0,0-2.784,2.784,2.786,2.786,0,0,0,2.784,2.784h24ZM-7.344,0A2.69,2.69,0,0,0-5.136-1.152L29.328-48.768A2.258,2.258,0,0,0,29.9-50.4V-65.856A2.786,2.786,0,0,0,27.12-68.64a2.786,2.786,0,0,0-2.784,2.784v14.592L-7.344-7.488-39.12-51.264V-65.856A2.786,2.786,0,0,0-41.9-68.64a2.786,2.786,0,0,0-2.784,2.784V-50.3a2.18,2.18,0,0,0,.576,1.536L-9.648-1.152A2.737,2.737,0,0,0-7.344,0ZM101.328-65.472A5.229,5.229,0,0,0,97.3-67.2H61.008a5.435,5.435,0,0,0-4.128,1.728L48.624-56.64a5.617,5.617,0,0,0-1.44,3.84V-2.688A2.683,2.683,0,0,0,49.872,0a2.706,2.706,0,0,0,2.784-2.688v-24.96h52.9v24.96A2.706,2.706,0,0,0,108.336,0a2.706,2.706,0,0,0,2.784-2.688V-52.8a6.116,6.116,0,0,0-1.44-3.84ZM52.752-52.8l8.16-8.928c0-.1,0-.1.1-.1H97.3a.094.094,0,0,1,.1.1l8.16,8.928v19.584h-52.9V-52.8Zm-.1,20.064c.1,0,.1.1,0,.1Zm52.9.1c-.1,0-.1-.1,0-.1Zm-52.9,4.416c.1.192.1.192,0,.288Zm52.9.288c-.1-.1-.1-.1,0-.288ZM167.472,0a2.786,2.786,0,0,0,2.784-2.784V-63.072h33.5a2.786,2.786,0,0,0,2.784-2.784,2.786,2.786,0,0,0-2.784-2.784H131.184a2.786,2.786,0,0,0-2.784,2.784,2.786,2.786,0,0,0,2.784,2.784h33.5V-2.784A2.786,2.786,0,0,0,167.472,0ZM289.1-9.7a2.843,2.843,0,0,0,.1-3.936,2.757,2.757,0,0,0-3.936-.192l-8.928,8.352H229.392v-25.44h47.232a2.706,2.706,0,0,0,2.688-2.784,2.706,2.706,0,0,0-2.688-2.784H229.392V-61.824h46.944l8.928,8.256a2.757,2.757,0,0,0,3.936-.192,2.725,2.725,0,0,0-.1-3.84l-9.024-8.352a5.219,5.219,0,0,0-3.744-1.44H226.608a2.786,2.786,0,0,0-2.784,2.784v61.92A2.768,2.768,0,0,0,226.608,0h49.728a5.219,5.219,0,0,0,3.744-1.44Z" transform="translate(289.968 68.64)" fill="#fff"/>
</svg>
