<svg xmlns="http://www.w3.org/2000/svg" width="500.64" height="68.64" viewBox="0 0 500.64 68.64">
  <path id="category-client" d="M-192.432,0a5.219,5.219,0,0,0,3.744-1.44l9.888-9.12a2.76,2.76,0,0,0,.192-3.936,2.757,2.757,0,0,0-3.936-.192l-9.888,9.12h-43.392l-9.024-8.256V-53.568l9.024-8.352h43.392l9.888,9.12a2.753,2.753,0,0,0,3.936-.1,2.757,2.757,0,0,0-.192-3.936l-9.888-9.12a5.219,5.219,0,0,0-3.744-1.44h-43.392a5.219,5.219,0,0,0-3.744,1.44l-9.024,8.256a5.583,5.583,0,0,0-1.728,4.128v39.744A5.583,5.583,0,0,0-248.592-9.7l9.024,8.256A5.219,5.219,0,0,0-235.824,0Zm95.424-10.56a2.76,2.76,0,0,0,.192-3.936,2.757,2.757,0,0,0-3.936-.192l-9.792,9.12h-35.52l-9.024-8.256V-65.856a2.786,2.786,0,0,0-2.784-2.784,2.768,2.768,0,0,0-2.688,2.784v52.032A5.583,5.583,0,0,0-158.832-9.7l9.024,8.256A5.219,5.219,0,0,0-146.064,0h35.424a5.617,5.617,0,0,0,3.84-1.44Zm45.024,4.992h-24a2.786,2.786,0,0,0-2.784,2.784A2.786,2.786,0,0,0-75.984,0h53.568a2.786,2.786,0,0,0,2.784-2.784,2.786,2.786,0,0,0-2.784-2.784h-24v-57.12h24a2.786,2.786,0,0,0,2.784-2.784,2.786,2.786,0,0,0-2.784-2.784H-75.984a2.786,2.786,0,0,0-2.784,2.784,2.786,2.786,0,0,0,2.784,2.784h24ZM62.928-9.7a2.843,2.843,0,0,0,.1-3.936,2.757,2.757,0,0,0-3.936-.192L50.16-5.472H3.216v-25.44H50.448A2.706,2.706,0,0,0,53.136-33.7a2.706,2.706,0,0,0-2.688-2.784H3.216V-61.824H50.16l8.928,8.256a2.757,2.757,0,0,0,3.936-.192,2.725,2.725,0,0,0-.1-3.84L53.9-65.952a5.219,5.219,0,0,0-3.744-1.44H.432a2.786,2.786,0,0,0-2.784,2.784v61.92A2.768,2.768,0,0,0,.432,0H50.16A5.219,5.219,0,0,0,53.9-1.44Zm89.184-58.56a2.786,2.786,0,0,0-2.784,2.784v59.9h-5.376L95.184-67.2a2.87,2.87,0,0,0-2.208-1.056h-9.12a2.786,2.786,0,0,0-2.784,2.784V-2.784A2.786,2.786,0,0,0,83.856,0,2.786,2.786,0,0,0,86.64-2.784v-59.9l4.992-.1L140.4-1.056A2.731,2.731,0,0,0,142.608,0h9.5A2.786,2.786,0,0,0,154.9-2.784V-65.472A2.786,2.786,0,0,0,152.112-68.256ZM211.248,0a2.786,2.786,0,0,0,2.784-2.784V-63.072h33.5a2.786,2.786,0,0,0,2.784-2.784,2.786,2.786,0,0,0-2.784-2.784H174.96a2.786,2.786,0,0,0-2.784,2.784,2.786,2.786,0,0,0,2.784,2.784h33.5V-2.784A2.786,2.786,0,0,0,211.248,0Z" transform="translate(250.32 68.64)" fill="#fff"/>
</svg>
