<svg xmlns="http://www.w3.org/2000/svg" width="335" height="30" viewBox="0 0 335 30">
  <g id="concept" transform="translate(-377 -2177)">
    <path id="パス_39" data-name="パス 39" d="M25.72,0a2.175,2.175,0,0,0,1.56-.6L31.4-4.4a1.15,1.15,0,0,0,.08-1.64,1.149,1.149,0,0,0-1.64-.08l-4.12,3.8H7.64L3.88-5.76V-22.32L7.64-25.8H25.72L29.84-22a1.147,1.147,0,0,0,1.64-.04,1.149,1.149,0,0,0-.08-1.64l-4.12-3.8a2.175,2.175,0,0,0-1.56-.6H7.64a2.175,2.175,0,0,0-1.56.6L2.32-24.04a2.326,2.326,0,0,0-.72,1.72V-5.76a2.326,2.326,0,0,0,.72,1.72L6.08-.6A2.175,2.175,0,0,0,7.64,0ZM68.6-23.88c-.04-.08-.12-.12-.16-.2l-3.72-3.4a2.274,2.274,0,0,0-1.48-.64H45.04a.994.994,0,0,0-.32.04,2.135,2.135,0,0,0-1.24.6l-4.12,3.8A1.29,1.29,0,0,0,39-22.64V-5.48a1.29,1.29,0,0,0,.36,1.04l.24.2a.312.312,0,0,0,.16.16L43.48-.64A2.274,2.274,0,0,0,44.96,0H63.12c.12,0,.24-.04.32-.04a2.534,2.534,0,0,0,1.28-.6l4.08-3.8a1.074,1.074,0,0,0,.36-1.04c0-.12.04-.2.04-.32V-22.36l-.04-.28a1.074,1.074,0,0,0-.36-1.04ZM63.12-2.32H45.04L41.32-5.8V-22.32l3.72-3.48H63.16l3.72,3.44V-5.8ZM106-28.44a1.161,1.161,0,0,0-1.16,1.16V-2.32H102.6L82.28-28a1.2,1.2,0,0,0-.92-.44h-3.8a1.161,1.161,0,0,0-1.16,1.16V-1.16A1.161,1.161,0,0,0,77.56,0a1.161,1.161,0,0,0,1.16-1.16V-26.12l2.08-.04L101.12-.44a1.138,1.138,0,0,0,.92.44H106a1.161,1.161,0,0,0,1.16-1.16V-27.28A1.161,1.161,0,0,0,106-28.44ZM138.48,0a2.175,2.175,0,0,0,1.56-.6l4.12-3.8a1.15,1.15,0,0,0,.08-1.64,1.149,1.149,0,0,0-1.64-.08l-4.12,3.8H120.4l-3.76-3.44V-22.32l3.76-3.48h18.08L142.6-22a1.147,1.147,0,0,0,1.64-.04,1.149,1.149,0,0,0-.08-1.64l-4.12-3.8a2.175,2.175,0,0,0-1.56-.6H120.4a2.175,2.175,0,0,0-1.56.6l-3.76,3.44a2.326,2.326,0,0,0-.72,1.72V-5.76a2.326,2.326,0,0,0,.72,1.72L118.84-.6a2.175,2.175,0,0,0,1.56.6Zm40.48-4.04A1.185,1.185,0,0,0,179-5.68a1.149,1.149,0,0,0-1.64-.08l-3.72,3.48H154.08v-10.6h19.68a1.127,1.127,0,0,0,1.12-1.16,1.127,1.127,0,0,0-1.12-1.16H154.08V-25.76h19.56l3.72,3.44A1.149,1.149,0,0,0,179-22.4a1.135,1.135,0,0,0-.04-1.6l-3.76-3.48a2.175,2.175,0,0,0-1.56-.6H152.92a1.161,1.161,0,0,0-1.16,1.16v25.8A1.153,1.153,0,0,0,152.92,0h20.72a2.175,2.175,0,0,0,1.56-.6ZM210-27.48a2.341,2.341,0,0,0-1.6-.6H187.68a1.161,1.161,0,0,0-1.16,1.16v25.8A1.127,1.127,0,0,0,187.68,0a1.127,1.127,0,0,0,1.16-1.12V-11.56H208.4a2.208,2.208,0,0,0,1.56-.64l3.76-3.44a2.239,2.239,0,0,0,.72-1.68v-5a2.239,2.239,0,0,0-.72-1.68Zm2.16,5.16v5l-3.76,3.44H188.84V-25.76H208.4ZM237.92,0a1.161,1.161,0,0,0,1.16-1.16V-26.28h13.96a1.161,1.161,0,0,0,1.16-1.16,1.161,1.161,0,0,0-1.16-1.16H222.8a1.161,1.161,0,0,0-1.16,1.16,1.161,1.161,0,0,0,1.16,1.16h13.96V-1.16A1.161,1.161,0,0,0,237.92,0Z" transform="translate(376 2206)" fill="#fff"/>
    <g id="長方形_93" data-name="長方形 93" transform="translate(377 2177)" fill="none" stroke="rgba(0,0,0,0)" stroke-width="1">
      <rect width="335" height="30" stroke="none"/>
      <rect x="0.5" y="0.5" width="334" height="29" fill="none"/>
    </g>
  </g>
</svg>
