<svg xmlns="http://www.w3.org/2000/svg" width="335" height="30" viewBox="0 0 335 30">
  <g id="design" transform="translate(-377 -2752)">
    <path id="パス_40" data-name="パス 40" d="M30.6-4.08a2.278,2.278,0,0,0,.76-1.68V-22.32a2.3,2.3,0,0,0-.76-1.72l-3.72-3.44a2.314,2.314,0,0,0-1.56-.6H2.76A1.127,1.127,0,0,0,1.6-26.96v25.8A1.161,1.161,0,0,0,2.76,0H25.28a2.341,2.341,0,0,0,1.6-.6ZM3.92-2.32V-25.8h21.4l3.72,3.44v16.6L25.32-2.32H3.92ZM65.76-4.04a1.185,1.185,0,0,0,.04-1.64,1.149,1.149,0,0,0-1.64-.08L60.44-2.28H40.88v-10.6H60.56a1.127,1.127,0,0,0,1.12-1.16,1.127,1.127,0,0,0-1.12-1.16H40.88V-25.76H60.44l3.72,3.44a1.149,1.149,0,0,0,1.64-.08,1.135,1.135,0,0,0-.04-1.6L62-27.48a2.175,2.175,0,0,0-1.56-.6H39.72a1.161,1.161,0,0,0-1.16,1.16v25.8A1.153,1.153,0,0,0,39.72,0H60.44A2.175,2.175,0,0,0,62-.6ZM99.04-27.96a2.378,2.378,0,0,0-1.6-.64H79.4a2.378,2.378,0,0,0-1.6.64l-3.72,3.44a2.3,2.3,0,0,0-.76,1.72v3.28a2.3,2.3,0,0,0,.76,1.72l3.72,3.44a2.358,2.358,0,0,0,1.56.64H97.12l3.76,3.44v4.52L97.12-2.32H79.36l-4.08-3.8a1.149,1.149,0,0,0-1.64.08,1.185,1.185,0,0,0,.04,1.64L77.8-.6a2.527,2.527,0,0,0,1.56.6H97.12a2.341,2.341,0,0,0,1.6-.6l3.72-3.48a2.3,2.3,0,0,0,.76-1.72v-4.44a2.365,2.365,0,0,0-.76-1.72l-3.72-3.48a2.341,2.341,0,0,0-1.6-.6H79.36l-3.72-3.44V-22.8l3.72-3.48H97.48l4.08,3.8a1.149,1.149,0,0,0,1.64-.08,1.135,1.135,0,0,0-.04-1.6ZM121.08-2.32h-10a1.161,1.161,0,0,0-1.16,1.16A1.161,1.161,0,0,0,111.08,0H133.4a1.161,1.161,0,0,0,1.16-1.16,1.161,1.161,0,0,0-1.16-1.16h-10v-23.8h10a1.161,1.161,0,0,0,1.16-1.16,1.161,1.161,0,0,0-1.16-1.16H111.08a1.161,1.161,0,0,0-1.16,1.16,1.161,1.161,0,0,0,1.16,1.16h10ZM146.24-.6a2.175,2.175,0,0,0,1.56.6h18.08a2.358,2.358,0,0,0,1.56-.6l4.12-3.8a1.241,1.241,0,0,0,.36-.88v-8.76a1.153,1.153,0,0,0-1.12-1.16H156.84a1.161,1.161,0,0,0-1.16,1.16,1.161,1.161,0,0,0,1.16,1.16h12.8v7.12l-3.76,3.44H147.8l-3.76-3.44V-22.32l3.76-3.48h18.08L170-22a1.147,1.147,0,0,0,1.64-.04,1.149,1.149,0,0,0-.08-1.64l-4.12-3.8a2.175,2.175,0,0,0-1.56-.6H147.8a2.175,2.175,0,0,0-1.56.6l-3.76,3.44a2.326,2.326,0,0,0-.72,1.72V-5.76a2.326,2.326,0,0,0,.72,1.72Zm62.52-27.84a1.161,1.161,0,0,0-1.16,1.16V-2.32h-2.24L185.04-28a1.2,1.2,0,0,0-.92-.44h-3.8a1.161,1.161,0,0,0-1.16,1.16V-1.16A1.161,1.161,0,0,0,180.32,0a1.161,1.161,0,0,0,1.16-1.16V-26.12l2.08-.04L203.88-.44a1.138,1.138,0,0,0,.92.44h3.96a1.161,1.161,0,0,0,1.16-1.16V-27.28A1.161,1.161,0,0,0,208.76-28.44Z" transform="translate(376 2781)" fill="#fff"/>
    <g id="長方形_95" data-name="長方形 95" transform="translate(377 2752)" fill="none" stroke="rgba(0,0,0,0)" stroke-width="1">
      <rect width="335" height="30" stroke="none"/>
      <rect x="0.5" y="0.5" width="334" height="29" fill="none"/>
    </g>
  </g>
</svg>
