<svg xmlns="http://www.w3.org/2000/svg" viewBox="0 0 12.5 12.5"><defs><style>.cls-1{fill:#fff;}</style></defs><g id="レイヤー_2" data-name="レイヤー 2"><g id="レイヤー_1-2" data-name="レイヤー 1"><g id="external-link-2"><path id="パス_4" data-name="パス 4" class="cls-1" d="M11.8,5.6a.67.67,0,0,0-.7.6v4.2a.67.67,0,0,1-.6.7H2.1a.67.67,0,0,1-.7-.6V2.1A.67.67,0,0,1,2,1.4H6.2A.67.67,0,0,0,6.9.8V.7A.67.67,0,0,0,6.3,0H2.1A2.16,2.16,0,0,0,0,2v8.4a2.16,2.16,0,0,0,2,2.1h8.4a2.16,2.16,0,0,0,2.1-2V6.3a.68.68,0,0,0-.7-.7Z"/><path id="パス_5" data-name="パス 5" class="cls-1" d="M9,1.4h1.1L5.8,5.8a.56.56,0,0,0,0,.9h0a.56.56,0,0,0,.9,0h0L11,2.4V3.5a.67.67,0,0,0,.6.7h.1a.67.67,0,0,0,.7-.6V.7a.67.67,0,0,0-.6-.7H8.9a.67.67,0,0,0-.7.6V.7a.85.85,0,0,0,.8.7Z"/></g></g></g></svg>