<svg xmlns="http://www.w3.org/2000/svg" width="420.48" height="68.64" viewBox="0 0 420.48 68.64">
  <path id="h2-about" d="M57.984-65.472A5.229,5.229,0,0,0,53.952-67.2H17.664a5.435,5.435,0,0,0-4.128,1.728L5.28-56.64A5.617,5.617,0,0,0,3.84-52.8V-2.688A2.683,2.683,0,0,0,6.528,0,2.706,2.706,0,0,0,9.312-2.688v-24.96h52.9v24.96A2.706,2.706,0,0,0,64.992,0a2.706,2.706,0,0,0,2.784-2.688V-52.8a6.116,6.116,0,0,0-1.44-3.84ZM9.408-52.8l8.16-8.928c0-.1,0-.1.1-.1H53.952a.094.094,0,0,1,.1.1l8.16,8.928v19.584H9.312V-52.8Zm-.1,20.064c.1,0,.1.1,0,.1Zm52.9.1c-.1,0-.1-.1,0-.1Zm-52.9,4.416c.1.192.1.192,0,.288Zm52.9.288c-.1-.1-.1-.1,0-.288ZM150.336-9.792a5.374,5.374,0,0,0,1.728-4.032v-12a5.374,5.374,0,0,0-1.728-4.032l-7.776-7.2,6.912-6.432a5.675,5.675,0,0,0,1.824-4.128v-5.952a5.518,5.518,0,0,0-1.824-4.128l-8.928-8.256a5.553,5.553,0,0,0-3.744-1.44H87.84A2.706,2.706,0,0,0,85.056-64.7v61.92A2.786,2.786,0,0,0,87.84,0h49.728a5.617,5.617,0,0,0,3.84-1.44ZM136.8-61.92l8.928,8.256v6.048l-8.544,7.968H90.624V-61.92ZM90.624-5.568V-33.792h47.232l8.736,7.968v12l-9.024,8.256Zm149.76-51.744c-.1-.192-.288-.288-.384-.48l-8.928-8.16a5.457,5.457,0,0,0-3.552-1.536H183.84a2.386,2.386,0,0,0-.768.1,5.125,5.125,0,0,0-2.976,1.44l-9.888,9.12a3.1,3.1,0,0,0-.864,2.5v41.184a3.1,3.1,0,0,0,.864,2.5l.576.48a.75.75,0,0,0,.384.384L180.1-1.536A5.457,5.457,0,0,0,183.648,0h43.584c.288,0,.576-.1.768-.1a6.08,6.08,0,0,0,3.072-1.44l9.792-9.12a2.576,2.576,0,0,0,.864-2.5c0-.288.1-.48.1-.768V-53.664l-.1-.672a2.576,2.576,0,0,0-.864-2.5ZM227.232-5.568H183.84l-8.928-8.352V-53.568l8.928-8.352h43.488l8.928,8.256V-13.92ZM326.208-68.64a2.786,2.786,0,0,0-2.784,2.784V-14.5l-8.256,8.928H273.024L264.672-14.5v-51.36a2.786,2.786,0,0,0-2.784-2.784,2.786,2.786,0,0,0-2.784,2.784V-14.5a5.658,5.658,0,0,0,1.536,3.744L268.9-1.824A5.675,5.675,0,0,0,273.024,0h42.048A5.518,5.518,0,0,0,319.2-1.824l8.256-8.928A5.553,5.553,0,0,0,328.9-14.5v-51.36A2.706,2.706,0,0,0,326.208-68.64ZM385.248,0a2.786,2.786,0,0,0,2.784-2.784V-63.072h33.5a2.786,2.786,0,0,0,2.784-2.784,2.786,2.786,0,0,0-2.784-2.784H348.96a2.786,2.786,0,0,0-2.784,2.784,2.786,2.786,0,0,0,2.784,2.784h33.5V-2.784A2.786,2.786,0,0,0,385.248,0Z" transform="translate(-3.84 68.64)" fill="#fff"/>
</svg>
