<svg xmlns="http://www.w3.org/2000/svg" width="21" height="21" viewBox="0 0 21 21">
  <path id="icon-instagram" d="M6.727-12.82a5.2,5.2,0,0,1,3.82-1.57,5.2,5.2,0,0,1,3.82,1.57A5.2,5.2,0,0,1,15.938-9a5.2,5.2,0,0,1-1.57,3.82,5.2,5.2,0,0,1-3.82,1.57,5.2,5.2,0,0,1-3.82-1.57A5.2,5.2,0,0,1,5.156-9,5.2,5.2,0,0,1,6.727-12.82Zm1.336,6.3a3.386,3.386,0,0,0,2.484,1.031,3.386,3.386,0,0,0,2.484-1.031A3.386,3.386,0,0,0,14.063-9a3.386,3.386,0,0,0-1.031-2.484,3.386,3.386,0,0,0-2.484-1.031,3.386,3.386,0,0,0-2.484,1.031A3.386,3.386,0,0,0,7.031-9,3.386,3.386,0,0,0,8.063-6.516Zm8.977-8.977a1.178,1.178,0,0,1,.352.867,1.258,1.258,0,0,1-.352.891,1.142,1.142,0,0,1-.867.375,1.217,1.217,0,0,1-.891-.375,1.217,1.217,0,0,1-.375-.891,1.142,1.142,0,0,1,.375-.867,1.258,1.258,0,0,1,.891-.352A1.178,1.178,0,0,1,17.039-15.492ZM21-13.312q.047,1.266.047,4.313T21-4.687a6.465,6.465,0,0,1-1.711,4.43,6.3,6.3,0,0,1-4.43,1.664q-1.266.094-4.312.094T6.234,1.406A6.433,6.433,0,0,1,1.828-.281,4.524,4.524,0,0,1,.844-1.594,6.632,6.632,0,0,1,.3-3.047,7.278,7.278,0,0,1,.141-4.687Q.047-5.953.047-9t.094-4.359a6.37,6.37,0,0,1,1.688-4.359,6.316,6.316,0,0,1,4.406-1.734Q7.5-19.5,10.547-19.5t4.313.047a6.465,6.465,0,0,1,4.43,1.711A6.465,6.465,0,0,1,21-13.312Zm-2.25,10.5a5.084,5.084,0,0,0,.234-.961q.094-.586.141-1.406t.047-1.336v-4.969q0-.516-.047-1.336t-.141-1.406a5.084,5.084,0,0,0-.234-.961A3.383,3.383,0,0,0,16.734-17.2a5.084,5.084,0,0,0-.961-.234q-.586-.094-1.406-.141t-1.312-.047H8.063q-.516,0-1.336.047t-1.406.141a5.084,5.084,0,0,0-.961.234,3.383,3.383,0,0,0-2.016,2.016,5.084,5.084,0,0,0-.234.961q-.094.586-.141,1.406t-.047,1.313v4.5q0,.445.023,1.148t.07,1.2q.047.492.141,1.008t.188.844A3.554,3.554,0,0,0,4.359-.8a5.084,5.084,0,0,0,.961.234q.586.094,1.406.141t1.313.047h4.992q.516,0,1.336-.047t1.406-.141A5.084,5.084,0,0,0,16.734-.8,3.554,3.554,0,0,0,18.75-2.812Z" transform="translate(-0.047 19.5)" fill="#fff"/>
</svg>
