<svg xmlns="http://www.w3.org/2000/svg" width="268" height="140" viewBox="0 0 268 140">
  <g id="icon-server" transform="translate(-490 -4483)">
    <rect id="長方形_33" data-name="長方形 33" width="268" height="140" transform="translate(490 4483)" fill="none"/>
    <path id="iconmonstr-server-7" d="M140,46.667H0V70H140ZM11.667,64.167,16.7,52.5h7.438L19.1,64.167Zm12.052,0L28.758,52.5H36.2L31.162,64.167Zm12.057,0L40.81,52.5h7.438l-5.04,11.667Zm12.052,0L52.862,52.5h7.432L55.259,64.167Zm19.489,0H59.885L64.919,52.5h7.438l-5.04,11.667Zm55.183,0a5.833,5.833,0,1,1,5.833-5.833A5.835,5.835,0,0,1,122.5,64.167Zm17.5,17.5H0V105H140ZM11.667,99.167,16.7,87.5h7.438L19.1,99.167Zm12.052,0L28.752,87.5H36.19L31.156,99.167Zm12.057,0L40.81,87.5h7.438l-5.04,11.667Zm12.052,0L52.862,87.5h7.432L55.259,99.167Zm19.489,0H59.885L64.919,87.5h7.438l-5.04,11.667Zm55.183,0a5.833,5.833,0,1,1,5.833-5.833A5.835,5.835,0,0,1,122.5,99.167Zm17.5,17.5H0V140H140Zm-128.333,17.5L16.7,122.5h7.438L19.1,134.167Zm12.052,0L28.752,122.5H36.19l-5.034,11.667Zm12.057,0L40.81,122.5h7.438l-5.04,11.667Zm12.052,0L52.862,122.5h7.432l-5.034,11.667Zm19.489,0H59.885L64.919,122.5h7.438l-5.04,11.667Zm55.183,0a5.833,5.833,0,1,1,5.833-5.833A5.835,5.835,0,0,1,122.5,134.167ZM128.333,35H11.667L35,0h70Z" transform="translate(554 4483)" fill="#fff"/>
  </g>
</svg>
