<svg xmlns="http://www.w3.org/2000/svg" width="24" height="19.5" viewBox="0 0 24 19.5">
  <path id="icon-twitter" d="M21.516-13.875a2.793,2.793,0,0,1,.047.609,13.8,13.8,0,0,1-.937,4.945,15.591,15.591,0,0,1-2.648,4.5,12.632,12.632,0,0,1-4.43,3.3,14.042,14.042,0,0,1-6,1.266A13.656,13.656,0,0,1,0-1.453q.516.047,1.172.047A9.758,9.758,0,0,0,7.313-3.516,4.579,4.579,0,0,1,4.43-4.477,4.9,4.9,0,0,1,2.719-6.891q.469.047.891.047a6.248,6.248,0,0,0,1.313-.141,4.782,4.782,0,0,1-2.016-.937A5.136,5.136,0,0,1,1.5-9.633a4.716,4.716,0,0,1-.516-2.18v-.094a4.634,4.634,0,0,0,2.2.656,4.73,4.73,0,0,1-2.2-4.125,4.752,4.752,0,0,1,.7-2.484A13.572,13.572,0,0,0,6.164-14.2a13.625,13.625,0,0,0,5.648,1.5,6.832,6.832,0,0,1-.094-1.125,4.774,4.774,0,0,1,1.43-3.469,4.658,4.658,0,0,1,3.445-1.453A4.751,4.751,0,0,1,20.2-17.2a10.014,10.014,0,0,0,3.141-1.172,4.885,4.885,0,0,1-2.156,2.719,10.573,10.573,0,0,0,2.813-.8A10.819,10.819,0,0,1,21.516-13.875Z" transform="translate(0 18.75)" fill="#fff"/>
</svg>
