<svg xmlns="http://www.w3.org/2000/svg" width="268" height="140" viewBox="0 0 268 140">
  <g id="icon-writing" transform="translate(-490 -4483)">
    <rect id="長方形_33" data-name="長方形 33" width="268" height="140" transform="translate(490 4483)" fill="none"/>
    <path id="iconmonstr-pen-16" d="M62.714,76.02c6.755-.362,16.648-2.263,24.384-6.58a189.253,189.253,0,0,0,12.973-23.334,47.943,47.943,0,0,1-15.96-1.5c6.23-1.068,14.047-3.3,19.962-7.093,7.321-10.407,12.746-27.178,14.6-37.5a79.557,79.557,0,0,0-43.085,12.04C72,16.134,68.9,25.987,68.162,31.2c-1.616-3.768-2.794-9.8-1.412-14.828A131.651,131.651,0,0,0,42.385,33.057C38.185,41.97,37.52,52.249,37.9,58c-2.281-3.226-5.338-9.508-4.912-16.386C17.884,56.221,7.46,75.355,17.348,96,28.309,84.682,40.909,73.937,48.58,68.944,30.869,89.209,14.361,115.885,2,140l14.607-4.585c6.323-11.544,12.011-21.49,17.109-28.613,18.836,2.468,35.56-12.647,46.83-27.971-4.492,1.108-13.1-.338-17.833-2.812Z" transform="translate(564 4483)" fill="#fff"/>
  </g>
</svg>
