<svg xmlns="http://www.w3.org/2000/svg" width="24" height="24.019" viewBox="0 0 24 24.019">
  <path id="icon-blog" d="M8.063-10.359A6.508,6.508,0,0,1,12.375-7.5a6.484,6.484,0,0,1,.984,5.2,6.628,6.628,0,0,1-1.828,3.328A6.628,6.628,0,0,1,8.2,2.859,6.539,6.539,0,0,1,2.484,1.477,6.46,6.46,0,0,1,0-3.75V-15.375a1.085,1.085,0,0,1,.328-.8,1.085,1.085,0,0,1,.8-.328h2.25a1.085,1.085,0,0,1,.8.328,1.085,1.085,0,0,1,.328.8V-3.75a2.17,2.17,0,0,0,.656,1.594A2.17,2.17,0,0,0,6.75-1.5a2.17,2.17,0,0,0,1.594-.656A2.17,2.17,0,0,0,9-3.75a2.169,2.169,0,0,0-.187-.891,2.472,2.472,0,0,0-.516-.75,1.9,1.9,0,0,0-.75-.469,1.039,1.039,0,0,1-.8-1.031V-9.234a1.093,1.093,0,0,1,.4-.891A1.072,1.072,0,0,1,8.063-10.359ZM9.8-21a14.459,14.459,0,0,1,9.82,4.383A14.459,14.459,0,0,1,24-6.8a.812.812,0,0,1-.211.563A.693.693,0,0,1,23.25-6h-1.5a.73.73,0,0,1-.539-.211A.675.675,0,0,1,21-6.7a11.773,11.773,0,0,0-3.516-7.8A11.448,11.448,0,0,0,9.7-18a.889.889,0,0,1-.492-.258A.675.675,0,0,1,9-18.75v-1.5a.693.693,0,0,1,.234-.539A.812.812,0,0,1,9.8-21Zm0,4.5a10.166,10.166,0,0,1,6.656,3.047A10.166,10.166,0,0,1,19.5-6.8a.812.812,0,0,1-.211.563A.693.693,0,0,1,18.75-6h-1.5a.781.781,0,0,1-.539-.187A.654.654,0,0,1,16.5-6.7a7.2,7.2,0,0,0-2.18-4.641A7.3,7.3,0,0,0,9.7-13.5a.594.594,0,0,1-.352-.117.882.882,0,0,1-.258-.281A.7.7,0,0,1,9-14.25v-1.5a.767.767,0,0,1,.234-.562A.63.63,0,0,1,9.8-16.5Z" transform="translate(0 21)" fill="#fff"/>
</svg>
