<svg xmlns="http://www.w3.org/2000/svg" width="264.473" height="22.944" viewBox="0 0 264.473 22.944">
  <path id="link" d="M13.728,0a.9.9,0,0,0,.736-.384L25.952-16.256a.753.753,0,0,0,.192-.544v-5.152a.929.929,0,0,0-.928-.928.929.929,0,0,0-.928.928v4.864L13.728-2.5,3.136-17.088v-4.864a.929.929,0,0,0-.928-.928.929.929,0,0,0-.928.928v5.184a.727.727,0,0,0,.192.512L12.96-.384A.912.912,0,0,0,13.728,0Zm27.1-1.856h-8a.929.929,0,0,0-.928.928A.929.929,0,0,0,32.832,0H50.688a.929.929,0,0,0,.928-.928.929.929,0,0,0-.928-.928h-8V-20.9h8a.929.929,0,0,0,.928-.928.929.929,0,0,0-.928-.928H32.832a.929.929,0,0,0-.928.928.929.929,0,0,0,.928.928h8Zm38.3-1.376a.948.948,0,0,0,.032-1.312.919.919,0,0,0-1.312-.064L74.88-1.824H59.232V-10.3H74.976a.9.9,0,0,0,.9-.928.9.9,0,0,0-.9-.928H59.232v-8.448H74.88l2.976,2.752a.919.919,0,0,0,1.312-.064.908.908,0,0,0-.032-1.28l-3.008-2.784a1.74,1.74,0,0,0-1.248-.48H58.3a.929.929,0,0,0-.928.928V-.9A.923.923,0,0,0,58.3,0H74.88a1.74,1.74,0,0,0,1.248-.48Zm41.472-19.712a.929.929,0,0,0-.928.928v8.288l-.064.1-7.776,11.1-7.456-10.816-.1-.1v-8.576a.929.929,0,0,0-.928-.928.929.929,0,0,0-.928.928v8.288c-.032.032-.064.064-.064.1l-7.776,11.1L87.1-13.344c-.032-.032-.032-.064-.064-.1v-8.576a.929.929,0,0,0-.928-.928.929.929,0,0,0-.928.928v8.544a1.9,1.9,0,0,0,.448,1.216L93.824-.384A1,1,0,0,0,94.592,0a1.056,1.056,0,0,0,.768-.384l7.9-11.328L111.1-.384A.939.939,0,0,0,111.84,0a.954.954,0,0,0,.768-.384l8.48-12.16a1.757,1.757,0,0,0,.448-1.184v-8.288A.929.929,0,0,0,120.608-22.944Zm55.136.192a.954.954,0,0,0-.768.384L164.768-8.256,154.624-22.368a1,1,0,0,0-.768-.384h-3.232a.929.929,0,0,0-.928.928v20.9a.929.929,0,0,0,.928.928.929.929,0,0,0,.928-.928V-20.9h1.856L164.032-6.112a.939.939,0,0,0,.736.384,1,1,0,0,0,.768-.384L176.192-20.9h1.824V-.928a.929.929,0,0,0,.928.928.923.923,0,0,0,.9-.928v-20.9a.9.9,0,0,0-.9-.928ZM209.28-19.1c-.032-.064-.1-.1-.128-.16l-2.976-2.72a1.819,1.819,0,0,0-1.184-.512h-14.56a.8.8,0,0,0-.256.032,1.708,1.708,0,0,0-.992.48l-3.3,3.04a1.032,1.032,0,0,0-.288.832V-4.384a1.032,1.032,0,0,0,.288.832l.192.16a.25.25,0,0,0,.128.128l2.976,2.752A1.819,1.819,0,0,0,190.368,0H204.9c.1,0,.192-.032.256-.032a2.027,2.027,0,0,0,1.024-.48l3.264-3.04a.859.859,0,0,0,.288-.832c0-.1.032-.16.032-.256V-17.888l-.032-.224a.859.859,0,0,0-.288-.832ZM204.9-1.856H190.432L187.456-4.64V-17.856l2.976-2.784h14.5l2.976,2.752V-4.64Zm33.056.928-.928-.928h-2.688L230.688-9.28h2.336a1.74,1.74,0,0,0,1.248-.48l3.008-2.752a1.992,1.992,0,0,0,.576-1.376v-3.968a1.992,1.992,0,0,0-.576-1.376l-3.008-2.752a1.74,1.74,0,0,0-1.248-.48H216.448a.9.9,0,0,0-.928.9V-.928a.929.929,0,0,0,.928.928.929.929,0,0,0,.928-.928V-9.28H228.64l4.192,8.512a.756.756,0,0,0,.192.288,1.851,1.851,0,0,0,1.248.48h2.752A.929.929,0,0,0,237.952-.928ZM217.376-11.1V-20.64h15.648L236-17.856l.032,3.968a.031.031,0,0,0-.032.032l-2.976,2.72v.032Zm48.1,7.872a.948.948,0,0,0,.032-1.312.919.919,0,0,0-1.312-.064l-2.976,2.784H245.568V-10.3h15.744a.9.9,0,0,0,.9-.928.9.9,0,0,0-.9-.928H245.568v-8.448h15.648l2.976,2.752a.919.919,0,0,0,1.312-.064.908.908,0,0,0-.032-1.28l-3.008-2.784a1.74,1.74,0,0,0-1.248-.48H244.64a.929.929,0,0,0-.928.928V-.9a.923.923,0,0,0,.928.9h16.576a1.74,1.74,0,0,0,1.248-.48Z" transform="translate(-1.28 22.944)" fill="#fff"/>
</svg>
