<svg xmlns="http://www.w3.org/2000/svg" width="529.968" height="148.832" viewBox="0 0 529.968 148.832">
  <path id="site-title" d="M70.944-68.64a2.786,2.786,0,0,0-2.784,2.784V-14.5L59.9-5.568H17.76L9.408-14.5v-51.36A2.786,2.786,0,0,0,6.624-68.64,2.786,2.786,0,0,0,3.84-65.856V-14.5a5.658,5.658,0,0,0,1.536,3.744l8.256,8.928A5.675,5.675,0,0,0,17.76,0H59.808a5.518,5.518,0,0,0,4.128-1.824l8.256-8.928a5.553,5.553,0,0,0,1.44-3.744v-51.36A2.706,2.706,0,0,0,70.944-68.64ZM148.8,0a5.219,5.219,0,0,0,3.744-1.44l9.888-9.12a2.76,2.76,0,0,0,.192-3.936,2.757,2.757,0,0,0-3.936-.192L148.8-5.568H105.408l-9.024-8.256V-53.568l9.024-8.352H148.8l9.888,9.12a2.753,2.753,0,0,0,3.936-.1,2.757,2.757,0,0,0-.192-3.936l-9.888-9.12a5.219,5.219,0,0,0-3.744-1.44H105.408a5.219,5.219,0,0,0-3.744,1.44L92.64-57.7a5.583,5.583,0,0,0-1.728,4.128v39.744A5.583,5.583,0,0,0,92.64-9.7l9.024,8.256A5.219,5.219,0,0,0,105.408,0Zm34.656.1a2.786,2.786,0,0,0,2.784-2.784V-31.68h55.968V-2.688A2.706,2.706,0,0,0,244.9.1a2.786,2.786,0,0,0,2.784-2.784V-65.376A2.786,2.786,0,0,0,244.9-68.16a2.706,2.706,0,0,0-2.688,2.784v28.128H186.24V-65.376a2.786,2.786,0,0,0-2.784-2.784,2.786,2.786,0,0,0-2.784,2.784V-2.688A2.786,2.786,0,0,0,183.456.1ZM291.744-5.568h-24a2.786,2.786,0,0,0-2.784,2.784A2.786,2.786,0,0,0,267.744,0h53.568A2.786,2.786,0,0,0,324.1-2.784a2.786,2.786,0,0,0-2.784-2.784h-24v-57.12h24a2.786,2.786,0,0,0,2.784-2.784,2.786,2.786,0,0,0-2.784-2.784H267.744a2.786,2.786,0,0,0-2.784,2.784,2.786,2.786,0,0,0,2.784,2.784h24Zm155.9-63.264a2.786,2.786,0,0,0-2.784,2.784v24.864l-.192.288L421.344-7.584,398.976-40.032l-.288-.288V-66.048a2.786,2.786,0,0,0-2.784-2.784,2.786,2.786,0,0,0-2.784,2.784v24.864c-.1.1-.192.192-.192.288L369.6-7.584,347.136-40.032c-.1-.1-.1-.192-.192-.288V-66.048a2.786,2.786,0,0,0-2.784-2.784,2.786,2.786,0,0,0-2.784,2.784v25.632a5.705,5.705,0,0,0,1.344,3.648L367.3-1.152A3.007,3.007,0,0,0,369.6,0a3.167,3.167,0,0,0,2.3-1.152l23.712-33.984,23.52,33.984A2.818,2.818,0,0,0,421.344,0a2.861,2.861,0,0,0,2.3-1.152l25.44-36.48a5.269,5.269,0,0,0,1.344-3.552V-66.048A2.786,2.786,0,0,0,447.648-68.832Zm74.208,3.36a5.229,5.229,0,0,0-4.032-1.728H481.536a5.435,5.435,0,0,0-4.128,1.728l-8.256,8.832a5.617,5.617,0,0,0-1.44,3.84V-2.688A2.683,2.683,0,0,0,470.4,0a2.706,2.706,0,0,0,2.784-2.688v-24.96h52.9v24.96A2.706,2.706,0,0,0,528.864,0a2.706,2.706,0,0,0,2.784-2.688V-52.8a6.116,6.116,0,0,0-1.44-3.84ZM473.28-52.8l8.16-8.928c0-.1,0-.1.1-.1h36.288a.094.094,0,0,1,.1.1l8.16,8.928v19.584h-52.9V-52.8Zm-.1,20.064c.1,0,.1.1,0,.1Zm52.9.1c-.1,0-.1-.1,0-.1Zm-52.9,4.416c.1.192.1.192,0,.288Zm52.9.288c-.1-.1-.1-.1,0-.288ZM27.006,80a2.283,2.283,0,0,0,1.638-.63l4.326-3.99a1.219,1.219,0,0,0-1.638-1.806l-4.326,3.99H8.022L4.074,73.952V56.564L8.022,52.91H27.006l4.326,3.99a1.2,1.2,0,1,0,1.638-1.764l-4.326-3.99a2.283,2.283,0,0,0-1.638-.63H8.022a2.283,2.283,0,0,0-1.638.63L2.436,54.758a2.443,2.443,0,0,0-.756,1.806V73.952a2.443,2.443,0,0,0,.756,1.806L6.384,79.37A2.283,2.283,0,0,0,8.022,80Zm41.286-1.218-1.218-1.218H63.546L58.758,67.82h3.066a2.283,2.283,0,0,0,1.638-.63l3.948-3.612a2.614,2.614,0,0,0,.756-1.806V56.564a2.614,2.614,0,0,0-.756-1.806l-3.948-3.612a2.283,2.283,0,0,0-1.638-.63H40.068a1.184,1.184,0,0,0-1.218,1.176v27.09a1.218,1.218,0,1,0,2.436,0V67.82H56.07l5.5,11.172a.992.992,0,0,0,.252.378,2.43,2.43,0,0,0,1.638.63h3.612A1.219,1.219,0,0,0,68.292,78.782ZM41.286,65.426V52.91H61.824l3.906,3.654.042,5.208a.041.041,0,0,0-.042.042l-3.906,3.57v.042Zm61.026,10.332a1.244,1.244,0,0,0,.042-1.722,1.206,1.206,0,0,0-1.722-.084l-3.906,3.654H76.188V66.476H96.852a1.219,1.219,0,0,0,0-2.436H76.188V52.952H96.726l3.906,3.612a1.206,1.206,0,0,0,1.722-.084,1.192,1.192,0,0,0-.042-1.68l-3.948-3.654a2.283,2.283,0,0,0-1.638-.63H74.97a1.219,1.219,0,0,0-1.218,1.218v27.09A1.211,1.211,0,0,0,74.97,80H96.726a2.283,2.283,0,0,0,1.638-.63Zm29.526-24.4a2.288,2.288,0,0,0-1.764-.756H114.2a2.378,2.378,0,0,0-1.806.756L108.78,55.22a2.458,2.458,0,0,0-.63,1.68V78.824a1.2,1.2,0,0,0,2.394,0V67.9h23.142v10.92a1.219,1.219,0,0,0,2.436,0V56.9a2.676,2.676,0,0,0-.63-1.68ZM110.586,56.9l3.57-3.906c0-.042,0-.042.042-.042h15.876a.041.041,0,0,1,.042.042l3.57,3.906v8.568H110.544V56.9Zm-.042,8.778c.042,0,.042.042,0,.042Zm23.142.042c-.042,0-.042-.042,0-.042Zm-23.142,1.932c.042.084.042.084,0,.126Zm23.142.126c-.042-.042-.042-.042,0-.126ZM158.676,80a1.219,1.219,0,0,0,1.218-1.218V52.406h14.658a1.218,1.218,0,1,0,0-2.436H142.8a1.218,1.218,0,1,0,0,2.436h14.658V78.782A1.219,1.219,0,0,0,158.676,80Zm34.272-2.436h-10.5a1.218,1.218,0,1,0,0,2.436h23.436a1.218,1.218,0,1,0,0-2.436h-10.5V52.574h10.5a1.218,1.218,0,1,0,0-2.436H182.448a1.218,1.218,0,1,0,0,2.436h10.5ZM228.9,80a1.177,1.177,0,0,0,.966-.5l15.078-20.832a.988.988,0,0,0,.252-.714V51.188a1.218,1.218,0,0,0-2.436,0v6.384L228.9,76.724,215,57.572V51.188a1.218,1.218,0,0,0-2.436,0v6.8a.954.954,0,0,0,.252.672L227.892,79.5A1.2,1.2,0,0,0,228.9,80Zm50.316-4.242a1.244,1.244,0,0,0,.042-1.722,1.206,1.206,0,0,0-1.722-.084l-3.906,3.654H253.092V66.476h20.664a1.219,1.219,0,0,0,0-2.436H253.092V52.952H273.63l3.906,3.612a1.206,1.206,0,0,0,1.722-.084,1.192,1.192,0,0,0-.042-1.68l-3.948-3.654a2.283,2.283,0,0,0-1.638-.63H251.874a1.219,1.219,0,0,0-1.218,1.218v27.09A1.211,1.211,0,0,0,251.874,80H273.63a2.283,2.283,0,0,0,1.638-.63ZM339.36,50.642a2.5,2.5,0,0,0-1.68-.672H318.738a2.5,2.5,0,0,0-1.68.672l-3.906,3.612a2.414,2.414,0,0,0-.8,1.806V59.5a2.414,2.414,0,0,0,.8,1.806l3.906,3.612a2.475,2.475,0,0,0,1.638.672h18.648l3.948,3.612v4.746l-3.948,3.612H318.7l-4.284-3.99a1.206,1.206,0,0,0-1.722.084,1.244,1.244,0,0,0,.042,1.722l4.326,3.99A2.654,2.654,0,0,0,318.7,80h18.648a2.458,2.458,0,0,0,1.68-.63l3.906-3.654a2.414,2.414,0,0,0,.8-1.806V69.248a2.483,2.483,0,0,0-.8-1.806l-3.906-3.654a2.458,2.458,0,0,0-1.68-.63H318.7l-3.906-3.612V56.06l3.906-3.654h19.026l4.284,3.99a1.206,1.206,0,0,0,1.722-.084,1.191,1.191,0,0,0-.042-1.68ZM365.778,80A1.219,1.219,0,0,0,367,78.782V52.406h14.658a1.218,1.218,0,1,0,0-2.436H349.9a1.218,1.218,0,1,0,0,2.436H364.56V78.782A1.219,1.219,0,0,0,365.778,80ZM417.69,49.97a1.219,1.219,0,0,0-1.218,1.218v22.47l-3.612,3.906H394.422l-3.654-3.906V51.188a1.218,1.218,0,0,0-2.436,0v22.47A2.475,2.475,0,0,0,389,75.3l3.612,3.906a2.483,2.483,0,0,0,1.806.8h18.4a2.414,2.414,0,0,0,1.806-.8l3.612-3.906a2.43,2.43,0,0,0,.63-1.638V51.188A1.184,1.184,0,0,0,417.69,49.97Zm37.086,25.746a2.392,2.392,0,0,0,.8-1.764V56.564a2.414,2.414,0,0,0-.8-1.806l-3.906-3.612a2.43,2.43,0,0,0-1.638-.63H425.544a1.184,1.184,0,0,0-1.218,1.176v27.09A1.219,1.219,0,0,0,425.544,80H449.19a2.458,2.458,0,0,0,1.68-.63Zm-28.014,1.848V52.91h22.47l3.906,3.612v17.43l-3.906,3.612h-22.47Zm45.99,0h-10.5a1.218,1.218,0,1,0,0,2.436h23.436a1.218,1.218,0,0,0,0-2.436h-10.5V52.574h10.5a1.218,1.218,0,0,0,0-2.436H462.252a1.218,1.218,0,1,0,0,2.436h10.5Zm50.694-22.638c-.042-.084-.126-.126-.168-.21l-3.906-3.57a2.388,2.388,0,0,0-1.554-.672h-19.11a1.044,1.044,0,0,0-.336.042,2.242,2.242,0,0,0-1.3.63l-4.326,3.99a1.354,1.354,0,0,0-.378,1.092V74.246a1.354,1.354,0,0,0,.378,1.092l.252.21a.328.328,0,0,0,.168.168l3.906,3.612a2.388,2.388,0,0,0,1.554.672h19.068c.126,0,.252-.042.336-.042a2.66,2.66,0,0,0,1.344-.63l4.284-3.99a1.127,1.127,0,0,0,.378-1.092c0-.126.042-.21.042-.336V56.522l-.042-.294a1.127,1.127,0,0,0-.378-1.092Zm-5.754,22.638H498.708L494.8,73.91V56.564l3.906-3.654h19.026l3.906,3.612V73.91Z" transform="translate(-1.68 68.832)" fill="#fff"/>
</svg>
