<svg xmlns="http://www.w3.org/2000/svg" width="300" height="300" viewBox="0 0 300 300">
  <defs>
    <style>
      .cls-1 {
        fill: #fff;
        fill-rule: evenodd;
      }
    </style>
  </defs>
  <path id="CONCEPT" class="cls-1" d="M41.331,64.983a2.61,2.61,0,0,0,1.833.815l6.721,0.272a1.393,1.393,0,0,0,.136-2.783L43.3,63.014,27.957,47.671l-0.272-6.11L41.738,27.508l6.144,0.238L63.225,43.089,63.5,49.81a1.376,1.376,0,1,0,2.75-.1l-0.272-6.721a2.61,2.61,0,0,0-.815-1.833L49.817,25.811A2.61,2.61,0,0,0,47.984,25l-6.11-.271a2.791,2.791,0,0,0-2.07.849L25.751,39.626A2.792,2.792,0,0,0,24.9,41.7l0.272,6.11a2.61,2.61,0,0,0,.815,1.833ZM101.375,84.5c0.033-.1,0-0.2.033-0.305l-0.271-6.042a2.73,2.73,0,0,0-.713-1.8l-0.1-.1L84.98,60.906a1.2,1.2,0,0,0-.306-0.238,2.563,2.563,0,0,0-1.561-.543l-6.721-.271a1.548,1.548,0,0,0-1.188.577l-0.272.272L60.879,74.755l-0.238.238a1.548,1.548,0,0,0-.577,1.188L60.1,76.554a0.374,0.374,0,0,0,0,.272L60.336,82.9a2.728,2.728,0,0,0,.713,1.8l0.068,0.068L76.46,100.111c0.1,0.1.238,0.17,0.306,0.238a3.045,3.045,0,0,0,1.6.577l6.687,0.238a1.289,1.289,0,0,0,1.188-.577c0.1-.1.2-0.136,0.305-0.238L100.594,86.3l0.2-.272a1.291,1.291,0,0,0,.577-1.188V84.5ZM78.428,98.143L63.086,82.8l-0.2-6.11L76.9,62.671l6.11,0.2L98.354,78.217l0.034,0.034,0.238,6.076L84.572,98.38Zm61.945,17.613a1.394,1.394,0,0,0-1.969,0l-21.181,21.181-1.9-1.9L119.871,96a1.434,1.434,0,0,0-.408-1.154l-3.224-3.225a1.393,1.393,0,0,0-1.969,0L92.1,113.787a1.392,1.392,0,0,0,1.969,1.969l21.181-21.181,1.8,1.731-4.582,39.07a1.367,1.367,0,0,0,.407,1.154l3.361,3.36a1.391,1.391,0,0,0,1.968,0l22.166-22.165A1.394,1.394,0,0,0,140.373,115.756Zm6.82,55.088a2.61,2.61,0,0,0,1.833.815l6.72,0.271a1.393,1.393,0,1,0,.136-2.783l-6.721-.271-15.342-15.343-0.272-6.11L147.6,133.37l6.144,0.238,15.343,15.342,0.271,6.721a1.376,1.376,0,1,0,2.75-.1l-0.272-6.72a2.61,2.61,0,0,0-.815-1.833l-15.342-15.343a2.612,2.612,0,0,0-1.833-.815l-6.11-.271a2.792,2.792,0,0,0-2.071.848l-14.053,14.053a2.792,2.792,0,0,0-.848,2.071l0.271,6.11a2.614,2.614,0,0,0,.815,1.833Zm41.17,34.314a1.422,1.422,0,0,0,1.426-1.357,1.379,1.379,0,0,0-1.324-1.46l-6.11-.2-16.6-16.6,9-8.995,16.7,16.7a1.393,1.393,0,0,0,1.969-1.969l-16.7-16.7,8.961-8.961,16.6,16.6,0.238,6.076a1.379,1.379,0,0,0,1.46,1.324,1.363,1.363,0,0,0,1.323-1.392l-0.237-6.144a2.614,2.614,0,0,0-.815-1.833L186.666,162.66a1.394,1.394,0,0,0-1.969,0l-10.93,10.93L162.8,184.554a1.383,1.383,0,0,0,.033,1.935l17.583,17.583a2.614,2.614,0,0,0,1.833.815ZM237.987,215a2.81,2.81,0,0,0-.849-1.867l-17.583-17.583a1.394,1.394,0,0,0-1.969,0l-21.894,21.894a1.393,1.393,0,0,0,1.969,1.969l8.86-8.859,16.6,16.6a2.651,2.651,0,0,0,1.867.781l6.11,0.271a2.687,2.687,0,0,0,2.037-.814l4.243-4.243a2.687,2.687,0,0,0,.814-2.037Zm-2.546,6.212-4.243,4.243-6.11-.272-16.6-16.6L218.571,198.5l16.6,16.6Zm6.311,44.192a1.392,1.392,0,0,0,1.968,0l21.317-21.317,11.847,11.847a1.392,1.392,0,1,0,1.968-1.969L253.191,228.3a1.392,1.392,0,0,0-1.969,1.969l11.846,11.847-21.316,21.317A1.391,1.391,0,0,0,241.752,265.4Z"/>
</svg>
