<svg xmlns="http://www.w3.org/2000/svg" width="300" height="300" viewBox="0 0 300 300">
  <defs>
    <style>
      .cls-1 {
        fill: #fff;
        fill-rule: evenodd;
      }
    </style>
  </defs>
  <path id="CODING" class="cls-1" d="M60.355,84.007a2.61,2.61,0,0,0,1.833.815l6.721,0.272a1.393,1.393,0,0,0,.136-2.784l-6.721-.272L46.981,66.7l-0.272-6.11L60.762,46.533l6.144,0.238L82.249,62.113l0.272,6.721a1.376,1.376,0,1,0,2.749-.1L85,62.011a2.61,2.61,0,0,0-.815-1.833L68.841,44.835a2.61,2.61,0,0,0-1.833-.815l-6.11-.272a2.792,2.792,0,0,0-2.071.849L44.775,58.651a2.792,2.792,0,0,0-.849,2.071l0.272,6.11a2.61,2.61,0,0,0,.815,1.833ZM120.4,103.521c0.034-.1,0-0.2.034-0.305l-0.272-6.042a2.725,2.725,0,0,0-.713-1.8l-0.1-.1L104,79.93a1.2,1.2,0,0,0-.306-0.238,2.561,2.561,0,0,0-1.561-.543l-6.721-.272a1.548,1.548,0,0,0-1.188.577l-0.272.272L79.9,93.779l-0.238.238a1.548,1.548,0,0,0-.577,1.188l0.034,0.373a0.374,0.374,0,0,0,0,.272l0.238,6.076a2.728,2.728,0,0,0,.713,1.8l0.068,0.068,15.343,15.343c0.1,0.1.238,0.169,0.305,0.237a3.036,3.036,0,0,0,1.6.577l6.687,0.238a1.289,1.289,0,0,0,1.188-.577c0.1-.1.2-0.136,0.3-0.238l14.053-14.053,0.2-.271a1.289,1.289,0,0,0,.577-1.188v-0.34ZM97.453,117.167L82.11,101.824l-0.2-6.11L95.925,81.7l6.11,0.2,15.343,15.343,0.034,0.034,0.237,6.076L103.6,117.4Zm40.763,37.776a2.731,2.731,0,0,0,2.071-.781l14.052-14.052a2.756,2.756,0,0,0,.815-2.105l-0.237-6.076a2.778,2.778,0,0,0-.815-1.833l-19.145-19.144a1.352,1.352,0,0,0-1.934-.034l-21.894,21.894a1.392,1.392,0,0,0,0,1.968l19.11,19.111a2.81,2.81,0,0,0,1.867.849ZM114.082,133.8l19.925-19.925,18.16,18.16,0.238,6.076-14.087,14.087-6.076-.238-0.034-.034Zm42.257,42.257-8.486-8.486a1.392,1.392,0,1,0-1.969,1.969l18.941,18.941a1.392,1.392,0,1,0,1.969-1.969l-8.486-8.486,20.2-20.2,8.486,8.486a1.392,1.392,0,0,0,1.969-1.969L170.018,145.4a1.392,1.392,0,1,0-1.968,1.968l8.486,8.486Zm68.225,23.894a1.394,1.394,0,0,0-1.969,0l-21.181,21.181-1.9-1.9,4.549-39.035a1.439,1.439,0,0,0-.408-1.155l-3.224-3.224a1.394,1.394,0,0,0-1.969,0L176.3,197.978a1.392,1.392,0,1,0,1.969,1.969l21.181-21.181,1.8,1.731-4.582,39.07a1.367,1.367,0,0,0,.407,1.154l3.361,3.36a1.392,1.392,0,0,0,1.968,0l22.166-22.165A1.394,1.394,0,0,0,224.564,199.947Zm-9.338,37.912a2.61,2.61,0,0,0,.815,1.833l15.342,15.343a2.834,2.834,0,0,0,1.833.815l6.721,0.271a1.488,1.488,0,0,0,1.053-.441l7.433-7.434a1.384,1.384,0,0,0,.034-1.935l-11.846-11.846a1.392,1.392,0,0,0-1.969,1.969L245.5,247.3l-6.042,6.042-6.11-.272-15.343-15.342-0.271-6.11,14.053-14.053,6.144,0.237,15.342,15.343,0.272,6.721a1.376,1.376,0,1,0,2.749-.1l-0.271-6.721a2.612,2.612,0,0,0-.815-1.833l-15.343-15.342a2.606,2.606,0,0,0-1.833-.815l-6.11-.272a2.792,2.792,0,0,0-2.07.849L215.8,229.679a2.8,2.8,0,0,0-.849,2.07Z"/>
</svg>
