<svg xmlns="http://www.w3.org/2000/svg" width="300" height="300" viewBox="0 0 300 300">
  <defs>
    <style>
      .cls-1 {
        fill: #fff;
        fill-rule: evenodd;
      }
    </style>
  </defs>
  <path id="DESIGN" class="cls-1" d="M69.169,86.229a2.733,2.733,0,0,0,2.071-.781L85.293,71.4a2.759,2.759,0,0,0,.815-2.1L85.87,63.215a2.777,2.777,0,0,0-.815-1.833L65.911,42.237a1.353,1.353,0,0,0-1.935-.034L42.082,64.1a1.393,1.393,0,0,0,0,1.969l19.111,19.11a2.81,2.81,0,0,0,1.867.849ZM45.035,65.082L64.96,45.157l18.16,18.16,0.238,6.076L69.271,83.479,63.2,83.242l-0.034-.034Zm57.328,54.409a1.422,1.422,0,0,0,1.426-1.358,1.379,1.379,0,0,0-1.324-1.46l-6.11-.2-16.6-16.6,9-9,16.7,16.7a1.393,1.393,0,0,0,1.969-1.968l-16.7-16.7,8.961-8.961,16.6,16.6,0.238,6.076a1.378,1.378,0,0,0,1.459,1.324,1.363,1.363,0,0,0,1.324-1.391l-0.237-6.144a2.611,2.611,0,0,0-.815-1.833L100.666,76.993a1.393,1.393,0,0,0-1.969,0l-10.93,10.93L76.8,98.887a1.383,1.383,0,0,0,.034,1.934L94.42,118.4a2.607,2.607,0,0,0,1.833.815Zm51.932,11.334a2.855,2.855,0,0,0-.815-1.9l-15.309-15.309a2.854,2.854,0,0,0-1.9-.814l-6.076-.238a2.759,2.759,0,0,0-2.1.815l-2.784,2.783a2.759,2.759,0,0,0-.814,2.105l0.237,6.076a2.832,2.832,0,0,0,.781,1.867l15.071,15.071,0.272,6.11-3.8,3.8-0.034.034-6.11-.271-15.071-15.071L115.6,129.2a1.377,1.377,0,0,0-1.459-1.324,1.422,1.422,0,0,0-1.358,1.426l0.272,6.72a3.033,3.033,0,0,0,.814,1.833l15.071,15.072a2.813,2.813,0,0,0,1.867.848l6.11,0.2a2.76,2.76,0,0,0,2.105-.815l3.768-3.768a2.836,2.836,0,0,0,.814-2.1l-0.2-6.11a2.81,2.81,0,0,0-.849-1.867L127.479,124.24l-0.238-6.076,0.034-.034,2.784-2.783,6.11,0.2,0.034,0.034,15.308,15.309,0.034,0.034,0.238,6.687a1.378,1.378,0,0,0,1.459,1.324,1.362,1.362,0,0,0,1.324-1.392Zm0.336,43.852-8.486-8.486a1.392,1.392,0,0,0-1.969,1.969L163.117,187.1a1.392,1.392,0,0,0,1.968-1.969l-8.486-8.486,20.2-20.2,8.486,8.486a1.392,1.392,0,1,0,1.969-1.968L168.31,144.026A1.392,1.392,0,0,0,166.341,146l8.486,8.486Zm23.283,26.2a2.609,2.609,0,0,0,.814,1.833l15.343,15.343a2.832,2.832,0,0,0,1.833.815l6.721,0.271a1.486,1.486,0,0,0,1.052-.441l7.434-7.434a1.383,1.383,0,0,0,.034-1.934L199.3,197.485a1.392,1.392,0,0,0-1.968,1.969l10.862,10.862-6.042,6.042-6.11-.272L180.7,200.744l-0.271-6.11,14.052-14.053,6.144,0.238,15.343,15.342,0.272,6.721a1.376,1.376,0,1,0,2.749-.1l-0.272-6.721a2.613,2.613,0,0,0-.814-1.833l-15.343-15.342a2.61,2.61,0,0,0-1.833-.815l-6.11-.271a2.789,2.789,0,0,0-2.07.848L178.491,192.7a2.793,2.793,0,0,0-.849,2.071Zm80.07,32.821a1.392,1.392,0,0,0-1.968,0l-21.181,21.181-1.9-1.9,4.548-39.035a1.435,1.435,0,0,0-.407-1.154l-3.225-3.225a1.394,1.394,0,0,0-1.969,0l-22.165,22.165a1.392,1.392,0,0,0,1.969,1.969l21.181-21.181,1.8,1.731-4.583,39.07a1.365,1.365,0,0,0,.408,1.154l3.36,3.36a1.394,1.394,0,0,0,1.969,0l22.165-22.165A1.392,1.392,0,0,0,257.984,233.7Z"/>
</svg>
