<svg xmlns="http://www.w3.org/2000/svg" width="300" height="300" viewBox="0 0 300 300">
  <defs>
    <style>
      .cls-1 {
        fill: #fff;
        fill-rule: evenodd;
      }
    </style>
  </defs>
  <path id="WORDPRESS" class="cls-1" d="M60.622,43.721a1.161,1.161,0,0,0-1.64,0l-7.324,7.324-0.141.028L34.831,54.015,37.8,37.867V37.7l7.579-7.579a1.16,1.16,0,1,0-1.64-1.64L36.415,35.8a0.212,0.212,0,0,0-.141.028L19.588,38.772,22.529,22.6c0-.056.028-0.085,0.028-0.141l7.579-7.579a1.16,1.16,0,0,0-1.64-1.64l-7.551,7.551a2.377,2.377,0,0,0-.679,1.471L17.015,39.988a1.253,1.253,0,0,0,.339,1.018,1.32,1.32,0,0,0,1.018.339l17-3.026L32.286,55.259a1.174,1.174,0,0,0,.311.99,1.192,1.192,0,0,0,1.018.339l18.24-3.252a2.2,2.2,0,0,0,1.442-.65l7.324-7.324A1.161,1.161,0,0,0,60.622,43.721ZM86.9,76.786c0.028-.085,0-0.17.028-0.254L86.7,71.5a2.274,2.274,0,0,0-.594-1.5l-0.085-.085L73.241,57.132a0.993,0.993,0,0,0-.254-0.2,2.135,2.135,0,0,0-1.3-.453l-5.6-.226a1.29,1.29,0,0,0-.99.481l-0.226.226L53.163,68.67l-0.2.2a1.29,1.29,0,0,0-.481.99l0.028,0.311a0.313,0.313,0,0,0,0,.226l0.2,5.062a2.273,2.273,0,0,0,.594,1.5l0.056,0.056L66.143,89.795c0.085,0.085.2,0.141,0.255,0.2a2.533,2.533,0,0,0,1.329.481l5.571,0.2a1.073,1.073,0,0,0,.99-0.481c0.085-.085.17-0.113,0.254-0.2L86.25,78.285l0.17-.226a1.073,1.073,0,0,0,.481-0.99V76.786ZM67.783,88.154L55,75.372l-0.17-5.09L66.51,58.6l5.09,0.17L84.383,71.554l0.028,0.028,0.2,5.062L72.9,88.352ZM99.008,121.02v-1.64L96.633,117l3.337-9.785,2.064,2.065a2.175,2.175,0,0,0,1.527.678l5.091,0.227a2.492,2.492,0,0,0,1.725-.707l3.506-3.507a2.486,2.486,0,0,0,.707-1.725l-0.226-5.09a2.171,2.171,0,0,0-.679-1.527L99.037,82.984a1.127,1.127,0,0,0-1.612-.028L79.184,101.2a1.16,1.16,0,0,0,1.64,1.64l7.381-7.381,9.954,9.954-3.818,11.227a0.95,0.95,0,0,0-.085.425,2.315,2.315,0,0,0,.679,1.527l2.432,2.432A1.161,1.161,0,0,0,99.008,121.02ZM89.817,93.843l8.427-8.427,13.828,13.829,0.17,5.09-3.478,3.535a0.039,0.039,0,0,0-.057,0l-5.034-.226-0.028.028ZM129.5,147.381a2.277,2.277,0,0,0,1.725-.651l11.708-11.708a2.3,2.3,0,0,0,.678-1.753l-0.2-5.062a2.311,2.311,0,0,0-.678-1.527l-15.95-15.95a1.128,1.128,0,0,0-1.612-.028l-18.24,18.24a1.161,1.161,0,0,0,0,1.641L122.852,146.5a2.341,2.341,0,0,0,1.556.707Zm-20.107-17.618,16.6-16.6,15.13,15.13,0.2,5.062L129.583,145.09l-5.062-.2-0.029-.028ZM171.1,155.9a2.343,2.343,0,0,0-.707-1.555l-14.649-14.649a1.161,1.161,0,0,0-1.64,0l-18.241,18.24a1.161,1.161,0,0,0,1.641,1.641l7.381-7.381,13.828,13.828a2.205,2.205,0,0,0,1.556.651l5.09,0.226a2.24,2.24,0,0,0,1.7-.679l3.535-3.535a2.236,2.236,0,0,0,.678-1.7Zm-2.121,5.176-3.535,3.534-5.09-.226-13.829-13.828,8.4-8.4,13.829,13.828Zm14.4,44.318v-1.64L181,201.375l3.337-9.784,2.065,2.064a2.174,2.174,0,0,0,1.527.679l5.09,0.226a2.486,2.486,0,0,0,1.725-.707l3.507-3.507a2.489,2.489,0,0,0,.707-1.725l-0.227-5.09a2.175,2.175,0,0,0-.678-1.527l-14.649-14.649a1.127,1.127,0,0,0-1.612-.028l-18.24,18.24a1.16,1.16,0,0,0,1.64,1.64l7.381-7.381,9.954,9.955-3.817,11.227a0.936,0.936,0,0,0-.085.424,2.315,2.315,0,0,0,.678,1.527l2.432,2.432A1.161,1.161,0,0,0,183.38,205.391Zm-9.191-27.176,8.427-8.428,13.829,13.829,0.169,5.09-3.478,3.535a0.039,0.039,0,0,0-.056,0l-5.034-.226-0.028.028Zm38.38,52.293a1.184,1.184,0,0,0,1.187-1.131,1.147,1.147,0,0,0-1.1-1.216l-5.09-.17-13.829-13.829,7.494-7.494,13.914,13.914a1.161,1.161,0,0,0,1.64-1.641l-13.913-13.913,7.465-7.466,13.829,13.829,0.2,5.062a1.149,1.149,0,0,0,1.216,1.1,1.136,1.136,0,0,0,1.1-1.16l-0.2-5.118a2.17,2.17,0,0,0-.679-1.527L211.155,195.1a1.161,1.161,0,0,0-1.641,0l-9.106,9.106-9.134,9.134a1.154,1.154,0,0,0,.028,1.612L205.951,229.6a2.176,2.176,0,0,0,1.527.679Zm43.272,9.45a2.383,2.383,0,0,0-.679-1.584L242.408,225.62a2.383,2.383,0,0,0-1.584-.679l-5.062-.2a2.3,2.3,0,0,0-1.753.679l-2.319,2.319a2.3,2.3,0,0,0-.679,1.753l0.2,5.062a2.362,2.362,0,0,0,.651,1.556l12.556,12.556,0.226,5.09-3.167,3.167-0.029.029-5.09-.227L223.8,244.171l-0.2-5.571a1.149,1.149,0,0,0-1.216-1.1,1.185,1.185,0,0,0-1.131,1.188l0.226,5.6a2.531,2.531,0,0,0,.679,1.528l12.556,12.556a2.343,2.343,0,0,0,1.555.707l5.091,0.169a2.3,2.3,0,0,0,1.753-.678l3.139-3.139a2.369,2.369,0,0,0,.679-1.754l-0.17-5.09a2.338,2.338,0,0,0-.707-1.555L233.5,234.471l-0.2-5.062,0.028-.028,2.319-2.319,5.09,0.17,0.029,0.028,12.754,12.754,0.028,0.028,0.2,5.572a1.148,1.148,0,0,0,1.216,1.1,1.134,1.134,0,0,0,1.1-1.159Zm28.708,28.708a2.378,2.378,0,0,0-.679-1.584l-12.754-12.754a2.383,2.383,0,0,0-1.584-.679l-5.062-.2a2.3,2.3,0,0,0-1.753.679l-2.319,2.319a2.3,2.3,0,0,0-.679,1.753l0.2,5.062a2.362,2.362,0,0,0,.651,1.556l12.556,12.556,0.226,5.09-3.167,3.168-0.028.028-5.091-.226-12.556-12.557-0.2-5.571a1.147,1.147,0,0,0-1.216-1.1,1.184,1.184,0,0,0-1.131,1.187l0.226,5.6a2.531,2.531,0,0,0,.679,1.527l12.556,12.556a2.34,2.34,0,0,0,1.555.707l5.091,0.169a2.3,2.3,0,0,0,1.753-.678l3.139-3.139a2.365,2.365,0,0,0,.679-1.754l-0.17-5.09a2.338,2.338,0,0,0-.707-1.555L262.208,263.18l-0.2-5.062,0.028-.029,2.319-2.319,5.091,0.17,0.028,0.028,12.754,12.754,0.028,0.029,0.2,5.571a1.149,1.149,0,0,0,1.216,1.1,1.135,1.135,0,0,0,1.1-1.16Z"/>
</svg>
