<svg xmlns="http://www.w3.org/2000/svg" width="689.834" height="68.832" viewBox="0 0 689.834 68.832">
  <path id="title-web-tips" d="M-237.7-68.832a2.786,2.786,0,0,0-2.784,2.784v24.864l-.192.288L-264-7.584l-22.368-32.448-.288-.288V-66.048a2.786,2.786,0,0,0-2.784-2.784,2.786,2.786,0,0,0-2.784,2.784v24.864c-.1.1-.192.192-.192.288L-315.744-7.584l-22.464-32.448c-.1-.1-.1-.192-.192-.288V-66.048a2.786,2.786,0,0,0-2.784-2.784,2.786,2.786,0,0,0-2.784,2.784v25.632a5.705,5.705,0,0,0,1.344,3.648l24.576,35.616A3.007,3.007,0,0,0-315.744,0a3.167,3.167,0,0,0,2.3-1.152l23.712-33.984,23.52,33.984A2.818,2.818,0,0,0-264,0a2.861,2.861,0,0,0,2.3-1.152l25.44-36.48a5.269,5.269,0,0,0,1.344-3.552V-66.048A2.786,2.786,0,0,0-237.7-68.832ZM-152.352-9.7a2.843,2.843,0,0,0,.1-3.936,2.757,2.757,0,0,0-3.936-.192l-8.928,8.352h-46.944v-25.44h47.232a2.706,2.706,0,0,0,2.688-2.784,2.706,2.706,0,0,0-2.688-2.784h-47.232V-61.824h46.944l8.928,8.256a2.757,2.757,0,0,0,3.936-.192,2.725,2.725,0,0,0-.1-3.84l-9.024-8.352a5.219,5.219,0,0,0-3.744-1.44h-49.728a2.786,2.786,0,0,0-2.784,2.784v61.92A2.768,2.768,0,0,0-214.848,0h49.728a5.219,5.219,0,0,0,3.744-1.44Zm83.424-.1A5.374,5.374,0,0,0-67.2-13.824v-12a5.374,5.374,0,0,0-1.728-4.032l-7.776-7.2,6.912-6.432a5.675,5.675,0,0,0,1.824-4.128v-5.952A5.518,5.518,0,0,0-69.792-57.7l-8.928-8.256a5.553,5.553,0,0,0-3.744-1.44h-48.96a2.706,2.706,0,0,0-2.784,2.688v61.92A2.786,2.786,0,0,0-131.424,0H-81.7a5.617,5.617,0,0,0,3.84-1.44ZM-82.464-61.92l8.928,8.256v6.048l-8.544,7.968h-46.56V-61.92ZM-128.64-5.568V-33.792h47.232l8.736,7.968v12L-81.7-5.568Zm77.28-34.464a2.786,2.786,0,0,0,2.784,2.784h29.952a2.786,2.786,0,0,0,2.784-2.784,2.786,2.786,0,0,0-2.784-2.784H-48.576A2.786,2.786,0,0,0-51.36-40.032ZM56.352,0a2.786,2.786,0,0,0,2.784-2.784V-63.072h33.5a2.786,2.786,0,0,0,2.784-2.784A2.786,2.786,0,0,0,92.64-68.64H20.064a2.786,2.786,0,0,0-2.784,2.784,2.786,2.786,0,0,0,2.784,2.784h33.5V-2.784A2.786,2.786,0,0,0,56.352,0Zm83.136-5.568h-24A2.786,2.786,0,0,0,112.7-2.784,2.786,2.786,0,0,0,115.488,0h53.568a2.786,2.786,0,0,0,2.784-2.784,2.786,2.786,0,0,0-2.784-2.784h-24v-57.12h24a2.786,2.786,0,0,0,2.784-2.784,2.786,2.786,0,0,0-2.784-2.784H115.488a2.786,2.786,0,0,0-2.784,2.784,2.786,2.786,0,0,0,2.784,2.784h24ZM245.472-65.952a5.617,5.617,0,0,0-3.84-1.44H191.9a2.786,2.786,0,0,0-2.784,2.784v61.92A2.706,2.706,0,0,0,191.9,0a2.706,2.706,0,0,0,2.784-2.688V-27.744h46.944a5.3,5.3,0,0,0,3.744-1.536l9.024-8.256a5.374,5.374,0,0,0,1.728-4.032v-12A5.374,5.374,0,0,0,254.4-57.6Zm5.184,12.384v12l-9.024,8.256H194.688V-61.824h46.944ZM335.136-67.1a5.708,5.708,0,0,0-3.84-1.536H288a5.708,5.708,0,0,0-3.84,1.536l-8.928,8.256a5.518,5.518,0,0,0-1.824,4.128v7.872a5.518,5.518,0,0,0,1.824,4.128l8.928,8.256a5.658,5.658,0,0,0,3.744,1.536h42.624l9.024,8.256v10.848l-9.024,8.256H287.9l-9.792-9.12a2.757,2.757,0,0,0-3.936.192,2.843,2.843,0,0,0,.1,3.936l9.888,9.12A6.066,6.066,0,0,0,287.9,0h42.624a5.617,5.617,0,0,0,3.84-1.44L343.3-9.792a5.518,5.518,0,0,0,1.824-4.128V-24.576A5.675,5.675,0,0,0,343.3-28.7l-8.928-8.352a5.617,5.617,0,0,0-3.84-1.44H287.9l-8.928-8.256V-54.72l8.928-8.352h43.488l9.792,9.12a2.757,2.757,0,0,0,3.936-.192,2.723,2.723,0,0,0-.1-3.84Z" transform="translate(343.968 68.832)" fill="#fff"/>
</svg>
