<svg xmlns="http://www.w3.org/2000/svg" width="457.706" height="68.832" viewBox="0 0 457.706 68.832">
  <path id="title-works" d="M110.112-68.832a2.786,2.786,0,0,0-2.784,2.784v24.864l-.192.288L83.808-7.584,61.44-40.032l-.288-.288V-66.048a2.786,2.786,0,0,0-2.784-2.784,2.786,2.786,0,0,0-2.784,2.784v24.864c-.1.1-.192.192-.192.288L32.064-7.584,9.6-40.032c-.1-.1-.1-.192-.192-.288V-66.048a2.786,2.786,0,0,0-2.784-2.784A2.786,2.786,0,0,0,3.84-66.048v25.632a5.705,5.705,0,0,0,1.344,3.648L29.76-1.152A3.007,3.007,0,0,0,32.064,0a3.167,3.167,0,0,0,2.3-1.152L58.08-35.136,81.6-1.152A2.818,2.818,0,0,0,83.808,0a2.861,2.861,0,0,0,2.3-1.152l25.44-36.48a5.269,5.269,0,0,0,1.344-3.552V-66.048A2.786,2.786,0,0,0,110.112-68.832Zm91.1,11.52c-.1-.192-.288-.288-.384-.48l-8.928-8.16a5.457,5.457,0,0,0-3.552-1.536h-43.68a2.386,2.386,0,0,0-.768.1,5.125,5.125,0,0,0-2.976,1.44l-9.888,9.12a3.1,3.1,0,0,0-.864,2.5v41.184a3.1,3.1,0,0,0,.864,2.5l.576.48a.75.75,0,0,0,.384.384l8.928,8.256A5.457,5.457,0,0,0,144.48,0h43.584c.288,0,.576-.1.768-.1a6.08,6.08,0,0,0,3.072-1.44l9.792-9.12a2.576,2.576,0,0,0,.864-2.5c0-.288.1-.48.1-.768V-53.664l-.1-.672a2.576,2.576,0,0,0-.864-2.5ZM188.064-5.568H144.672l-8.928-8.352V-53.568l8.928-8.352H188.16l8.928,8.256V-13.92Zm99.168,2.784-2.784-2.784h-8.064L265.44-27.84h7.008a5.219,5.219,0,0,0,3.744-1.44l9.024-8.256a5.975,5.975,0,0,0,1.728-4.128v-11.9a5.975,5.975,0,0,0-1.728-4.128l-9.024-8.256a5.219,5.219,0,0,0-3.744-1.44H222.72a2.706,2.706,0,0,0-2.784,2.688v61.92A2.786,2.786,0,0,0,222.72,0,2.786,2.786,0,0,0,225.5-2.784V-27.84H259.3L271.872-2.3a2.267,2.267,0,0,0,.576.864A5.553,5.553,0,0,0,276.192,0h8.256A2.786,2.786,0,0,0,287.232-2.784ZM225.5-33.312V-61.92h46.944l8.928,8.352.1,11.9a.094.094,0,0,0-.1.1l-8.928,8.16v.1Zm79.008,12.384V-2.784A2.786,2.786,0,0,0,307.3,0a2.786,2.786,0,0,0,2.784-2.784V-19.2l27.84-12.192L356.544-2.016l.48.576A5.553,5.553,0,0,0,360.768,0h8.256a2.786,2.786,0,0,0,2.784-2.784,2.786,2.786,0,0,0-2.784-2.784h-8.16L343.008-33.6l24.96-10.944h.1a5.979,5.979,0,0,0,3.456-4.992V-64.7a2.625,2.625,0,0,0-2.688-2.688,2.706,2.706,0,0,0-2.784,2.688v14.88c-.1.1-.192.192-.288.192L310.08-25.248V-64.7a2.706,2.706,0,0,0-2.784-2.688,2.706,2.706,0,0,0-2.784,2.688ZM450.816-67.1a5.708,5.708,0,0,0-3.84-1.536h-43.3a5.708,5.708,0,0,0-3.84,1.536l-8.928,8.256a5.518,5.518,0,0,0-1.824,4.128v7.872a5.518,5.518,0,0,0,1.824,4.128l8.928,8.256a5.658,5.658,0,0,0,3.744,1.536h42.624l9.024,8.256v10.848l-9.024,8.256H403.584l-9.792-9.12a2.757,2.757,0,0,0-3.936.192,2.843,2.843,0,0,0,.1,3.936l9.888,9.12A6.066,6.066,0,0,0,403.584,0h42.624a5.617,5.617,0,0,0,3.84-1.44l8.928-8.352A5.518,5.518,0,0,0,460.8-13.92V-24.576a5.675,5.675,0,0,0-1.824-4.128l-8.928-8.352a5.617,5.617,0,0,0-3.84-1.44H403.584l-8.928-8.256V-54.72l8.928-8.352h43.488l9.792,9.12a2.757,2.757,0,0,0,3.936-.192,2.723,2.723,0,0,0-.1-3.84Z" transform="translate(-3.84 68.832)" fill="#fff"/>
</svg>
