<svg xmlns="http://www.w3.org/2000/svg" width="328.288" height="68.64" viewBox="0 0 328.288 68.64">
  <path id="title-blog" d="M69.12-9.792a5.374,5.374,0,0,0,1.728-4.032v-12a5.374,5.374,0,0,0-1.728-4.032l-7.776-7.2,6.912-6.432a5.675,5.675,0,0,0,1.824-4.128v-5.952A5.518,5.518,0,0,0,68.256-57.7l-8.928-8.256a5.553,5.553,0,0,0-3.744-1.44H6.624A2.706,2.706,0,0,0,3.84-64.7v61.92A2.786,2.786,0,0,0,6.624,0H56.352a5.617,5.617,0,0,0,3.84-1.44ZM55.584-61.92l8.928,8.256v6.048l-8.544,7.968H9.408V-61.92ZM9.408-5.568V-33.792H56.64l8.736,7.968v12L56.352-5.568ZM151.68-10.56a2.76,2.76,0,0,0,.192-3.936,2.757,2.757,0,0,0-3.936-.192l-9.792,9.12h-35.52L93.6-13.824V-65.856a2.786,2.786,0,0,0-2.784-2.784,2.768,2.768,0,0,0-2.688,2.784v52.032A5.583,5.583,0,0,0,89.856-9.7L98.88-1.44A5.219,5.219,0,0,0,102.624,0h35.424a5.617,5.617,0,0,0,3.84-1.44Zm89.28-46.752c-.1-.192-.288-.288-.384-.48l-8.928-8.16a5.457,5.457,0,0,0-3.552-1.536h-43.68a2.386,2.386,0,0,0-.768.1,5.125,5.125,0,0,0-2.976,1.44l-9.888,9.12a3.1,3.1,0,0,0-.864,2.5v41.184a3.1,3.1,0,0,0,.864,2.5l.576.48a.75.75,0,0,0,.384.384l8.928,8.256A5.457,5.457,0,0,0,184.224,0h43.584c.288,0,.576-.1.768-.1a6.081,6.081,0,0,0,3.072-1.44l9.792-9.12a2.576,2.576,0,0,0,.864-2.5c0-.288.1-.48.1-.768V-53.664l-.1-.672a2.576,2.576,0,0,0-.864-2.5ZM227.808-5.568H184.416l-8.928-8.352V-53.568l8.928-8.352H227.9l8.928,8.256V-13.92ZM270.432-1.44A5.219,5.219,0,0,0,274.176,0h43.392a5.661,5.661,0,0,0,3.744-1.44l9.888-9.12a2.978,2.978,0,0,0,.864-2.112V-33.7a2.768,2.768,0,0,0-2.688-2.784h-33.5a2.786,2.786,0,0,0-2.784,2.784,2.786,2.786,0,0,0,2.784,2.784h30.72v17.088l-9.024,8.256H274.176l-9.024-8.256V-53.568l9.024-8.352h43.392l9.888,9.12a2.753,2.753,0,0,0,3.936-.1,2.757,2.757,0,0,0-.192-3.936l-9.888-9.12a5.219,5.219,0,0,0-3.744-1.44H274.176a5.219,5.219,0,0,0-3.744,1.44L261.408-57.7a5.583,5.583,0,0,0-1.728,4.128v39.744A5.583,5.583,0,0,0,261.408-9.7Z" transform="translate(-3.84 68.64)" fill="#fff"/>
</svg>
