<svg xmlns="http://www.w3.org/2000/svg" width="255.424" height="117.312" viewBox="0 0 255.424 117.312">
  <path id="title-notfound-blue" d="M69.312-69.312a2.786,2.786,0,0,0-2.784,2.784v36.192H17.664L9.408-39.264V-66.528a2.786,2.786,0,0,0-2.784-2.784A2.786,2.786,0,0,0,3.84-66.528V-39.36a5.617,5.617,0,0,0,1.44,3.84l8.256,8.928a5.675,5.675,0,0,0,4.128,1.824H66.528V-2.784A2.786,2.786,0,0,0,69.312,0,2.786,2.786,0,0,0,72.1-2.784V-66.528A2.786,2.786,0,0,0,69.312-69.312Zm91.1,12c-.1-.192-.288-.288-.384-.48l-8.928-8.16a5.457,5.457,0,0,0-3.552-1.536h-43.68a2.386,2.386,0,0,0-.768.1,5.125,5.125,0,0,0-2.976,1.44l-9.888,9.12a3.1,3.1,0,0,0-.864,2.5v41.184a3.1,3.1,0,0,0,.864,2.5l.576.48a.75.75,0,0,0,.384.384l8.928,8.256A5.457,5.457,0,0,0,103.68,0h43.584c.288,0,.576-.1.768-.1a6.081,6.081,0,0,0,3.072-1.44l9.792-9.12a2.576,2.576,0,0,0,.864-2.5c0-.288.1-.48.1-.768V-53.664l-.1-.672a2.576,2.576,0,0,0-.864-2.5ZM147.264-5.568H103.872L94.944-13.92V-53.568l8.928-8.352H147.36l8.928,8.256V-13.92Zm97.344-63.744a2.786,2.786,0,0,0-2.784,2.784v36.192H192.96L184.7-39.264V-66.528a2.786,2.786,0,0,0-2.784-2.784,2.786,2.786,0,0,0-2.784,2.784V-39.36a5.617,5.617,0,0,0,1.44,3.84l8.256,8.928a5.675,5.675,0,0,0,4.128,1.824h48.864V-2.784A2.786,2.786,0,0,0,244.608,0a2.786,2.786,0,0,0,2.784-2.784V-66.528A2.786,2.786,0,0,0,244.608-69.312ZM24.96,25.248a.929.929,0,0,0-.928.928V46.144H22.24L5.984,25.6a.957.957,0,0,0-.736-.352H2.208a.929.929,0,0,0-.928.928v20.9a.928.928,0,1,0,1.856,0V27.1L4.8,27.072,21.056,47.648a.91.91,0,0,0,.736.352H24.96a.929.929,0,0,0,.928-.928v-20.9A.929.929,0,0,0,24.96,25.248ZM55.328,28.9c-.032-.064-.1-.1-.128-.16l-2.976-2.72A1.819,1.819,0,0,0,51.04,25.5H36.48a.8.8,0,0,0-.256.032,1.708,1.708,0,0,0-.992.48l-3.3,3.04a1.032,1.032,0,0,0-.288.832V43.616a1.032,1.032,0,0,0,.288.832l.192.16a.25.25,0,0,0,.128.128l2.976,2.752A1.819,1.819,0,0,0,36.416,48H50.944c.1,0,.192-.032.256-.032a2.027,2.027,0,0,0,1.024-.48l3.264-3.04a.859.859,0,0,0,.288-.832c0-.1.032-.16.032-.256V30.112l-.032-.224a.859.859,0,0,0-.288-.832ZM50.944,46.144H36.48L33.5,43.36V30.144L36.48,27.36h14.5l2.976,2.752V43.36ZM74.592,48a.929.929,0,0,0,.928-.928v-20.1H86.688a.928.928,0,1,0,0-1.856H62.5a.928.928,0,1,0,0,1.856H73.664v20.1A.929.929,0,0,0,74.592,48Zm43.04-10.592h15.744a.912.912,0,1,0,0-1.824H117.632V27.1H133.28l3.008,2.752a.88.88,0,0,0,1.28-.032.947.947,0,0,0-.032-1.312L134.56,25.76a1.9,1.9,0,0,0-1.28-.512H116.7a.929.929,0,0,0-.928.928v20.9a.928.928,0,1,0,1.856,0ZM167.264,28.9c-.032-.064-.1-.1-.128-.16l-2.976-2.72a1.819,1.819,0,0,0-1.184-.512h-14.56a.8.8,0,0,0-.256.032,1.708,1.708,0,0,0-.992.48l-3.3,3.04a1.032,1.032,0,0,0-.288.832V43.616a1.032,1.032,0,0,0,.288.832l.192.16a.25.25,0,0,0,.128.128l2.976,2.752a1.819,1.819,0,0,0,1.184.512H162.88c.1,0,.192-.032.256-.032a2.027,2.027,0,0,0,1.024-.48l3.264-3.04a.859.859,0,0,0,.288-.832c0-.1.032-.16.032-.256V30.112l-.032-.224a.859.859,0,0,0-.288-.832ZM162.88,46.144H148.416L145.44,43.36V30.144l2.976-2.784h14.5l2.976,2.752V43.36ZM195.872,25.12a.929.929,0,0,0-.928.928v17.12l-2.752,2.976H178.144l-2.784-2.976V26.048a.928.928,0,0,0-1.856,0v17.12a1.886,1.886,0,0,0,.512,1.248l2.752,2.976a1.892,1.892,0,0,0,1.376.608H192.16a1.839,1.839,0,0,0,1.376-.608l2.752-2.976a1.851,1.851,0,0,0,.48-1.248V26.048A.9.9,0,0,0,195.872,25.12Zm30.336.128a.929.929,0,0,0-.928.928V46.144h-1.792L207.232,25.6a.957.957,0,0,0-.736-.352h-3.04a.929.929,0,0,0-.928.928v20.9a.928.928,0,1,0,1.856,0V27.1l1.664-.032L222.3,47.648a.91.91,0,0,0,.736.352h3.168a.929.929,0,0,0,.928-.928v-20.9A.929.929,0,0,0,226.208,25.248ZM256.1,44.736a1.822,1.822,0,0,0,.608-1.344V30.144a1.839,1.839,0,0,0-.608-1.376l-2.976-2.752a1.851,1.851,0,0,0-1.248-.48H233.824a.9.9,0,0,0-.928.9v20.64a.929.929,0,0,0,.928.928H251.84a1.872,1.872,0,0,0,1.28-.48Zm-21.344,1.408V27.36h17.12l2.976,2.752v13.28l-2.976,2.752h-17.12Z" transform="translate(-1.28 69.312)" fill="blue"/>
</svg>
