<svg xmlns="http://www.w3.org/2000/svg" width="509.066" height="68.736" viewBox="0 0 509.066 68.736">
  <path id="title-thanks" d="M42.912,0A2.786,2.786,0,0,0,45.7-2.784V-63.072H79.2a2.786,2.786,0,0,0,2.784-2.784A2.786,2.786,0,0,0,79.2-68.64H6.624A2.786,2.786,0,0,0,3.84-65.856a2.786,2.786,0,0,0,2.784,2.784h33.5V-2.784A2.786,2.786,0,0,0,42.912,0Zm59.136.1a2.786,2.786,0,0,0,2.784-2.784V-31.68H160.8V-2.688A2.706,2.706,0,0,0,163.488.1a2.786,2.786,0,0,0,2.784-2.784V-65.376a2.786,2.786,0,0,0-2.784-2.784,2.706,2.706,0,0,0-2.688,2.784v28.128H104.832V-65.376a2.786,2.786,0,0,0-2.784-2.784,2.786,2.786,0,0,0-2.784,2.784V-2.688A2.786,2.786,0,0,0,102.048.1ZM237.7-65.472a5.229,5.229,0,0,0-4.032-1.728H197.376a5.435,5.435,0,0,0-4.128,1.728l-8.256,8.832a5.617,5.617,0,0,0-1.44,3.84V-2.688A2.683,2.683,0,0,0,186.24,0a2.706,2.706,0,0,0,2.784-2.688v-24.96h52.9v24.96A2.706,2.706,0,0,0,244.7,0a2.706,2.706,0,0,0,2.784-2.688V-52.8a6.116,6.116,0,0,0-1.44-3.84ZM189.12-52.8l8.16-8.928c0-.1,0-.1.1-.1h36.288a.094.094,0,0,1,.1.1l8.16,8.928v19.584h-52.9V-52.8Zm-.1,20.064c.1,0,.1.1,0,.1Zm52.9.1c-.1,0-.1-.1,0-.1Zm-52.9,4.416c.1.192.1.192,0,.288Zm52.9.288c-.1-.1-.1-.1,0-.288Zm93.888-40.32a2.786,2.786,0,0,0-2.784,2.784v59.9h-5.376L278.88-67.2a2.87,2.87,0,0,0-2.208-1.056h-9.12a2.786,2.786,0,0,0-2.784,2.784V-2.784A2.786,2.786,0,0,0,267.552,0a2.786,2.786,0,0,0,2.784-2.784v-59.9l4.992-.1L324.1-1.056A2.731,2.731,0,0,0,326.3,0h9.5a2.786,2.786,0,0,0,2.784-2.784V-65.472A2.786,2.786,0,0,0,335.808-68.256Zm20.064,47.328V-2.784A2.786,2.786,0,0,0,358.656,0a2.786,2.786,0,0,0,2.784-2.784V-19.2l27.84-12.192L407.9-2.016l.48.576A5.553,5.553,0,0,0,412.128,0h8.256a2.786,2.786,0,0,0,2.784-2.784,2.786,2.786,0,0,0-2.784-2.784h-8.16L394.368-33.6l24.96-10.944h.1a5.979,5.979,0,0,0,3.456-4.992V-64.7a2.625,2.625,0,0,0-2.688-2.688,2.706,2.706,0,0,0-2.784,2.688v14.88c-.1.1-.192.192-.288.192L361.44-25.248V-64.7a2.706,2.706,0,0,0-2.784-2.688,2.706,2.706,0,0,0-2.784,2.688ZM502.176-67.1a5.708,5.708,0,0,0-3.84-1.536h-43.3A5.708,5.708,0,0,0,451.2-67.1l-8.928,8.256a5.518,5.518,0,0,0-1.824,4.128v7.872a5.518,5.518,0,0,0,1.824,4.128l8.928,8.256a5.658,5.658,0,0,0,3.744,1.536h42.624l9.024,8.256v10.848l-9.024,8.256H454.944l-9.792-9.12a2.757,2.757,0,0,0-3.936.192,2.843,2.843,0,0,0,.1,3.936L451.2-1.44A6.066,6.066,0,0,0,454.944,0h42.624a5.617,5.617,0,0,0,3.84-1.44l8.928-8.352a5.518,5.518,0,0,0,1.824-4.128V-24.576a5.675,5.675,0,0,0-1.824-4.128l-8.928-8.352a5.617,5.617,0,0,0-3.84-1.44H454.944l-8.928-8.256V-54.72l8.928-8.352h43.488l9.792,9.12a2.757,2.757,0,0,0,3.936-.192,2.723,2.723,0,0,0-.1-3.84Z" transform="translate(-3.84 68.64)" fill="#fff"/>
</svg>
