<svg xmlns="http://www.w3.org/2000/svg" width="580.01" height="68.64" viewBox="0 0 580.01 68.64">
  <path id="title-service" d="M65.568-67.1a5.708,5.708,0,0,0-3.84-1.536h-43.3a5.708,5.708,0,0,0-3.84,1.536L5.664-58.848A5.518,5.518,0,0,0,3.84-54.72v7.872A5.518,5.518,0,0,0,5.664-42.72l8.928,8.256a5.658,5.658,0,0,0,3.744,1.536H60.96l9.024,8.256v10.848L60.96-5.568H18.336l-9.792-9.12a2.757,2.757,0,0,0-3.936.192,2.843,2.843,0,0,0,.1,3.936l9.888,9.12A6.066,6.066,0,0,0,18.336,0H60.96A5.617,5.617,0,0,0,64.8-1.44l8.928-8.352a5.518,5.518,0,0,0,1.824-4.128V-24.576A5.675,5.675,0,0,0,73.728-28.7L64.8-37.056a5.617,5.617,0,0,0-3.84-1.44H18.336L9.408-46.752V-54.72l8.928-8.352H61.824l9.792,9.12a2.757,2.757,0,0,0,3.936-.192,2.723,2.723,0,0,0-.1-3.84ZM156.96-9.7a2.843,2.843,0,0,0,.1-3.936,2.757,2.757,0,0,0-3.936-.192l-8.928,8.352H97.248v-25.44H144.48a2.706,2.706,0,0,0,2.688-2.784,2.706,2.706,0,0,0-2.688-2.784H97.248V-61.824h46.944l8.928,8.256a2.757,2.757,0,0,0,3.936-.192,2.725,2.725,0,0,0-.1-3.84l-9.024-8.352a5.219,5.219,0,0,0-3.744-1.44H94.464a2.786,2.786,0,0,0-2.784,2.784v61.92A2.768,2.768,0,0,0,94.464,0h49.728a5.219,5.219,0,0,0,3.744-1.44ZM242.4-2.784l-2.784-2.784h-8.064L220.608-27.84h7.008a5.219,5.219,0,0,0,3.744-1.44l9.024-8.256a5.975,5.975,0,0,0,1.728-4.128v-11.9a5.975,5.975,0,0,0-1.728-4.128l-9.024-8.256a5.219,5.219,0,0,0-3.744-1.44H177.888A2.706,2.706,0,0,0,175.1-64.7v61.92A2.786,2.786,0,0,0,177.888,0a2.786,2.786,0,0,0,2.784-2.784V-27.84h33.792L227.04-2.3a2.267,2.267,0,0,0,.576.864A5.553,5.553,0,0,0,231.36,0h8.256A2.786,2.786,0,0,0,242.4-2.784ZM180.672-33.312V-61.92h46.944l8.928,8.352.1,11.9a.094.094,0,0,0-.1.1l-8.928,8.16v.1ZM297.024,0a2.69,2.69,0,0,0,2.208-1.152L333.7-48.768a2.258,2.258,0,0,0,.576-1.632V-65.856a2.786,2.786,0,0,0-2.784-2.784,2.786,2.786,0,0,0-2.784,2.784v14.592L297.024-7.488,265.248-51.264V-65.856a2.786,2.786,0,0,0-2.784-2.784,2.786,2.786,0,0,0-2.784,2.784V-50.3a2.18,2.18,0,0,0,.576,1.536L294.72-1.152A2.737,2.737,0,0,0,297.024,0Zm81.312-5.568h-24a2.786,2.786,0,0,0-2.784,2.784A2.786,2.786,0,0,0,354.336,0H407.9a2.786,2.786,0,0,0,2.784-2.784A2.786,2.786,0,0,0,407.9-5.568h-24v-57.12h24a2.786,2.786,0,0,0,2.784-2.784,2.786,2.786,0,0,0-2.784-2.784H354.336a2.786,2.786,0,0,0-2.784,2.784,2.786,2.786,0,0,0,2.784,2.784h24ZM485.856,0A5.219,5.219,0,0,0,489.6-1.44l9.888-9.12a2.76,2.76,0,0,0,.192-3.936,2.757,2.757,0,0,0-3.936-.192l-9.888,9.12H442.464l-9.024-8.256V-53.568l9.024-8.352h43.392l9.888,9.12a2.753,2.753,0,0,0,3.936-.1,2.757,2.757,0,0,0-.192-3.936l-9.888-9.12a5.219,5.219,0,0,0-3.744-1.44H442.464a5.219,5.219,0,0,0-3.744,1.44L429.7-57.7a5.583,5.583,0,0,0-1.728,4.128v39.744A5.583,5.583,0,0,0,429.7-9.7L438.72-1.44A5.219,5.219,0,0,0,442.464,0Zm97.152-9.7a2.843,2.843,0,0,0,.1-3.936,2.757,2.757,0,0,0-3.936-.192L570.24-5.472H523.3v-25.44h47.232a2.706,2.706,0,0,0,2.688-2.784,2.706,2.706,0,0,0-2.688-2.784H523.3V-61.824H570.24l8.928,8.256a2.757,2.757,0,0,0,3.936-.192,2.725,2.725,0,0,0-.1-3.84l-9.024-8.352a5.219,5.219,0,0,0-3.744-1.44H520.512a2.786,2.786,0,0,0-2.784,2.784v61.92A2.768,2.768,0,0,0,520.512,0H570.24a5.219,5.219,0,0,0,3.744-1.44Z" transform="translate(-3.84 68.64)" fill="#fff"/>
</svg>
