<svg xmlns="http://www.w3.org/2000/svg" width="432.17" height="68.64" viewBox="0 0 432.17 68.64">
  <path id="title-notes" d="M74.88-68.256A2.786,2.786,0,0,0,72.1-65.472v59.9H66.72L17.952-67.2a2.87,2.87,0,0,0-2.208-1.056H6.624A2.786,2.786,0,0,0,3.84-65.472V-2.784A2.786,2.786,0,0,0,6.624,0,2.786,2.786,0,0,0,9.408-2.784v-59.9l4.992-.1L63.168-1.056A2.731,2.731,0,0,0,65.376,0h9.5a2.786,2.786,0,0,0,2.784-2.784V-65.472A2.786,2.786,0,0,0,74.88-68.256Zm91.1,10.944c-.1-.192-.288-.288-.384-.48l-8.928-8.16a5.457,5.457,0,0,0-3.552-1.536H109.44a2.386,2.386,0,0,0-.768.1,5.125,5.125,0,0,0-2.976,1.44l-9.888,9.12a3.1,3.1,0,0,0-.864,2.5v41.184a3.1,3.1,0,0,0,.864,2.5l.576.48a.75.75,0,0,0,.384.384L105.7-1.536A5.457,5.457,0,0,0,109.248,0h43.584c.288,0,.576-.1.768-.1a6.081,6.081,0,0,0,3.072-1.44l9.792-9.12a2.576,2.576,0,0,0,.864-2.5c0-.288.1-.48.1-.768V-53.664l-.1-.672a2.576,2.576,0,0,0-.864-2.5ZM152.832-5.568H109.44l-8.928-8.352V-53.568l8.928-8.352h43.488l8.928,8.256V-13.92ZM223.776,0a2.786,2.786,0,0,0,2.784-2.784V-63.072h33.5a2.786,2.786,0,0,0,2.784-2.784,2.786,2.786,0,0,0-2.784-2.784H187.488a2.786,2.786,0,0,0-2.784,2.784,2.786,2.786,0,0,0,2.784,2.784h33.5V-2.784A2.786,2.786,0,0,0,223.776,0ZM345.408-9.7a2.843,2.843,0,0,0,.1-3.936,2.757,2.757,0,0,0-3.936-.192L332.64-5.472H285.7v-25.44h47.232a2.706,2.706,0,0,0,2.688-2.784,2.706,2.706,0,0,0-2.688-2.784H285.7V-61.824H332.64l8.928,8.256a2.757,2.757,0,0,0,3.936-.192,2.725,2.725,0,0,0-.1-3.84l-9.024-8.352a5.219,5.219,0,0,0-3.744-1.44H282.912a2.786,2.786,0,0,0-2.784,2.784v61.92A2.768,2.768,0,0,0,282.912,0H332.64a5.219,5.219,0,0,0,3.744-1.44ZM425.28-67.1a5.708,5.708,0,0,0-3.84-1.536h-43.3A5.708,5.708,0,0,0,374.3-67.1l-8.928,8.256a5.518,5.518,0,0,0-1.824,4.128v7.872a5.518,5.518,0,0,0,1.824,4.128l8.928,8.256a5.658,5.658,0,0,0,3.744,1.536h42.624l9.024,8.256v10.848l-9.024,8.256H378.048l-9.792-9.12a2.757,2.757,0,0,0-3.936.192,2.843,2.843,0,0,0,.1,3.936L374.3-1.44A6.066,6.066,0,0,0,378.048,0h42.624a5.617,5.617,0,0,0,3.84-1.44l8.928-8.352a5.518,5.518,0,0,0,1.824-4.128V-24.576A5.675,5.675,0,0,0,433.44-28.7l-8.928-8.352a5.617,5.617,0,0,0-3.84-1.44H378.048l-8.928-8.256V-54.72l8.928-8.352h43.488l9.792,9.12a2.757,2.757,0,0,0,3.936-.192,2.723,2.723,0,0,0-.1-3.84Z" transform="translate(-3.84 68.64)" fill="#fff"/>
</svg>
