<svg xmlns="http://www.w3.org/2000/svg" width="615.168" height="68.64" viewBox="0 0 615.168 68.64">
  <path id="title-contact" d="M61.728,0a5.219,5.219,0,0,0,3.744-1.44l9.888-9.12a2.76,2.76,0,0,0,.192-3.936,2.757,2.757,0,0,0-3.936-.192l-9.888,9.12H18.336L9.312-13.824V-53.568l9.024-8.352H61.728l9.888,9.12a2.753,2.753,0,0,0,3.936-.1,2.757,2.757,0,0,0-.192-3.936l-9.888-9.12a5.219,5.219,0,0,0-3.744-1.44H18.336a5.219,5.219,0,0,0-3.744,1.44L5.568-57.7A5.583,5.583,0,0,0,3.84-53.568v39.744A5.583,5.583,0,0,0,5.568-9.7L14.592-1.44A5.219,5.219,0,0,0,18.336,0ZM164.64-57.312c-.1-.192-.288-.288-.384-.48l-8.928-8.16a5.457,5.457,0,0,0-3.552-1.536H108.1a2.386,2.386,0,0,0-.768.1,5.125,5.125,0,0,0-2.976,1.44l-9.888,9.12a3.1,3.1,0,0,0-.864,2.5v41.184a3.1,3.1,0,0,0,.864,2.5l.576.48a.75.75,0,0,0,.384.384l8.928,8.256A5.457,5.457,0,0,0,107.9,0h43.584c.288,0,.576-.1.768-.1a6.081,6.081,0,0,0,3.072-1.44l9.792-9.12a2.576,2.576,0,0,0,.864-2.5c0-.288.1-.48.1-.768V-53.664l-.1-.672a2.576,2.576,0,0,0-.864-2.5ZM151.488-5.568H108.1L99.168-13.92V-53.568L108.1-61.92h43.488l8.928,8.256V-13.92ZM254.4-68.256a2.786,2.786,0,0,0-2.784,2.784v59.9H246.24L197.472-67.2a2.87,2.87,0,0,0-2.208-1.056h-9.12a2.786,2.786,0,0,0-2.784,2.784V-2.784A2.786,2.786,0,0,0,186.144,0a2.786,2.786,0,0,0,2.784-2.784v-59.9l4.992-.1L242.688-1.056A2.731,2.731,0,0,0,244.9,0h9.5a2.786,2.786,0,0,0,2.784-2.784V-65.472A2.786,2.786,0,0,0,254.4-68.256ZM313.536,0a2.786,2.786,0,0,0,2.784-2.784V-63.072h33.5a2.786,2.786,0,0,0,2.784-2.784,2.786,2.786,0,0,0-2.784-2.784H277.248a2.786,2.786,0,0,0-2.784,2.784,2.786,2.786,0,0,0,2.784,2.784h33.5V-2.784A2.786,2.786,0,0,0,313.536,0Zm110.5-65.472A5.229,5.229,0,0,0,420-67.2H383.712a5.435,5.435,0,0,0-4.128,1.728l-8.256,8.832a5.617,5.617,0,0,0-1.44,3.84V-2.688A2.683,2.683,0,0,0,372.576,0a2.706,2.706,0,0,0,2.784-2.688v-24.96h52.9v24.96A2.706,2.706,0,0,0,431.04,0a2.706,2.706,0,0,0,2.784-2.688V-52.8a6.116,6.116,0,0,0-1.44-3.84ZM375.456-52.8l8.16-8.928c0-.1,0-.1.1-.1H420a.094.094,0,0,1,.1.1l8.16,8.928v19.584h-52.9V-52.8Zm-.1,20.064c.1,0,.1.1,0,.1Zm52.9.1c-.1,0-.1-.1,0-.1Zm-52.9,4.416c.1.192.1.192,0,.288Zm52.9.288c-.1-.1-.1-.1,0-.288ZM508.992,0a5.219,5.219,0,0,0,3.744-1.44l9.888-9.12a2.76,2.76,0,0,0,.192-3.936,2.757,2.757,0,0,0-3.936-.192l-9.888,9.12H465.6l-9.024-8.256V-53.568L465.6-61.92h43.392l9.888,9.12a2.753,2.753,0,0,0,3.936-.1,2.757,2.757,0,0,0-.192-3.936l-9.888-9.12a5.219,5.219,0,0,0-3.744-1.44H465.6a5.219,5.219,0,0,0-3.744,1.44L452.832-57.7a5.583,5.583,0,0,0-1.728,4.128v39.744A5.583,5.583,0,0,0,452.832-9.7l9.024,8.256A5.219,5.219,0,0,0,465.6,0Zm70.944,0a2.786,2.786,0,0,0,2.784-2.784V-63.072h33.5a2.786,2.786,0,0,0,2.784-2.784,2.786,2.786,0,0,0-2.784-2.784H543.648a2.786,2.786,0,0,0-2.784,2.784,2.786,2.786,0,0,0,2.784,2.784h33.5V-2.784A2.786,2.786,0,0,0,579.936,0Z" transform="translate(-3.84 68.64)" fill="#fff"/>
</svg>
