<svg xmlns="http://www.w3.org/2000/svg" width="566.784" height="68.928" viewBox="0 0 566.784 68.928">
  <path id="title-gallery" d="M14.592-1.44A5.219,5.219,0,0,0,18.336,0H61.728a5.66,5.66,0,0,0,3.744-1.44l9.888-9.12a2.978,2.978,0,0,0,.864-2.112V-33.7a2.768,2.768,0,0,0-2.688-2.784h-33.5A2.786,2.786,0,0,0,37.248-33.7a2.786,2.786,0,0,0,2.784,2.784h30.72v17.088L61.728-5.568H18.336L9.312-13.824V-53.568l9.024-8.352H61.728l9.888,9.12a2.753,2.753,0,0,0,3.936-.1,2.757,2.757,0,0,0-.192-3.936l-9.888-9.12a5.219,5.219,0,0,0-3.744-1.44H18.336a5.219,5.219,0,0,0-3.744,1.44L5.568-57.7A5.583,5.583,0,0,0,3.84-53.568v39.744A5.583,5.583,0,0,0,5.568-9.7ZM147.744-65.472a5.229,5.229,0,0,0-4.032-1.728H107.424a5.435,5.435,0,0,0-4.128,1.728L95.04-56.64A5.617,5.617,0,0,0,93.6-52.8V-2.688A2.683,2.683,0,0,0,96.288,0a2.706,2.706,0,0,0,2.784-2.688v-24.96h52.9v24.96A2.706,2.706,0,0,0,154.752,0a2.706,2.706,0,0,0,2.784-2.688V-52.8a6.117,6.117,0,0,0-1.44-3.84ZM99.168-52.8l8.16-8.928c0-.1,0-.1.1-.1h36.288a.094.094,0,0,1,.1.1l8.16,8.928v19.584h-52.9V-52.8Zm-.1,20.064c.1,0,.1.1,0,.1Zm52.9.1c-.1,0-.1-.1,0-.1Zm-52.9,4.416c.1.192.1.192,0,.288Zm52.9.288c-.1-.1-.1-.1,0-.288Zm86.4,17.376a2.76,2.76,0,0,0,.192-3.936,2.757,2.757,0,0,0-3.936-.192l-9.792,9.12h-35.52l-9.024-8.256V-65.856A2.786,2.786,0,0,0,177.5-68.64a2.768,2.768,0,0,0-2.688,2.784v52.032A5.583,5.583,0,0,0,176.544-9.7l9.024,8.256A5.219,5.219,0,0,0,189.312,0h35.424a5.617,5.617,0,0,0,3.84-1.44Zm81.792,0a2.76,2.76,0,0,0,.192-3.936,2.757,2.757,0,0,0-3.936-.192l-9.792,9.12H271.1l-9.024-8.256V-65.856A2.786,2.786,0,0,0,259.3-68.64a2.768,2.768,0,0,0-2.688,2.784v52.032A5.583,5.583,0,0,0,258.336-9.7L267.36-1.44A5.219,5.219,0,0,0,271.1,0h35.424a5.617,5.617,0,0,0,3.84-1.44Zm83.52.864a2.843,2.843,0,0,0,.1-3.936,2.757,2.757,0,0,0-3.936-.192l-8.928,8.352H343.968v-25.44H391.2a2.706,2.706,0,0,0,2.688-2.784A2.706,2.706,0,0,0,391.2-36.48H343.968V-61.824h46.944l8.928,8.256a2.757,2.757,0,0,0,3.936-.192,2.725,2.725,0,0,0-.1-3.84l-9.024-8.352a5.219,5.219,0,0,0-3.744-1.44H341.184a2.786,2.786,0,0,0-2.784,2.784v61.92A2.768,2.768,0,0,0,341.184,0h49.728a5.219,5.219,0,0,0,3.744-1.44Zm85.44,6.912-2.784-2.784h-8.064L467.328-27.84h7.008a5.219,5.219,0,0,0,3.744-1.44l9.024-8.256a5.975,5.975,0,0,0,1.728-4.128v-11.9A5.975,5.975,0,0,0,487.1-57.7l-9.024-8.256a5.219,5.219,0,0,0-3.744-1.44H424.608a2.706,2.706,0,0,0-2.784,2.688v61.92A2.786,2.786,0,0,0,424.608,0a2.786,2.786,0,0,0,2.784-2.784V-27.84h33.792L473.76-2.3a2.267,2.267,0,0,0,.576.864A5.553,5.553,0,0,0,478.08,0h8.256A2.786,2.786,0,0,0,489.12-2.784ZM427.392-33.312V-61.92h46.944l8.928,8.352.1,11.9a.094.094,0,0,0-.1.1l-8.928,8.16v.1ZM567.936-68.928a2.786,2.786,0,0,0-2.784,2.784v32.256H520.224l-8.256-8.928V-66.144a2.786,2.786,0,0,0-2.784-2.784,2.786,2.786,0,0,0-2.784,2.784v23.328a5.658,5.658,0,0,0,1.536,3.744l8.16,8.928a5.675,5.675,0,0,0,4.128,1.824h44.928V-14.5L556.8-5.568H519.456L511.2-14.5a2.757,2.757,0,0,0-3.936-.192,2.841,2.841,0,0,0-.1,3.936l8.256,8.928A5.467,5.467,0,0,0,519.456,0H556.8a5.675,5.675,0,0,0,4.128-1.824l8.256-8.928a5.618,5.618,0,0,0,1.44-3.84V-66.144A2.706,2.706,0,0,0,567.936-68.928Z" transform="translate(-3.84 68.928)" fill="#fff"/>
</svg>
