<svg xmlns="http://www.w3.org/2000/svg" width="335" height="30" viewBox="0 0 335 30">
  <g id="wordpress" transform="translate(-377 -3811)">
    <path id="パス_42" data-name="パス 42" d="M45.88-28.68a1.161,1.161,0,0,0-1.16,1.16v10.36l-.08.12L34.92-3.16,25.6-16.68l-.12-.12V-27.52a1.161,1.161,0,0,0-1.16-1.16,1.161,1.161,0,0,0-1.16,1.16v10.36c-.04.04-.08.08-.08.12L13.36-3.16,4-16.68c-.04-.04-.04-.08-.08-.12V-27.52a1.161,1.161,0,0,0-1.16-1.16A1.161,1.161,0,0,0,1.6-27.52v10.68a2.377,2.377,0,0,0,.56,1.52L12.4-.48a1.253,1.253,0,0,0,.96.48,1.32,1.32,0,0,0,.96-.48L24.2-14.64,34-.48a1.174,1.174,0,0,0,.92.48,1.192,1.192,0,0,0,.96-.48l10.6-15.2a2.2,2.2,0,0,0,.56-1.48V-27.52A1.161,1.161,0,0,0,45.88-28.68Zm37.96,4.8c-.04-.08-.12-.12-.16-.2l-3.72-3.4a2.274,2.274,0,0,0-1.48-.64H60.28a.994.994,0,0,0-.32.04,2.136,2.136,0,0,0-1.24.6l-4.12,3.8a1.29,1.29,0,0,0-.36,1.04V-5.48a1.29,1.29,0,0,0,.36,1.04l.24.2a.312.312,0,0,0,.16.16L58.72-.64A2.274,2.274,0,0,0,60.2,0H78.36c.12,0,.24-.04.32-.04a2.534,2.534,0,0,0,1.28-.6l4.08-3.8a1.073,1.073,0,0,0,.36-1.04c0-.12.04-.2.04-.32V-22.36l-.04-.28a1.073,1.073,0,0,0-.36-1.04ZM78.36-2.32H60.28L56.56-5.8V-22.32l3.72-3.48H78.4l3.72,3.44V-5.8Zm41.32,1.16-1.16-1.16h-3.36L110.6-11.6h2.92a2.175,2.175,0,0,0,1.56-.6l3.76-3.44a2.489,2.489,0,0,0,.72-1.72v-4.96a2.489,2.489,0,0,0-.72-1.72l-3.76-3.44a2.175,2.175,0,0,0-1.56-.6H92.8a1.127,1.127,0,0,0-1.16,1.12v25.8A1.161,1.161,0,0,0,92.8,0a1.161,1.161,0,0,0,1.16-1.16V-11.6h14.08L113.28-.96a.945.945,0,0,0,.24.36,2.314,2.314,0,0,0,1.56.6h3.44A1.161,1.161,0,0,0,119.68-1.16ZM93.96-13.88V-25.8h19.56l3.72,3.48.04,4.96a.039.039,0,0,0-.04.04l-3.72,3.4v.04Zm61.92,9.8a2.278,2.278,0,0,0,.76-1.68V-22.32a2.3,2.3,0,0,0-.76-1.72l-3.72-3.44a2.314,2.314,0,0,0-1.56-.6H128.04a1.127,1.127,0,0,0-1.16,1.12v25.8A1.161,1.161,0,0,0,128.04,0h22.52a2.341,2.341,0,0,0,1.6-.6ZM129.2-2.32V-25.8h21.4l3.72,3.44v16.6L150.6-2.32H129.2Zm58.12-25.16a2.341,2.341,0,0,0-1.6-.6H165a1.161,1.161,0,0,0-1.16,1.16v25.8A1.127,1.127,0,0,0,165,0a1.127,1.127,0,0,0,1.16-1.12V-11.56h19.56a2.208,2.208,0,0,0,1.56-.64l3.76-3.44a2.239,2.239,0,0,0,.72-1.68v-5a2.239,2.239,0,0,0-.72-1.68Zm2.16,5.16v5l-3.76,3.44H166.16V-25.76h19.56ZM227-1.16l-1.16-1.16h-3.36l-4.56-9.28h2.92a2.175,2.175,0,0,0,1.56-.6l3.76-3.44a2.489,2.489,0,0,0,.72-1.72v-4.96a2.489,2.489,0,0,0-.72-1.72l-3.76-3.44a2.175,2.175,0,0,0-1.56-.6H200.12a1.127,1.127,0,0,0-1.16,1.12v25.8A1.161,1.161,0,0,0,200.12,0a1.161,1.161,0,0,0,1.16-1.16V-11.6h14.08L220.6-.96a.944.944,0,0,0,.24.36,2.314,2.314,0,0,0,1.56.6h3.44A1.161,1.161,0,0,0,227-1.16ZM201.28-13.88V-25.8h19.56l3.72,3.48.04,4.96a.039.039,0,0,0-.04.04l-3.72,3.4v.04ZM261.4-4.04a1.185,1.185,0,0,0,.04-1.64,1.149,1.149,0,0,0-1.64-.08l-3.72,3.48H236.52v-10.6H256.2a1.127,1.127,0,0,0,1.12-1.16,1.127,1.127,0,0,0-1.12-1.16H236.52V-25.76h19.56l3.72,3.44a1.149,1.149,0,0,0,1.64-.08,1.135,1.135,0,0,0-.04-1.6l-3.76-3.48a2.175,2.175,0,0,0-1.56-.6H235.36a1.161,1.161,0,0,0-1.16,1.16v25.8A1.153,1.153,0,0,0,235.36,0h20.72a2.175,2.175,0,0,0,1.56-.6Zm33.28-23.92a2.378,2.378,0,0,0-1.6-.64H275.04a2.378,2.378,0,0,0-1.6.64l-3.72,3.44a2.3,2.3,0,0,0-.76,1.72v3.28a2.3,2.3,0,0,0,.76,1.72l3.72,3.44a2.358,2.358,0,0,0,1.56.64h17.76l3.76,3.44v4.52l-3.76,3.44H275l-4.08-3.8a1.149,1.149,0,0,0-1.64.08,1.185,1.185,0,0,0,.04,1.64l4.12,3.8A2.527,2.527,0,0,0,275,0h17.76a2.341,2.341,0,0,0,1.6-.6l3.72-3.48a2.3,2.3,0,0,0,.76-1.72v-4.44a2.365,2.365,0,0,0-.76-1.72l-3.72-3.48a2.341,2.341,0,0,0-1.6-.6H275l-3.72-3.44V-22.8L275-26.28h18.12l4.08,3.8a1.149,1.149,0,0,0,1.64-.08,1.135,1.135,0,0,0-.04-1.6Zm36.6,0a2.378,2.378,0,0,0-1.6-.64H311.64a2.378,2.378,0,0,0-1.6.64l-3.72,3.44a2.3,2.3,0,0,0-.76,1.72v3.28a2.3,2.3,0,0,0,.76,1.72l3.72,3.44a2.358,2.358,0,0,0,1.56.64h17.76l3.76,3.44v4.52l-3.76,3.44H311.6l-4.08-3.8a1.149,1.149,0,0,0-1.64.08,1.185,1.185,0,0,0,.04,1.64l4.12,3.8a2.527,2.527,0,0,0,1.56.6h17.76a2.341,2.341,0,0,0,1.6-.6l3.72-3.48a2.3,2.3,0,0,0,.76-1.72v-4.44a2.365,2.365,0,0,0-.76-1.72l-3.72-3.48a2.341,2.341,0,0,0-1.6-.6H311.6l-3.72-3.44V-22.8l3.72-3.48h18.12l4.08,3.8a1.149,1.149,0,0,0,1.64-.08,1.135,1.135,0,0,0-.04-1.6Z" transform="translate(376 3840)" fill="#fff"/>
    <g id="長方形_99" data-name="長方形 99" transform="translate(377 3811)" fill="none" stroke="rgba(0,0,0,0)" stroke-width="1">
      <rect width="335" height="30" stroke="none"/>
      <rect x="0.5" y="0.5" width="334" height="29" fill="none"/>
    </g>
  </g>
</svg>
