<svg xmlns="http://www.w3.org/2000/svg" width="157" height="19" viewBox="0 0 157 19">
  <g id="writing" transform="translate(-676 -4470)">
    <path id="パス_38" data-name="パス 38" d="M27.528-17.208a.7.7,0,0,0-.7.7V-10.3l-.048.072L20.952-1.9,15.36-10.008l-.072-.072v-6.432a.7.7,0,0,0-.7-.7.7.7,0,0,0-.7.7V-10.3c-.024.024-.048.048-.048.072L8.016-1.9,2.4-10.008c-.024-.024-.024-.048-.048-.072v-6.432a.7.7,0,0,0-.7-.7.7.7,0,0,0-.7.7V-10.1a1.426,1.426,0,0,0,.336.912L7.44-.288A.752.752,0,0,0,8.016,0a.792.792,0,0,0,.576-.288l5.928-8.5,5.88,8.5A.7.7,0,0,0,20.952,0a.715.715,0,0,0,.576-.288l6.36-9.12a1.317,1.317,0,0,0,.336-.888v-6.216A.7.7,0,0,0,27.528-17.208ZM49.368-.7l-.7-.7H46.656L43.92-6.96h1.752a1.3,1.3,0,0,0,.936-.36l2.256-2.064a1.494,1.494,0,0,0,.432-1.032v-2.976a1.494,1.494,0,0,0-.432-1.032l-2.256-2.064a1.3,1.3,0,0,0-.936-.36H33.24a.676.676,0,0,0-.7.672V-.7a.7.7,0,0,0,.7.7.7.7,0,0,0,.7-.7V-6.96h8.448L45.528-.576a.567.567,0,0,0,.144.216,1.388,1.388,0,0,0,.936.36h2.064A.7.7,0,0,0,49.368-.7ZM33.936-8.328V-15.48H45.672L47.9-13.392l.024,2.976a.024.024,0,0,0-.024.024l-2.232,2.04v.024ZM60.384-1.392h-6a.7.7,0,0,0-.7.7.7.7,0,0,0,.7.7H67.776a.7.7,0,0,0,.7-.7.7.7,0,0,0-.7-.7h-6v-14.28h6a.7.7,0,0,0,.7-.7.7.7,0,0,0-.7-.7H54.384a.7.7,0,0,0-.7.7.7.7,0,0,0,.7.7h6ZM82.56,0a.7.7,0,0,0,.7-.7V-15.768h8.376a.7.7,0,0,0,.7-.7.7.7,0,0,0-.7-.7H73.488a.7.7,0,0,0-.7.7.7.7,0,0,0,.7.7h8.376V-.7A.7.7,0,0,0,82.56,0Zm20.784-1.392h-6a.7.7,0,0,0-.7.7.7.7,0,0,0,.7.7h13.392a.7.7,0,0,0,.7-.7.7.7,0,0,0-.7-.7h-6v-14.28h6a.7.7,0,0,0,.7-.7.7.7,0,0,0-.7-.7H97.344a.7.7,0,0,0-.7.7.7.7,0,0,0,.7.7h6Zm30.168-15.672a.7.7,0,0,0-.7.7V-1.392h-1.344L119.28-16.8a.718.718,0,0,0-.552-.264h-2.28a.7.7,0,0,0-.7.7V-.7a.7.7,0,0,0,.7.7.7.7,0,0,0,.7-.7V-15.672l1.248-.024L130.584-.264a.683.683,0,0,0,.552.264h2.376a.7.7,0,0,0,.7-.7V-16.368A.7.7,0,0,0,133.512-17.064Zm7.7,16.7a1.3,1.3,0,0,0,.936.36H153a1.415,1.415,0,0,0,.936-.36l2.472-2.28a.745.745,0,0,0,.216-.528V-8.424a.692.692,0,0,0-.672-.7h-8.376a.7.7,0,0,0-.7.7.7.7,0,0,0,.7.7h7.68v4.272L153-1.392H142.152L139.9-3.456v-9.936l2.256-2.088H153l2.472,2.28a.688.688,0,0,0,.984-.024.689.689,0,0,0-.048-.984l-2.472-2.28a1.3,1.3,0,0,0-.936-.36H142.152a1.3,1.3,0,0,0-.936.36l-2.256,2.064a1.4,1.4,0,0,0-.432,1.032v9.936a1.4,1.4,0,0,0,.432,1.032Z" transform="translate(676 4488)" fill="#fff"/>
    <g id="長方形_102" data-name="長方形 102" transform="translate(676 4470)" fill="none" stroke="rgba(0,0,0,0)" stroke-width="1">
      <rect width="157" height="19" stroke="none"/>
      <rect x="0.5" y="0.5" width="156" height="18" fill="none"/>
    </g>
  </g>
</svg>
